<svg xmlns="http://www.w3.org/2000/svg" width="245" height="22" viewBox="0 0 245 22" fill="none"><path d="M227.514 14.0651V9.54988C227.514 9.35235 227.553 9.15675 227.628 8.97426C227.704 8.79178 227.814 8.62597 227.953 8.48632C228.093 8.34667 228.258 8.2359 228.44 8.16034C228.621 8.08478 228.816 8.04593 229.013 8.04602H230.34C230.737 8.04681 231.116 8.20545 231.397 8.48706C231.677 8.76868 231.834 9.15027 231.834 9.54809V10.5091C231.834 10.9081 231.676 11.2907 231.395 11.5728C231.114 11.8549 230.732 12.0134 230.335 12.0134H228.458" stroke="#BFBFBF" stroke-width="0.531553" stroke-linecap="round" stroke-linejoin="round"></path><path d="M232.207 8.04541H232.782C232.945 8.04541 233.101 8.11047 233.217 8.22627C233.332 8.34208 233.397 8.4991 233.397 8.66285V12.0364" stroke="#BFBFBF" stroke-width="0.531553" stroke-linecap="round" stroke-linejoin="round"></path><path d="M233.272 7.52267L233.012 7.26035C232.996 7.2449 232.984 7.22653 232.976 7.20632C232.967 7.18606 232.963 7.1644 232.963 7.14249C232.963 7.12061 232.967 7.09891 232.976 7.0787C232.984 7.05849 232.996 7.04011 233.012 7.02467L233.272 6.76278C233.288 6.74725 233.306 6.73495 233.326 6.72655C233.347 6.7182 233.368 6.71387 233.39 6.71387C233.412 6.71387 233.433 6.7182 233.453 6.72655C233.474 6.73495 233.492 6.74725 233.507 6.76278L233.769 7.02467C233.784 7.04011 233.796 7.05849 233.805 7.0787C233.813 7.09891 233.817 7.12061 233.817 7.14249C233.817 7.1644 233.813 7.18606 233.805 7.20632C233.796 7.22653 233.784 7.2449 233.769 7.26035L233.507 7.52267C233.492 7.5382 233.474 7.5505 233.453 7.5589C233.433 7.56725 233.412 7.57159 233.39 7.57159C233.368 7.57159 233.347 7.56725 233.326 7.5589C233.306 7.5505 233.288 7.5382 233.272 7.52267Z" fill="#BFBFBF"></path><path d="M234.503 8.04285H235.075C235.369 8.04293 235.651 8.1601 235.859 8.36865L237.195 9.70963C237.236 9.75107 237.285 9.78388 237.339 9.80632C237.393 9.82872 237.45 9.84027 237.508 9.84027C237.567 9.84027 237.624 9.82872 237.678 9.80632C237.732 9.78388 237.781 9.75107 237.822 9.70963L239.155 8.37355C239.258 8.27026 239.38 8.18827 239.515 8.1324C239.649 8.07649 239.793 8.0477 239.939 8.04775H240.403" stroke="#BFBFBF" stroke-width="0.531553" stroke-linecap="round" stroke-linejoin="round"></path><path d="M234.503 12.0064H235.075C235.369 12.0064 235.651 11.8892 235.859 11.6806L237.195 10.3401C237.236 10.2987 237.285 10.2658 237.339 10.2434C237.393 10.221 237.45 10.2095 237.508 10.2095C237.567 10.2095 237.624 10.221 237.678 10.2434C237.732 10.2658 237.781 10.2987 237.822 10.3401L239.155 11.6757C239.258 11.779 239.38 11.861 239.515 11.9169C239.649 11.9728 239.793 12.0016 239.939 12.0015H240.403" stroke="#BFBFBF" stroke-width="0.531553" stroke-linecap="round" stroke-linejoin="round"></path><path d="M224.108 12.8627C223.966 12.8631 223.827 12.8355 223.697 12.7813C223.566 12.7271 223.448 12.6475 223.348 12.5471L222.252 11.4494C222.213 11.4121 222.162 11.3912 222.108 11.3912C222.054 11.3912 222.003 11.4121 221.964 11.4494L220.863 12.5533C220.764 12.6537 220.645 12.7333 220.515 12.7875C220.385 12.8417 220.245 12.8693 220.104 12.8689H219.888L221.277 14.2627C221.485 14.4716 221.767 14.589 222.062 14.589C222.356 14.589 222.639 14.4716 222.847 14.2627L224.239 12.8649L224.108 12.8627Z" fill="#BFBFBF"></path><path d="M220.104 8.97068C220.245 8.97037 220.385 8.99806 220.515 9.05223C220.646 9.10643 220.764 9.18597 220.863 9.28629L221.964 10.3907C222.002 10.4289 222.054 10.4504 222.108 10.4504C222.162 10.4504 222.214 10.4289 222.252 10.3907L223.348 9.29027C223.448 9.18995 223.566 9.11041 223.697 9.05625C223.827 9.00209 223.967 8.97435 224.108 8.9747H224.24L222.848 7.57733C222.745 7.47381 222.623 7.39165 222.488 7.33561C222.353 7.27956 222.209 7.25073 222.063 7.25073C221.917 7.25073 221.772 7.27956 221.638 7.33561C221.503 7.39165 221.381 7.47381 221.278 7.57733L219.889 8.97068H220.104Z" fill="#BFBFBF"></path><path d="M225.392 10.1308L224.552 9.2874C224.533 9.29505 224.513 9.29912 224.492 9.29939H224.109C223.91 9.30022 223.719 9.38002 223.578 9.52133L222.48 10.6195C222.431 10.6686 222.373 10.7075 222.31 10.734C222.246 10.7605 222.177 10.7741 222.108 10.774C221.969 10.7742 221.835 10.7188 221.736 10.6199L220.635 9.51555C220.495 9.37424 220.304 9.29444 220.105 9.29361H219.634C219.615 9.29326 219.596 9.28937 219.578 9.2821L218.733 10.1299C218.63 10.2334 218.548 10.3563 218.492 10.4914C218.436 10.6267 218.408 10.7716 218.408 10.918C218.408 11.0644 218.436 11.2093 218.492 11.3446C218.548 11.4798 218.63 11.6026 218.733 11.7061L219.578 12.5539C219.596 12.5467 219.615 12.5428 219.634 12.5424H220.105C220.304 12.5414 220.495 12.4617 220.635 12.3205L221.736 11.2161C221.836 11.12 221.969 11.0665 222.108 11.0665C222.247 11.0665 222.38 11.12 222.48 11.2161L223.577 12.3165C223.718 12.4577 223.908 12.5375 224.108 12.5384H224.49C224.511 12.5386 224.531 12.5428 224.55 12.5508L225.39 11.7075C225.599 11.4984 225.715 11.2149 225.715 10.9194C225.715 10.6238 225.599 10.3403 225.39 10.1312" fill="#BFBFBF"></path><path d="M228.657 13.6813C228.587 13.6844 228.518 13.695 228.451 13.7128V13.988C228.502 14.0062 228.556 14.0154 228.611 14.0151C228.749 14.0151 228.814 13.9685 228.814 13.8469C228.814 13.7328 228.76 13.6813 228.657 13.6813ZM228.404 14.1922V13.6485H228.442L228.446 13.6719C228.516 13.6531 228.588 13.6415 228.661 13.6373C228.711 13.6339 228.761 13.6483 228.801 13.6782C228.824 13.6999 228.841 13.7263 228.852 13.7555C228.862 13.7847 228.866 13.8159 228.863 13.8469C228.866 13.8814 228.859 13.916 228.843 13.9469C228.828 13.9779 228.804 14.0039 228.775 14.0222C228.725 14.0468 228.67 14.0589 228.615 14.0577C228.559 14.0574 228.504 14.0489 228.45 14.0324V14.1922H228.404Z" fill="#BFBFBF"></path><path d="M229.208 13.6799C229.071 13.6799 229.01 13.7243 229.01 13.8445C229.01 13.9648 229.071 14.015 229.208 14.015C229.347 14.015 229.407 13.9706 229.407 13.8507C229.407 13.7309 229.346 13.6799 229.208 13.6799ZM229.385 14.015C229.333 14.0479 229.271 14.0634 229.208 14.0594C229.147 14.0631 229.085 14.0476 229.031 14.015C229.007 13.9953 228.987 13.9696 228.975 13.9403C228.963 13.9111 228.958 13.8793 228.961 13.8476C228.958 13.816 228.963 13.7842 228.975 13.7549C228.988 13.7256 229.007 13.6999 229.031 13.6799C229.085 13.647 229.147 13.6315 229.208 13.6355C229.271 13.6316 229.332 13.6471 229.385 13.6799C229.41 13.6997 229.429 13.7253 229.442 13.7544C229.454 13.7835 229.459 13.8153 229.456 13.8468C229.459 13.8785 229.454 13.9105 229.442 13.9399C229.429 13.9692 229.41 13.995 229.385 14.015Z" fill="#BFBFBF"></path><path d="M230.036 14.0466L229.883 13.7164H229.88L229.729 14.0466H229.69L229.526 13.6471H229.577L229.713 13.9813H229.716L229.864 13.6471H229.908L230.06 13.9813H230.063L230.196 13.6471H230.245L230.082 14.0466H230.036Z" fill="#BFBFBF"></path><path d="M230.537 13.6791C230.41 13.6791 230.367 13.7359 230.36 13.818H230.717C230.714 13.727 230.667 13.6791 230.54 13.6791H230.537ZM230.54 14.0577C230.482 14.0639 230.423 14.0482 230.375 14.0133C230.352 13.9923 230.334 13.9664 230.323 13.9375C230.312 13.9086 230.306 13.8774 230.309 13.8464C230.307 13.8142 230.313 13.782 230.326 13.7524C230.339 13.7229 230.358 13.6967 230.383 13.676C230.429 13.647 230.483 13.6331 230.537 13.636C230.593 13.6326 230.648 13.646 230.696 13.6746C230.754 13.7132 230.765 13.7811 230.765 13.8584H230.357C230.357 13.9401 230.386 14.0129 230.54 14.0129C230.609 14.0112 230.677 14.0035 230.745 13.9898V14.0315C230.676 14.0459 230.606 14.0542 230.536 14.0564" fill="#BFBFBF"></path><path d="M230.897 14.0467V13.6472H230.935L230.939 13.6707C231.003 13.6498 231.069 13.6381 231.136 13.6361H231.142V13.6805H231.131C231.067 13.6819 231.004 13.6925 230.944 13.712V14.0458L230.897 14.0467Z" fill="#BFBFBF"></path><path d="M231.412 13.6791C231.284 13.6791 231.241 13.7359 231.235 13.818H231.592C231.588 13.727 231.541 13.6791 231.415 13.6791H231.412ZM231.415 14.0577C231.356 14.0638 231.297 14.048 231.25 14.0133C231.228 13.9921 231.211 13.9662 231.2 13.9375C231.189 13.9089 231.185 13.8782 231.188 13.8478C231.186 13.8156 231.192 13.7834 231.205 13.7538C231.218 13.7242 231.237 13.698 231.262 13.6773C231.308 13.6483 231.362 13.6344 231.416 13.6374C231.472 13.6339 231.527 13.6474 231.575 13.676C231.632 13.7146 231.643 13.7825 231.643 13.8597H231.236C231.236 13.9414 231.265 14.0142 231.419 14.0142C231.488 14.0126 231.556 14.0048 231.624 13.9911V14.0329C231.555 14.0473 231.485 14.0556 231.415 14.0577Z" fill="#BFBFBF"></path><path d="M232.146 13.7069C232.095 13.6888 232.041 13.6798 231.986 13.6802C231.848 13.6802 231.783 13.7268 231.783 13.848C231.783 13.9692 231.837 14.0136 231.94 14.0136C232.01 14.0103 232.079 14 232.146 13.983V13.7069ZM232.155 14.0469L232.151 14.0229C232.081 14.0419 232.009 14.0536 231.936 14.058C231.886 14.0619 231.836 14.0472 231.796 14.0167C231.773 13.9951 231.756 13.9687 231.745 13.9395C231.735 13.9103 231.731 13.879 231.733 13.848C231.731 13.8136 231.738 13.7791 231.753 13.7484C231.769 13.7176 231.792 13.6917 231.822 13.6736C231.871 13.6484 231.927 13.6361 231.983 13.6376C232.038 13.6383 232.093 13.6468 232.146 13.6629V13.4805H232.193V14.0469H232.155Z" fill="#BFBFBF"></path><path d="M232.874 13.6816C232.805 13.6847 232.736 13.6953 232.668 13.7131V13.9874C232.72 14.0063 232.774 14.0157 232.829 14.0154C232.966 14.0154 233.031 13.9688 233.031 13.8471C233.031 13.733 232.978 13.6816 232.874 13.6816ZM232.993 14.0225C232.943 14.047 232.889 14.0592 232.833 14.058C232.773 14.0574 232.713 14.0472 232.656 14.0278V14.0469H232.625V13.4805H232.669V13.6691C232.737 13.6515 232.808 13.6405 232.879 13.6363C232.929 13.6328 232.979 13.6473 233.019 13.6771C233.042 13.6988 233.059 13.7252 233.07 13.7544C233.08 13.7836 233.084 13.8149 233.081 13.8458C233.084 13.8803 233.077 13.915 233.061 13.9459C233.046 13.9768 233.022 14.0028 232.993 14.0211" fill="#BFBFBF"></path><path d="M233.14 14.2017V14.1573C233.162 14.1573 233.184 14.1613 233.198 14.1613C233.225 14.1635 233.252 14.1566 233.275 14.1417C233.297 14.1269 233.314 14.1049 233.323 14.0792L233.337 14.0477L233.13 13.6482H233.184L233.361 13.9918H233.364L233.533 13.6482H233.585L233.364 14.0952C233.323 14.1764 233.279 14.203 233.198 14.203C233.179 14.2039 233.159 14.2035 233.14 14.2017Z" fill="#BFBFBF"></path><path d="M234.226 13.8194H234.072V13.9592H234.227C234.333 13.9592 234.373 13.9473 234.373 13.8887C234.373 13.83 234.318 13.8194 234.226 13.8194ZM234.198 13.5931H234.072V13.7351H234.198C234.303 13.7351 234.345 13.7226 234.345 13.6632C234.345 13.6037 234.292 13.5931 234.198 13.5931ZM234.437 14.0089C234.38 14.0449 234.311 14.0467 234.187 14.0467H233.952V13.5065H234.181C234.289 13.5065 234.355 13.5065 234.41 13.5411C234.428 13.5521 234.443 13.5679 234.453 13.5869C234.463 13.6059 234.467 13.6272 234.465 13.6485C234.467 13.6752 234.459 13.7015 234.443 13.7233C234.428 13.745 234.406 13.7609 234.38 13.7684V13.7715C234.449 13.787 234.494 13.8225 234.494 13.8993C234.495 13.9211 234.491 13.943 234.481 13.9623C234.471 13.9817 234.456 13.9979 234.437 14.0089Z" fill="#BFBFBF"></path><path d="M234.964 13.8796C234.92 13.8755 234.871 13.8733 234.821 13.8733C234.74 13.8733 234.712 13.8897 234.712 13.927C234.712 13.9643 234.735 13.9803 234.797 13.9803C234.854 13.9783 234.909 13.9705 234.964 13.9568V13.8796ZM234.987 14.0469L234.984 14.0229C234.914 14.0429 234.842 14.0547 234.769 14.058C234.727 14.0608 234.685 14.0506 234.649 14.0287C234.634 14.0175 234.623 14.0029 234.615 13.9861C234.607 13.9693 234.604 13.9508 234.605 13.9324C234.604 13.9097 234.609 13.8873 234.622 13.868C234.633 13.8488 234.651 13.8336 234.671 13.8245C234.719 13.8066 234.77 13.7991 234.82 13.8023C234.862 13.8023 234.918 13.8045 234.964 13.8076V13.8023C234.964 13.7402 234.924 13.7197 234.812 13.7197C234.768 13.7197 234.716 13.722 234.666 13.7269V13.6461C234.721 13.6416 234.784 13.6385 234.836 13.6385C234.9 13.6329 234.964 13.6457 235.021 13.6754C235.065 13.7077 235.075 13.7526 235.075 13.8121V14.0478L234.987 14.0469Z" fill="#BFBFBF"></path><path d="M235.593 14.0468V13.8248C235.593 13.7525 235.556 13.7263 235.489 13.7263C235.435 13.7286 235.38 13.7371 235.328 13.7516V14.045H235.218V13.6455H235.307L235.311 13.6703C235.38 13.6502 235.451 13.6382 235.523 13.6344C235.572 13.6306 235.62 13.6451 235.659 13.6752C235.675 13.6914 235.687 13.711 235.695 13.7326C235.703 13.7542 235.706 13.7772 235.703 13.8V14.0437L235.593 14.0468Z" fill="#BFBFBF"></path><path d="M236.015 14.0579C235.962 14.062 235.91 14.047 235.867 14.0157C235.844 13.9943 235.827 13.9679 235.816 13.9387C235.805 13.9095 235.801 13.8781 235.804 13.8471C235.802 13.8142 235.808 13.7813 235.823 13.7515C235.836 13.7217 235.858 13.6961 235.885 13.677C235.938 13.6472 235.999 13.6335 236.059 13.6375C236.104 13.6375 236.15 13.6406 236.199 13.6451V13.7303C236.159 13.7268 236.111 13.7232 236.073 13.7232C235.967 13.7232 235.918 13.7565 235.918 13.8479C235.918 13.9394 235.955 13.9709 236.041 13.9709C236.097 13.9692 236.153 13.9623 236.208 13.9505V14.0326C236.144 14.0473 236.08 14.0557 236.015 14.0579Z" fill="#BFBFBF"></path><path d="M236.536 13.7206C236.431 13.7206 236.385 13.7539 236.385 13.8445C236.385 13.935 236.429 13.9737 236.536 13.9737C236.644 13.9737 236.686 13.9412 236.686 13.8507C236.686 13.7602 236.642 13.7206 236.536 13.7206ZM236.726 14.0153C236.669 14.0482 236.603 14.0629 236.536 14.0575C236.47 14.0627 236.403 14.048 236.345 14.0153C236.319 13.9963 236.299 13.9709 236.286 13.9414C236.273 13.912 236.267 13.8796 236.27 13.8476C236.267 13.8154 236.273 13.7829 236.286 13.7534C236.299 13.7238 236.319 13.6982 236.345 13.6789C236.403 13.6464 236.47 13.6319 236.536 13.6372C236.602 13.6321 236.668 13.6466 236.726 13.6789C236.752 13.6981 236.773 13.7236 236.785 13.753C236.798 13.7824 236.804 13.8147 236.8 13.8467C236.804 13.8788 236.798 13.9112 236.785 13.9407C236.773 13.9702 236.752 13.996 236.726 14.0153Z" fill="#BFBFBF"></path><path d="M237.44 14.0577C237.371 14.062 237.303 14.0421 237.246 14.0013C237.182 13.948 237.163 13.865 237.163 13.7758C237.16 13.7315 237.169 13.6872 237.188 13.6471C237.207 13.607 237.236 13.5724 237.272 13.5463C237.341 13.5078 237.42 13.49 237.5 13.4953C237.559 13.4953 237.62 13.4993 237.687 13.5046V13.6018C237.63 13.5969 237.559 13.5929 237.504 13.5929C237.351 13.5929 237.286 13.6515 237.286 13.7758C237.286 13.9001 237.346 13.9596 237.459 13.9596C237.54 13.9569 237.62 13.946 237.699 13.9272V14.0239C237.614 14.0439 237.527 14.0554 237.44 14.0581" fill="#BFBFBF"></path><path d="M238.025 13.7087C237.933 13.7087 237.897 13.7415 237.892 13.8023H238.157C238.154 13.7375 238.117 13.7087 238.025 13.7087ZM238.008 14.058C237.949 14.0634 237.89 14.0477 237.84 14.0136C237.818 13.9925 237.8 13.9665 237.789 13.9377C237.778 13.9089 237.774 13.8779 237.777 13.8471C237.775 13.8153 237.781 13.7834 237.794 13.7542C237.806 13.7251 237.826 13.6994 237.851 13.6793C237.903 13.6478 237.964 13.6332 238.025 13.6376C238.085 13.6339 238.145 13.6478 238.197 13.6775C238.261 13.722 238.266 13.7921 238.267 13.8742H237.889C237.892 13.935 237.924 13.9741 238.036 13.9741C238.107 13.9725 238.177 13.9657 238.247 13.9537V14.0318C238.169 14.0468 238.088 14.0555 238.008 14.058Z" fill="#BFBFBF"></path><path d="M238.759 14.0468V13.8248C238.759 13.7525 238.723 13.7263 238.657 13.7263C238.602 13.7286 238.548 13.7371 238.495 13.7516V14.045H238.384V13.6455H238.474L238.478 13.6703C238.547 13.6502 238.618 13.6381 238.69 13.6344C238.739 13.6306 238.787 13.6451 238.826 13.6752C238.842 13.6914 238.855 13.711 238.862 13.7326C238.87 13.7542 238.873 13.7772 238.871 13.8V14.0437L238.759 14.0468Z" fill="#BFBFBF"></path><path d="M239.184 14.0582C239.16 14.0606 239.135 14.0566 239.113 14.0467C239.09 14.0367 239.071 14.0211 239.056 14.0014C239.034 13.9651 239.023 13.923 239.026 13.8806V13.7315H238.946V13.6489H239.026L239.038 13.5282H239.137V13.6489H239.293V13.7315H239.137V13.8593C239.135 13.8852 239.139 13.911 239.148 13.9352C239.154 13.9481 239.165 13.9586 239.178 13.9652C239.191 13.9718 239.206 13.9742 239.22 13.9721C239.246 13.9716 239.273 13.9689 239.299 13.9641V14.044C239.261 14.0523 239.223 14.057 239.184 14.0582Z" fill="#BFBFBF"></path><path d="M239.401 14.0467V13.6472H239.49L239.494 13.6721C239.557 13.6506 239.624 13.6385 239.69 13.6361H239.704V13.7311C239.692 13.7311 239.677 13.7311 239.666 13.7311C239.614 13.7313 239.561 13.7381 239.51 13.7515V14.0458L239.401 14.0467Z" fill="#BFBFBF"></path><path d="M240.109 13.8792C240.063 13.8752 240.016 13.873 239.966 13.873C239.885 13.873 239.856 13.8894 239.856 13.9267C239.856 13.964 239.88 13.98 239.942 13.98C239.999 13.9779 240.054 13.97 240.109 13.9564V13.8792ZM240.132 14.0465L240.128 14.0239C240.058 14.0439 239.985 14.0556 239.913 14.059C239.871 14.0617 239.829 14.0515 239.792 14.0297C239.778 14.0185 239.766 14.0038 239.758 13.987C239.75 13.9702 239.747 13.9518 239.748 13.9333C239.747 13.91 239.754 13.887 239.766 13.8674C239.778 13.8479 239.797 13.8327 239.819 13.8242C239.866 13.8067 239.917 13.7994 239.967 13.8029C240.008 13.8029 240.064 13.805 240.111 13.8082V13.8019C240.111 13.7398 240.07 13.7194 239.958 13.7194C239.914 13.7194 239.863 13.7216 239.812 13.7265V13.6457C239.868 13.6412 239.931 13.6381 239.983 13.6381C240.047 13.6325 240.111 13.6453 240.167 13.675C240.211 13.7074 240.221 13.7522 240.221 13.8117V14.0474L240.132 14.0465Z" fill="#BFBFBF"></path><path d="M240.362 13.4805H240.473V14.0469H240.362V13.4805Z" fill="#BFBFBF"></path><path fill-rule="evenodd" clip-rule="evenodd" d="M186.013 7.96794C186.423 8.00264 186.833 7.75978 187.089 7.45187C187.341 7.13529 187.508 6.71031 187.465 6.27661C187.102 6.29398 186.654 6.51947 186.398 6.83604C186.163 7.10926 185.962 7.55162 186.013 7.96794ZM190.888 13.5537V6.79269H193.386C194.675 6.79269 195.576 7.69472 195.576 9.01309C195.576 10.3315 194.658 11.2422 193.352 11.2422H191.922V13.5537H190.888ZM187.461 8.05032C187.1 8.02924 186.77 8.16066 186.504 8.2668C186.333 8.33509 186.188 8.39293 186.077 8.39293C185.953 8.39293 185.803 8.33203 185.633 8.26361C185.411 8.17396 185.157 8.07146 184.891 8.07636C184.28 8.08502 183.712 8.43633 183.401 8.99576C182.76 10.1146 183.234 11.7713 183.853 12.682C184.157 13.133 184.519 13.6274 184.997 13.6101C185.208 13.602 185.359 13.5368 185.516 13.4693C185.696 13.3916 185.883 13.3108 186.175 13.3108C186.458 13.3108 186.637 13.3894 186.809 13.465C186.972 13.5367 187.129 13.6056 187.362 13.6014C187.858 13.5927 188.169 13.1504 188.472 12.6994C188.799 12.2153 188.943 11.7429 188.965 11.6712L188.968 11.6628C188.968 11.6628 188.963 11.6604 188.956 11.6572C188.846 11.6063 188.011 11.2176 188.003 10.1753C187.995 9.30052 188.665 8.85729 188.771 8.78751C188.778 8.78327 188.782 8.78042 188.784 8.77894C188.357 8.13708 187.691 8.06769 187.461 8.05032ZM197.463 13.6057C198.112 13.6057 198.714 13.2718 198.987 12.7427H199.008V13.5537H199.964V10.1884C199.964 9.21259 199.196 8.58377 198.013 8.58377C196.917 8.58377 196.105 9.22129 196.075 10.0973H197.006C197.083 9.68097 197.463 9.40776 197.984 9.40776C198.615 9.40776 198.97 9.70701 198.97 10.2578V10.6307L197.68 10.7088C196.481 10.7825 195.832 11.2812 195.832 12.1486C195.832 13.0246 196.502 13.6057 197.463 13.6057ZM197.74 12.8035C197.189 12.8035 196.839 12.5346 196.839 12.1226C196.839 11.6976 197.177 11.4504 197.821 11.4113L198.97 11.3376V11.7192C198.97 12.3524 198.44 12.8035 197.74 12.8035ZM203.136 13.8182C202.722 15.0022 202.248 15.3925 201.241 15.3925C201.164 15.3925 200.908 15.3838 200.848 15.3665V14.5555C200.912 14.5642 201.07 14.5728 201.151 14.5728C201.608 14.5728 201.864 14.3777 202.022 13.8703L202.116 13.571L200.366 8.64882H201.446L202.662 12.643H202.684L203.9 8.64882H204.951L203.136 13.8182ZM191.922 7.6774H193.113C194.009 7.6774 194.522 8.16311 194.522 9.01746C194.522 9.87177 194.009 10.3619 193.108 10.3619H191.922V7.6774Z" fill="#BFBFBF"></path><path fill-rule="evenodd" clip-rule="evenodd" d="M157.402 13.9399V11.2966H158.761C159.318 11.2966 159.789 11.1092 160.172 10.7398L160.264 10.6461C160.964 9.88126 160.918 8.68968 160.172 7.98198C159.799 7.60735 159.288 7.40444 158.761 7.41481H156.579V13.9399H157.402ZM157.402 10.4952V8.21613H158.782C159.078 8.21613 159.36 8.33063 159.569 8.53874C160.014 8.97585 160.024 9.70433 159.595 10.157C159.385 10.3808 159.089 10.5057 158.782 10.4952H157.402ZM164.102 9.82403C163.749 9.49621 163.269 9.3297 162.66 9.3297C161.879 9.3297 161.291 9.62108 160.903 10.1987L161.628 10.6618C161.894 10.2663 162.257 10.0686 162.717 10.0686C163.008 10.0686 163.289 10.1778 163.509 10.3756C163.724 10.5629 163.846 10.8335 163.846 11.1196V11.3122C163.529 11.1353 163.131 11.0416 162.64 11.0416C162.068 11.0416 161.608 11.1769 161.265 11.4527C160.923 11.7285 160.749 12.0927 160.749 12.5558C160.739 12.9773 160.918 13.3779 161.235 13.6485C161.557 13.9399 161.966 14.0856 162.446 14.0856C163.013 14.0856 163.463 13.8307 163.805 13.3207H163.841V13.9399H164.628V11.1873C164.628 10.6097 164.454 10.1518 164.102 9.82403ZM161.869 13.1178C161.7 12.9929 161.598 12.79 161.598 12.5714C161.598 12.3268 161.71 12.1239 161.93 11.9626C162.155 11.8013 162.436 11.7181 162.768 11.7181C163.228 11.7129 163.586 11.8169 163.841 12.0251C163.841 12.3789 163.704 12.6859 163.433 12.9461C163.188 13.1958 162.855 13.3363 162.507 13.3363C162.278 13.3415 162.053 13.2635 161.869 13.1178ZM166.397 15.9016L169.146 9.47539H168.252L166.979 12.6807H166.964L165.661 9.47539H164.766L166.57 13.6537L165.548 15.9016H166.397Z" fill="#BFBFBF"></path><path d="M154.561 10.7243C154.561 10.4693 154.54 10.2143 154.5 9.9646H151.03V11.4059H153.018C152.936 11.869 152.67 12.2853 152.282 12.5455V13.4821H153.467C154.162 12.8317 154.561 11.869 154.561 10.7243Z" fill="#BFBFBF"></path><path d="M151.03 14.3876C152.021 14.3876 152.859 14.0545 153.468 13.4821L152.282 12.5455C151.95 12.7745 151.525 12.9046 151.03 12.9046C150.069 12.9046 149.256 12.2437 148.965 11.3591H147.744V12.327C148.367 13.5914 149.64 14.3876 151.03 14.3876Z" fill="#BFBFBF"></path><path d="M148.965 11.3588C148.812 10.8956 148.812 10.3909 148.965 9.92264V8.95996H147.744C147.217 10.0163 147.217 11.2651 147.744 12.3214L148.965 11.3588Z" fill="#BFBFBF"></path><path d="M151.03 8.37759C151.556 8.36722 152.062 8.57013 152.44 8.93955L153.493 7.86768C152.824 7.23287 151.944 6.88422 151.03 6.89464C149.64 6.89464 148.367 7.69596 147.744 8.96038L148.965 9.92822C149.256 9.03843 150.069 8.37759 151.03 8.37759Z" fill="#BFBFBF"></path><path fill-rule="evenodd" clip-rule="evenodd" d="M115.874 13.4873H114.518C114.425 13.4873 114.346 13.555 114.332 13.6469L113.783 17.1373C113.772 17.2062 113.825 17.2683 113.895 17.2683H114.542C114.635 17.2683 114.714 17.2006 114.728 17.1085L114.876 16.1671C114.89 16.0749 114.97 16.0073 115.062 16.0073H115.492C116.385 16.0073 116.901 15.5734 117.036 14.7136C117.096 14.3374 117.038 14.0419 116.863 13.8348C116.67 13.6076 116.328 13.4873 115.874 13.4873ZM116.03 14.7621C115.956 15.2506 115.584 15.2506 115.225 15.2506H115.02L115.164 14.3383C115.172 14.2832 115.22 14.2426 115.275 14.2426H115.369C115.614 14.2426 115.845 14.2426 115.965 14.3827C116.036 14.4664 116.057 14.5905 116.03 14.7621ZM119.928 14.7465H119.279C119.223 14.7465 119.176 14.7871 119.167 14.8422L119.138 15.0245L119.093 14.9585C118.953 14.7536 118.639 14.6852 118.326 14.6852C117.608 14.6852 116.995 15.2307 116.876 15.9961C116.814 16.3777 116.902 16.7427 117.118 16.9973C117.316 17.2314 117.599 17.3289 117.935 17.3289C118.514 17.3289 118.835 16.9557 118.835 16.9557L118.806 17.1369C118.795 17.2061 118.848 17.2682 118.917 17.2682H119.502C119.595 17.2682 119.674 17.2005 119.688 17.1084L120.039 14.8775C120.051 14.8088 119.997 14.7465 119.928 14.7465ZM119.023 16.0151C118.96 16.3875 118.666 16.6375 118.29 16.6375C118.102 16.6375 117.951 16.5768 117.854 16.4617C117.758 16.3475 117.721 16.1849 117.752 16.0038C117.811 15.6346 118.11 15.3765 118.48 15.3765C118.664 15.3765 118.814 15.4379 118.913 15.554C119.012 15.6712 119.051 15.8348 119.023 16.0151ZM122.735 14.7464H123.387C123.479 14.7464 123.532 14.8492 123.48 14.9245L121.309 18.0692C121.274 18.1201 121.216 18.1504 121.154 18.1504H120.503C120.411 18.1504 120.357 18.0467 120.41 17.9712L121.086 17.0137L120.368 14.8964C120.343 14.8228 120.397 14.7464 120.475 14.7464H121.116C121.199 14.7464 121.273 14.8012 121.297 14.8813L121.678 16.1601L122.579 14.8294C122.614 14.7774 122.672 14.7464 122.735 14.7464Z" fill="#BFBFBF"></path><path fill-rule="evenodd" clip-rule="evenodd" d="M129.811 17.1375L130.368 13.5833C130.376 13.5281 130.424 13.4875 130.48 13.4873H131.106C131.175 13.4873 131.229 13.5496 131.218 13.6185L130.668 17.1087C130.654 17.2008 130.575 17.2685 130.482 17.2685H129.922C129.854 17.2685 129.8 17.2064 129.811 17.1375ZM125.548 13.4875H124.192C124.099 13.4875 124.02 13.5552 124.006 13.6471L123.457 17.1375C123.446 17.2064 123.499 17.2685 123.569 17.2685H124.265C124.329 17.2685 124.385 17.2211 124.395 17.1567L124.55 16.1673C124.565 16.0751 124.644 16.0075 124.736 16.0075H125.165C126.059 16.0075 126.575 15.5736 126.71 14.7138C126.771 14.3376 126.712 14.0421 126.536 13.835C126.344 13.6078 126.002 13.4875 125.548 13.4875ZM125.705 14.7623C125.631 15.2507 125.259 15.2507 124.899 15.2507H124.695L124.838 14.3385C124.847 14.2835 124.894 14.2429 124.95 14.2429H125.044C125.288 14.2429 125.52 14.2429 125.639 14.383C125.71 14.4666 125.732 14.5907 125.705 14.7623ZM129.602 14.7466H128.953C128.898 14.7466 128.85 14.7873 128.842 14.8425L128.813 15.0247L128.767 14.9587C128.627 14.7539 128.313 14.6854 128 14.6854C127.283 14.6854 126.67 15.231 126.55 15.9963C126.489 16.378 126.577 16.743 126.792 16.9975C126.991 17.2316 127.273 17.3291 127.61 17.3291C128.189 17.3291 128.509 16.9559 128.509 16.9559L128.48 17.1371C128.469 17.2064 128.523 17.2684 128.592 17.2684H129.177C129.27 17.2684 129.349 17.2007 129.363 17.1086L129.715 14.8776C129.725 14.809 129.672 14.7466 129.602 14.7466ZM128.697 16.0153C128.635 16.3877 128.34 16.6377 127.964 16.6377C127.776 16.6377 127.625 16.577 127.528 16.462C127.432 16.3477 127.396 16.1851 127.426 16.004C127.485 15.6347 127.784 15.3766 128.154 15.3766C128.338 15.3766 128.488 15.4381 128.587 15.5541C128.687 15.6714 128.726 15.835 128.697 16.0153Z" fill="#BFBFBF"></path><path d="M120.893 12.2389L121.06 11.176L120.689 11.1674H118.915L120.147 3.32403C120.151 3.30035 120.164 3.27828 120.182 3.2626C120.2 3.24692 120.224 3.23828 120.248 3.23828H123.238C124.231 3.23828 124.916 3.44562 125.274 3.85485C125.442 4.04684 125.549 4.24745 125.6 4.46823C125.654 4.69989 125.656 4.97665 125.602 5.31422L125.598 5.33885V5.55515L125.766 5.65053C125.908 5.72569 126.02 5.81179 126.106 5.91032C126.249 6.07447 126.342 6.28307 126.381 6.53043C126.422 6.78479 126.408 7.0875 126.342 7.43015C126.265 7.82438 126.142 8.16769 125.975 8.4486C125.821 8.70747 125.626 8.92211 125.393 9.08858C125.171 9.2466 124.908 9.36661 124.609 9.44344C124.32 9.51886 123.991 9.55701 123.63 9.55701H123.397C123.231 9.55701 123.069 9.61717 122.942 9.72501C122.815 9.83509 122.731 9.98541 122.705 10.1499L122.687 10.2456L122.393 12.1189L122.379 12.1877C122.376 12.2096 122.37 12.2204 122.361 12.2278C122.353 12.2344 122.342 12.2389 122.33 12.2389H120.893Z" fill="#BFBFBF"></path><path d="M125.925 5.36365C125.916 5.42092 125.906 5.47945 125.894 5.53961C125.5 7.57175 124.15 8.27377 122.427 8.27377H121.55C121.339 8.27377 121.162 8.42733 121.129 8.63593L120.679 11.4952L120.552 12.3056C120.531 12.4426 120.636 12.5661 120.774 12.5661H122.33C122.514 12.5661 122.671 12.4317 122.7 12.2494L122.715 12.17L123.008 10.3039L123.027 10.2016C123.056 10.0186 123.213 9.8842 123.397 9.8842H123.629C125.137 9.8842 126.317 9.26982 126.663 7.49209C126.807 6.74943 126.732 6.12932 126.351 5.69322C126.235 5.5617 126.092 5.45259 125.925 5.36365Z" fill="#F4F4F4"></path><path d="M125.512 5.1987C125.452 5.18111 125.39 5.1651 125.326 5.1507C125.262 5.13666 125.196 5.12415 125.129 5.1133C124.892 5.07488 124.633 5.05664 124.355 5.05664H122.011C121.953 5.05664 121.899 5.06977 121.849 5.09343C121.741 5.14558 121.661 5.24831 121.642 5.37405L121.143 8.54365L121.128 8.63613C121.162 8.42749 121.339 8.27393 121.55 8.27393H122.427C124.15 8.27393 125.5 7.57161 125.894 5.53982C125.906 5.47966 125.916 5.42108 125.925 5.36381C125.825 5.3107 125.717 5.26528 125.6 5.22657C125.572 5.21694 125.542 5.20767 125.512 5.1987Z" fill="#BFBFBF"></path><path d="M121.641 5.37421C121.661 5.24843 121.741 5.14575 121.849 5.0939C121.899 5.07024 121.954 5.05711 122.011 5.05711H124.355C124.633 5.05711 124.892 5.07536 125.129 5.11372C125.196 5.12462 125.262 5.13709 125.326 5.15117C125.39 5.16557 125.452 5.18158 125.512 5.19917C125.542 5.20814 125.572 5.21741 125.601 5.22669C125.717 5.2654 125.825 5.31117 125.925 5.36397C126.042 4.613 125.924 4.10169 125.52 3.63869C125.074 3.12898 124.268 2.91077 123.238 2.91077H120.248C120.037 2.91077 119.858 3.06435 119.825 3.27329L118.579 11.1972C118.555 11.354 118.675 11.4955 118.833 11.4955H120.679L121.143 8.54377L121.641 5.37421Z" fill="#BFBFBF"></path><path fill-rule="evenodd" clip-rule="evenodd" d="M51.2233 15.1637C50.1844 16.0634 48.8369 16.6066 47.3643 16.6066C44.0782 16.6066 41.4146 13.9023 41.4146 10.5665C41.4146 7.2306 44.0782 4.52637 47.3643 4.52637C48.8369 4.52637 50.1844 5.06952 51.2233 5.96929C52.2621 5.06952 53.6096 4.52637 55.0822 4.52637C58.3684 4.52637 61.032 7.2306 61.032 10.5665C61.032 13.9023 58.3684 16.6066 55.0822 16.6066C53.6096 16.6066 52.2621 16.0634 51.2233 15.1637Z" fill="#BFBFBF"></path><path fill-rule="evenodd" clip-rule="evenodd" d="M51.2231 15.1637C52.5022 14.0558 53.3135 12.4073 53.3135 10.5665C53.3135 8.72562 52.5022 7.07712 51.2231 5.96929C52.262 5.06952 53.6095 4.52637 55.0821 4.52637C58.3683 4.52637 61.0319 7.2306 61.0319 10.5665C61.0319 13.9023 58.3683 16.6066 55.0821 16.6066C53.6095 16.6066 52.262 16.0634 51.2231 15.1637Z" fill="#F4F4F4"></path><path fill-rule="evenodd" clip-rule="evenodd" d="M51.2232 5.96948C52.5022 7.07736 53.3135 8.72586 53.3135 10.5667C53.3135 12.4075 52.5022 14.056 51.2232 15.1639C49.9441 14.056 49.1328 12.4075 49.1328 10.5667C49.1328 8.72586 49.9441 7.07736 51.2232 5.96948Z" fill="#BFBFBF"></path><path fill-rule="evenodd" clip-rule="evenodd" d="M76.9653 7.58936L74.1104 13.9303H77.5281L77.9519 12.9192H78.9205L79.3443 13.9303H83.1065V13.1586L83.4417 13.9303H85.3882L85.7234 13.1423V13.9303H93.5477L94.499 12.9455L95.39 13.9303L99.409 13.9384L96.5449 10.7775L99.409 7.58936H95.4524L94.5264 8.55592L93.6633 7.58936H85.1515L84.4204 9.226L83.6723 7.58936H80.2615V8.33472L79.8822 7.58936H76.9653ZM88.6499 8.48977H93.1428L94.5173 9.97955L95.9358 8.48977H97.3099L95.2218 10.7766L97.3099 13.0371H95.8735L94.499 11.53L93.0734 13.0371H88.6499V8.48977ZM89.7594 10.2624V9.43184V9.43106H92.563L93.7862 10.7594L92.5089 12.095H89.7594V11.1882H92.2107V10.2624H89.7594ZM77.6267 8.48977H79.2928L81.1866 12.7896V8.48977H83.0119L84.4745 11.5727L85.8228 8.48977H87.639V13.0398H86.5339L86.5247 9.47441L84.9139 13.0398H83.9252L82.3052 9.47441V13.0398H80.0322L79.6011 12.0197H77.2727L76.8424 13.0389H75.6248L77.6267 8.48977ZM77.6703 11.0768L78.4375 9.2596L79.2035 11.0768H77.6703Z" fill="#BFBFBF"></path><path fill-rule="evenodd" clip-rule="evenodd" d="M9.26386 14.3778H7.4152L6.0289 9.07016C5.96312 8.82604 5.8234 8.61017 5.61789 8.50846C5.10501 8.25282 4.53985 8.04934 3.92334 7.94675V7.74239H6.9014C7.31245 7.74239 7.6207 8.04934 7.67206 8.40586L8.39136 12.2344L10.2392 7.74239H12.0364L9.26386 14.3778ZM13.064 14.3778H11.3181L12.7557 7.74239H14.5016L13.064 14.3778ZM16.7604 9.58059C16.8118 9.22324 17.1201 9.01889 17.4797 9.01889C18.0449 8.96757 18.6605 9.07021 19.1743 9.32496L19.4825 7.89631C18.9687 7.69195 18.4036 7.58936 17.8907 7.58936C16.1962 7.58936 14.9631 8.50846 14.9631 9.78407C14.9631 10.7545 15.8365 11.264 16.4531 11.571C17.1201 11.877 17.377 12.0814 17.3256 12.3875C17.3256 12.8466 16.8118 13.0509 16.2989 13.0509C15.6824 13.0509 15.0659 12.8979 14.5016 12.6422L14.1934 14.0717C14.8099 14.3265 15.4769 14.4291 16.0934 14.4291C17.9935 14.4795 19.1743 13.5613 19.1743 12.1831C19.1743 10.4475 16.7604 10.3458 16.7604 9.58059ZM25.2846 14.3778L23.8983 7.74239H22.4092C22.1009 7.74239 21.7927 7.94675 21.6899 8.25282L19.1229 14.3778H20.9202L21.2789 13.4083H23.4872L23.6927 14.3778H25.2846ZM22.6661 9.52932L23.179 12.0301H21.7413L22.6661 9.52932Z" fill="#BFBFBF"></path></svg>