<svg xmlns="http://www.w3.org/2000/svg" width="47" height="37" viewBox="0 0 47 37" fill="none"><path d="M36.125 18.478V35.7262H30.4803L30.5373 28.1025L21.323 36.4704C21.065 36.4704 19.6842 36.5957 19.43 36.5957C15.5304 36.5691 12.8901 36.2084 10.872 35.4453C8.72494 34.629 6.84339 33.4558 5.22738 31.9144C3.61137 30.3767 2.35572 28.4898 1.45667 26.2611C0.557624 24.0325 0 21.5267 0 18.6982C0 15.8696 0.561436 13.3069 1.47566 11.0706C2.38988 8.84199 3.6607 6.95504 5.28809 5.41739C6.91548 3.87973 8.82737 2.69897 11.0162 1.88649C13.2088 1.0702 15.5949 0.660156 18.1782 0.660156C21.5506 0.660156 24.4715 1.23726 26.9411 2.39145C29.4144 3.54564 31.4135 5.14024 32.9461 7.17146C34.4748 9.20268 35.6015 11.5452 35.9657 14.1611L28.5874 14.1459C28.3067 12.7298 27.696 11.5148 26.7552 10.4973C25.8144 9.48363 24.6195 8.69772 23.1704 8.14341C21.7251 7.58909 20.0598 7.31193 18.1782 7.31193C15.959 7.31193 14.0433 7.75235 12.4273 8.62938C10.8151 9.50641 9.56328 10.7935 8.67941 12.483C7.79174 14.1763 7.3517 16.2379 7.3517 18.6716C7.3517 21.1053 7.81452 23.182 8.74012 24.9057C9.66951 26.6294 10.9896 27.9469 12.7005 28.8505C14.4113 29.7579 17.1388 30.2135 19.468 30.2135L26.7628 24.2793H19.1114V18.4893H36.125V18.478Z" fill="#F5F5F5"></path><path d="M42.0276 8.24524C41.451 8.24524 40.9162 8.15033 40.423 7.96429C39.9299 7.77446 39.505 7.50869 39.1446 7.16319C38.7842 6.81769 38.5073 6.41146 38.3062 5.94826C38.1052 5.48507 38.0066 4.97631 38.0066 4.42579C38.0066 3.87527 38.1052 3.36652 38.3062 2.90332C38.5073 2.44013 38.788 2.03768 39.1446 1.69218C39.505 1.35048 39.9299 1.08092 40.423 0.89109C40.9162 0.69746 41.451 0.602539 42.0276 0.602539C42.6042 0.602539 43.1391 0.69746 43.6323 0.89109C44.1254 1.08472 44.5503 1.35048 44.9106 1.69218C45.271 2.03388 45.5479 2.44013 45.749 2.90332C45.95 3.36652 46.0487 3.87527 46.0487 4.42579C46.0487 4.97631 45.95 5.48507 45.749 5.94826C45.5479 6.41146 45.2672 6.81769 44.9106 7.16319C44.5503 7.50869 44.1254 7.77826 43.6323 7.96429C43.1391 8.15413 42.6042 8.24524 42.0276 8.24524ZM42.0276 7.53147C42.6536 7.53147 43.2074 7.39858 43.693 7.12902C44.1785 6.86325 44.5579 6.49119 44.8386 6.0204C45.1193 5.54961 45.2597 5.01427 45.2597 4.42199C45.2597 3.82971 45.1193 3.29818 44.8386 2.8274C44.5579 2.3604 44.1785 1.99213 43.693 1.72256C43.2074 1.4568 42.6536 1.32012 42.0276 1.32012C41.4017 1.32012 40.8555 1.453 40.3699 1.72256C39.8805 1.99213 39.4974 2.35661 39.2167 2.8274C38.936 3.29439 38.7956 3.82591 38.7956 4.42199C38.7956 5.01807 38.936 5.54961 39.2167 6.0204C39.4974 6.49119 39.8805 6.86325 40.3699 7.12902C40.8593 7.39858 41.4093 7.53147 42.0276 7.53147ZM40.2371 2.18955H41.1627V6.61647H40.2371V2.18955ZM42.4146 4.93454H40.9237V4.22077H42.3387C42.5625 4.22077 42.7408 4.16382 42.8698 4.04612C42.9987 3.92843 43.0632 3.76896 43.0632 3.56774C43.0632 3.36652 42.9987 3.20706 42.8698 3.08937C42.7408 2.97167 42.5625 2.91471 42.3387 2.91471H40.9237V2.18576H42.4146C42.8812 2.18576 43.2643 2.31484 43.5602 2.56921C43.8561 2.82359 44.004 3.1577 44.004 3.56774C44.004 3.97778 43.8561 4.3081 43.5602 4.55868C43.2643 4.80926 42.8812 4.93454 42.4146 4.93454ZM41.599 4.54729H42.5891L44.0799 6.61647H42.9798L41.6028 4.54729H41.599Z" fill="#F5F5F5"></path></svg>