<svg xmlns="http://www.w3.org/2000/svg" width="217" height="44" viewBox="0 0 217 44" fill="none"><path d="M28.8977 34.5866L27.001 41.2346H0.416504V21.5906V7H2.6167H7.93892V21.8184L8.01479 34.5866H28.8977Z" fill="#F5F5F5"></path><path d="M65.5069 13.4392H43.9829L46.4979 21.1502H63.6102V27.0844H46.4979L43.9791 34.7992H65.5069V41.2346H35L38.8276 24.1154L35 7H65.5069V13.4392Z" fill="#F5F5F5"></path><path d="M107.969 24.7457V41.9218H102.348L102.404 34.3323L93.2281 42.6622C92.974 42.6622 91.5969 42.7874 91.3428 42.7836C87.4583 42.7571 84.8294 42.4002 82.8227 41.637C80.6832 40.8246 78.8092 39.6552 77.2046 38.1213C75.5962 36.5913 74.3444 34.7119 73.4491 32.4909C72.5538 30.2698 72 27.7792 72 24.9583C72 22.1373 72.5614 19.586 73.4719 17.3649C74.3823 15.1439 75.6455 13.2645 77.2691 11.7345C78.8927 10.2044 80.7932 9.02742 82.9744 8.21873C85.1557 7.40624 87.5342 7 90.1061 7C93.4633 7 96.3729 7.5771 98.8311 8.72369C101.293 9.87408 103.285 11.4611 104.81 13.4809C106.334 15.5045 107.454 17.8357 107.818 20.4402L100.47 20.425C100.189 19.0165 99.5821 17.8053 98.6452 16.7916C97.7082 15.7817 96.5208 14.9996 95.0755 14.4491C93.634 13.8948 91.9801 13.6214 90.1061 13.6214C87.8984 13.6214 85.9864 14.0618 84.3818 14.9313C82.7734 15.8045 81.5292 17.0878 80.6491 18.7697C79.7652 20.4554 79.3251 22.5094 79.3251 24.9317C79.3251 27.354 79.788 29.4231 80.7098 31.1392C81.6354 32.8553 82.9479 34.1652 84.655 35.0688C86.362 35.9724 89.0743 36.4242 91.3921 36.4242L98.6566 30.5128H91.0393V24.7457H107.981H107.969Z" fill="#F5F5F5"></path><path d="M114 7H121.519V41.1055H114V7Z" fill="#F5F5F5"></path><path d="M147.06 8.76111H137.42L121.901 42.9843H129.906L132.857 36.473H151.691L154.578 42.9464H162.582L147.06 8.75732V8.76111ZM135.615 29.9997L142.242 14.7902L148.896 29.9617L135.615 29.9997Z" fill="#F5F5F5"></path><path d="M183.097 43.9334C179.236 43.9334 175.852 43.1817 172.95 41.682C170.048 40.1823 167.783 38.0903 166.164 35.4061C164.544 32.7256 163.732 29.5896 163.732 26.0055C163.732 22.4215 164.544 19.2854 166.164 16.605C167.783 13.9245 170.048 11.8325 172.95 10.3291C175.852 8.82938 179.236 8.07764 183.097 8.07764C186.959 8.07764 189.789 8.82938 192.691 10.3291C195.593 11.8325 197.858 13.9245 199.478 16.605C201.097 19.2892 201.909 22.4215 201.909 26.0055C201.909 29.5896 201.097 32.7256 199.478 35.4061C197.858 38.0903 195.593 40.1785 192.691 41.682C189.789 43.1855 186.959 43.9334 183.097 43.9334ZM183.097 36.9893C185.514 36.9893 187.035 36.5451 188.788 35.6567C190.54 34.7682 191.898 33.4964 192.854 31.841C193.81 30.1857 194.292 28.238 194.292 26.0017C194.292 23.7655 193.814 21.8178 192.854 20.1624C191.894 18.5071 190.54 16.9543 188.788 16.062C187.035 15.1736 185.514 14.7294 183.097 14.7294C180.681 14.7294 178.633 15.1736 176.861 16.062C175.093 16.9505 173.728 18.5071 172.772 20.1624C171.812 21.8178 171.334 23.7655 171.334 26.0017C171.334 28.238 171.812 30.1857 172.772 31.841C173.728 33.4964 175.093 34.7682 176.861 35.6567C178.629 36.5451 180.708 36.9893 183.097 36.9893Z" fill="#F5F5F5"></path><path d="M211.222 19.4642C210.418 19.4642 209.667 19.3313 208.98 19.0693C208.29 18.8073 207.694 18.4315 207.193 17.9455C206.693 17.4595 206.298 16.8938 206.021 16.2446C205.74 15.5953 205.6 14.8854 205.6 14.1146C205.6 13.3439 205.74 12.634 206.021 11.9847C206.302 11.3355 206.693 10.7698 207.193 10.2914C207.694 9.81301 208.29 9.43715 208.98 9.16758C209.67 8.89802 210.418 8.76514 211.222 8.76514C212.026 8.76514 212.773 8.89802 213.464 9.16758C214.154 9.43715 214.75 9.80922 215.251 10.2914C215.751 10.7698 216.146 11.3355 216.423 11.9847C216.703 12.634 216.844 13.3439 216.844 14.1146C216.844 14.8854 216.703 15.5991 216.423 16.2446C216.142 16.8938 215.751 17.4633 215.251 17.9455C214.75 18.4315 214.154 18.8035 213.464 19.0693C212.773 19.3313 212.026 19.4642 211.222 19.4642ZM211.222 18.4656C212.098 18.4656 212.876 18.2796 213.551 17.9037C214.23 17.5278 214.761 17.0115 215.156 16.3509C215.546 15.6903 215.744 14.9461 215.744 14.1146C215.744 13.2832 215.546 12.5428 215.156 11.886C214.765 11.233 214.23 10.7166 213.551 10.3408C212.872 9.96488 212.098 9.77884 211.222 9.77884C210.346 9.77884 209.583 9.96488 208.9 10.3408C208.218 10.7166 207.679 11.2292 207.288 11.886C206.897 12.5428 206.7 13.2832 206.7 14.1146C206.7 14.9461 206.897 15.6903 207.288 16.3509C207.679 17.0115 208.218 17.5278 208.9 17.9037C209.583 18.2796 210.357 18.4656 211.222 18.4656ZM208.718 10.99H210.016V17.1824H208.718V10.99ZM211.768 14.8322H209.682V13.8337H211.662C211.977 13.8337 212.227 13.7502 212.406 13.5869C212.588 13.4236 212.679 13.1997 212.679 12.9187C212.679 12.6377 212.588 12.4175 212.406 12.2505C212.223 12.0872 211.977 12.0037 211.662 12.0037H209.682V10.9862H211.768C212.421 10.9862 212.956 11.1646 213.373 11.5215C213.786 11.8784 213.995 12.3416 213.995 12.9149C213.995 13.4882 213.786 13.9514 213.373 14.3007C212.959 14.65 212.424 14.8284 211.768 14.8284V14.8322ZM210.63 14.2893H212.015L214.101 17.1862H212.561L210.634 14.2893H210.63Z" fill="#F5F5F5"></path><path d="M128.004 7.70725C128.319 5.33433 129.142 3.45497 130.485 2.07298C131.824 0.690991 133.747 0 136.255 0C137.229 0 138.159 0.129086 139.047 0.391057C139.934 0.653027 140.795 0.937778 141.63 1.24531C142.464 1.55664 143.246 1.83759 143.978 2.09956C144.71 2.36153 145.389 2.49062 146.015 2.49062C146.781 2.49062 147.407 2.29698 147.893 1.90593C148.378 1.51487 148.674 0.945367 148.78 0.197423H154.626C154.311 2.53997 153.477 4.41174 152.123 5.80892C150.764 7.20609 148.834 7.90468 146.326 7.90468C145.385 7.90468 144.464 7.77559 143.557 7.51362C142.65 7.25165 141.789 6.95931 140.974 6.63659C140.154 6.31387 139.373 6.02153 138.625 5.75956C137.878 5.50138 137.207 5.3685 136.615 5.3685C135.849 5.3685 135.223 5.57352 134.733 5.97976C134.244 6.386 133.952 6.9631 133.846 7.71104H128L128.004 7.70725Z" fill="#F5F5F5"></path></svg>