<svg xmlns="http://www.w3.org/2000/svg" width="59" height="28" viewBox="0 0 59 28" fill="none"><path d="M0.94469 6.00015H0.204834L2.34473 0.172363H3.0732L5.21309 6.00015H4.47324L2.73173 1.09434H2.6862L0.94469 6.00015ZM1.21787 3.72367H4.20006V4.34971H1.21787V3.72367Z" fill="white"></path><path d="M8.28349 6.00015V1.62931H8.93229V2.31226H8.9892C9.08026 2.07892 9.22729 1.89775 9.43027 1.76875C9.63326 1.63785 9.87703 1.5724 10.1616 1.5724C10.4499 1.5724 10.6899 1.63785 10.8815 1.76875C11.075 1.89775 11.2258 2.07892 11.334 2.31226H11.3795C11.4914 2.0865 11.6593 1.90723 11.8832 1.77444C12.107 1.63975 12.3755 1.5724 12.6885 1.5724C13.0793 1.5724 13.3989 1.69476 13.6475 1.93948C13.896 2.18231 14.0202 2.56077 14.0202 3.07488V6.00015H13.3487V3.07488C13.3487 2.75237 13.2605 2.52188 13.084 2.3834C12.9076 2.24491 12.6999 2.17567 12.4608 2.17567C12.1535 2.17567 11.9154 2.26862 11.7466 2.45454C11.5778 2.63855 11.4933 2.87189 11.4933 3.15455V6.00015H10.8104V3.00658C10.8104 2.75807 10.7298 2.55793 10.5685 2.40616C10.4073 2.2525 10.1995 2.17567 9.94533 2.17567C9.7708 2.17567 9.60765 2.22214 9.45588 2.3151C9.30601 2.40806 9.1846 2.53706 9.09165 2.7021C9.00059 2.86525 8.95506 3.05401 8.95506 3.26838V6.00015H8.28349Z" fill="white"></path><path d="M17.0807 6.09121C16.6595 6.09121 16.2962 5.99826 15.9908 5.81234C15.6873 5.62453 15.453 5.36274 15.2879 5.02696C15.1248 4.68928 15.0432 4.29659 15.0432 3.84888C15.0432 3.40117 15.1248 3.00658 15.2879 2.66511C15.453 2.32174 15.6825 2.05425 15.9766 1.86265C16.2725 1.66915 16.6178 1.5724 17.0124 1.5724C17.24 1.5724 17.4648 1.61034 17.6868 1.68622C17.9087 1.76211 18.1108 1.88542 18.2929 2.05615C18.475 2.22499 18.6201 2.44884 18.7283 2.72771C18.8364 3.00658 18.8905 3.34995 18.8905 3.75782V4.04238H15.5213V3.46188H18.2075C18.2075 3.21526 18.1582 2.9952 18.0596 2.8017C17.9628 2.6082 17.8243 2.45548 17.6441 2.34356C17.4658 2.23163 17.2552 2.17567 17.0124 2.17567C16.7449 2.17567 16.5134 2.24206 16.3181 2.37486C16.1245 2.50576 15.9756 2.67649 15.8713 2.88707C15.767 3.09764 15.7148 3.32339 15.7148 3.56432V3.95132C15.7148 4.28141 15.7717 4.56123 15.8855 4.79077C16.0012 5.01842 16.1615 5.192 16.3664 5.31152C16.5713 5.42914 16.8094 5.48795 17.0807 5.48795C17.2571 5.48795 17.4165 5.46328 17.5587 5.41396C17.7029 5.36274 17.8272 5.28686 17.9315 5.18631C18.0358 5.08387 18.1165 4.95677 18.1734 4.805L18.8222 4.98712C18.7539 5.20718 18.6391 5.40068 18.4779 5.56762C18.3166 5.73267 18.1174 5.86167 17.8803 5.95462C17.6432 6.04568 17.3766 6.09121 17.0807 6.09121Z" fill="white"></path><path d="M20.5836 0.172363V6.00015H19.912V0.172363H20.5836Z" fill="white"></path><path d="M22.4852 3.37082V6.00015H21.8136V0.172363H22.4852V2.31226H22.5421C22.6445 2.0865 22.7982 1.90723 23.0031 1.77444C23.2099 1.63975 23.4849 1.5724 23.8283 1.5724C24.1261 1.5724 24.387 1.63216 24.6108 1.75167C24.8347 1.86929 25.0083 2.05046 25.1316 2.29518C25.2568 2.53801 25.3194 2.84723 25.3194 3.22285V6.00015H24.6478V3.26838C24.6478 2.92121 24.5577 2.65278 24.3775 2.46307C24.1992 2.27147 23.9516 2.17567 23.6348 2.17567C23.4147 2.17567 23.2174 2.22214 23.0429 2.3151C22.8703 2.40806 22.7337 2.5437 22.6332 2.72202C22.5345 2.90035 22.4852 3.11661 22.4852 3.37082Z" fill="white"></path><path d="M28.3236 6.09121C27.929 6.09121 27.5828 5.99731 27.285 5.8095C26.9891 5.62169 26.7576 5.35895 26.5907 5.02127C26.4256 4.68359 26.3431 4.289 26.3431 3.8375C26.3431 3.3822 26.4256 2.98477 26.5907 2.64519C26.7576 2.30562 26.9891 2.04192 27.285 1.85411C27.5828 1.6663 27.929 1.5724 28.3236 1.5724C28.7182 1.5724 29.0635 1.6663 29.3594 1.85411C29.6573 2.04192 29.8887 2.30562 30.0538 2.64519C30.2207 2.98477 30.3042 3.3822 30.3042 3.8375C30.3042 4.289 30.2207 4.68359 30.0538 5.02127C29.8887 5.35895 29.6573 5.62169 29.3594 5.8095C29.0635 5.99731 28.7182 6.09121 28.3236 6.09121ZM28.3236 5.48795C28.6234 5.48795 28.87 5.41111 29.0635 5.25745C29.257 5.10379 29.4002 4.90175 29.4932 4.65134C29.5861 4.40093 29.6326 4.12965 29.6326 3.8375C29.6326 3.54535 29.5861 3.27312 29.4932 3.02081C29.4002 2.7685 29.257 2.56457 29.0635 2.40901C28.87 2.25345 28.6234 2.17567 28.3236 2.17567C28.0239 2.17567 27.7773 2.25345 27.5838 2.40901C27.3903 2.56457 27.2471 2.7685 27.1541 3.02081C27.0611 3.27312 27.0147 3.54535 27.0147 3.8375C27.0147 4.12965 27.0611 4.40093 27.1541 4.65134C27.2471 4.90175 27.3903 5.10379 27.5838 5.25745C27.7773 5.41111 28.0239 5.48795 28.3236 5.48795Z" fill="white"></path><path d="M31.3293 6.00015V1.62931H31.9781V2.28949H32.0236C32.1033 2.07322 32.2475 1.89775 32.4562 1.76305C32.6648 1.62836 32.9001 1.56102 33.1619 1.56102C33.2112 1.56102 33.2729 1.56196 33.3468 1.56386C33.4208 1.56576 33.4768 1.5686 33.5147 1.5724V2.25534C33.492 2.24965 33.4398 2.24112 33.3582 2.22973C33.2785 2.21645 33.1941 2.20981 33.105 2.20981C32.8925 2.20981 32.7028 2.25439 32.5358 2.34356C32.3708 2.43082 32.2399 2.55223 32.1431 2.70779C32.0483 2.86146 32.0009 3.03694 32.0009 3.23423V6.00015H31.3293Z" fill="white"></path><path d="M2.39026 16.0912C1.98049 16.0912 1.62763 15.9945 1.33169 15.801C1.03575 15.6075 0.808101 15.3409 0.648748 15.0013C0.489394 14.6618 0.409717 14.2738 0.409717 13.8375C0.409717 13.3936 0.491291 13.0018 0.654439 12.6623C0.819484 12.3208 1.04903 12.0543 1.34307 11.8626C1.63902 11.6691 1.98428 11.5724 2.37887 11.5724C2.6862 11.5724 2.96317 11.6293 3.20979 11.7431C3.45641 11.857 3.65845 12.0163 3.8159 12.2212C3.97336 12.4261 4.07106 12.6651 4.109 12.9383H3.43744C3.38622 12.7391 3.27239 12.5627 3.09596 12.409C2.92143 12.2534 2.6862 12.1757 2.39026 12.1757C2.12846 12.1757 1.89892 12.244 1.70162 12.3805C1.50622 12.5152 1.35351 12.7059 1.24348 12.9525C1.13535 13.1972 1.08128 13.4846 1.08128 13.8147C1.08128 14.1524 1.1344 14.4465 1.24063 14.6969C1.34877 14.9473 1.50053 15.1417 1.69593 15.2802C1.89322 15.4187 2.12467 15.4879 2.39026 15.4879C2.56479 15.4879 2.72319 15.4576 2.86547 15.3969C3.00775 15.3362 3.12821 15.2489 3.22686 15.1351C3.32551 15.0213 3.3957 14.8847 3.43744 14.7253H4.109C4.07106 14.9833 3.97715 15.2157 3.82728 15.4225C3.67931 15.6274 3.48297 15.7905 3.23824 15.9119C2.99542 16.0315 2.71276 16.0912 2.39026 16.0912Z" fill="white"></path><path d="M6.86639 16.0912C6.4718 16.0912 6.12558 15.9973 5.82774 15.8095C5.5318 15.6217 5.30036 15.3589 5.13342 15.0213C4.96837 14.6836 4.88585 14.289 4.88585 13.8375C4.88585 13.3822 4.96837 12.9848 5.13342 12.6452C5.30036 12.3056 5.5318 12.0419 5.82774 11.8541C6.12558 11.6663 6.4718 11.5724 6.86639 11.5724C7.26098 11.5724 7.60624 11.6663 7.90218 11.8541C8.20002 12.0419 8.43147 12.3056 8.59651 12.6452C8.76345 12.9848 8.84692 13.3822 8.84692 13.8375C8.84692 14.289 8.76345 14.6836 8.59651 15.0213C8.43147 15.3589 8.20002 15.6217 7.90218 15.8095C7.60624 15.9973 7.26098 16.0912 6.86639 16.0912ZM6.86639 15.4879C7.16612 15.4879 7.41274 15.4111 7.60624 15.2575C7.79974 15.1038 7.94297 14.9018 8.03593 14.6513C8.12888 14.4009 8.17536 14.1296 8.17536 13.8375C8.17536 13.5453 8.12888 13.2731 8.03593 13.0208C7.94297 12.7685 7.79974 12.5646 7.60624 12.409C7.41274 12.2534 7.16612 12.1757 6.86639 12.1757C6.56665 12.1757 6.32003 12.2534 6.12653 12.409C5.93303 12.5646 5.7898 12.7685 5.69684 13.0208C5.60389 13.2731 5.55741 13.5453 5.55741 13.8375C5.55741 14.1296 5.60389 14.4009 5.69684 14.6513C5.7898 14.9018 5.93303 15.1038 6.12653 15.2575C6.32003 15.4111 6.56665 15.4879 6.86639 15.4879Z" fill="white"></path><path d="M9.87205 16.0002V11.6293H10.5208V12.3123H10.5778C10.6688 12.0789 10.8158 11.8977 11.0188 11.7687C11.2218 11.6378 11.4656 11.5724 11.7501 11.5724C12.0385 11.5724 12.2785 11.6378 12.4701 11.7687C12.6636 11.8977 12.8144 12.0789 12.9225 12.3123H12.9681C13.08 12.0865 13.2479 11.9072 13.4717 11.7744C13.6956 11.6397 13.964 11.5724 14.277 11.5724C14.6678 11.5724 14.9875 11.6948 15.236 11.9395C15.4845 12.1823 15.6088 12.5608 15.6088 13.0749V16.0002H14.9372V13.0749C14.9372 12.7524 14.849 12.5219 14.6726 12.3834C14.4962 12.2449 14.2884 12.1757 14.0494 12.1757C13.7421 12.1757 13.504 12.2686 13.3351 12.4545C13.1663 12.6386 13.0819 12.8719 13.0819 13.1546V16.0002H12.3989V13.0066C12.3989 12.7581 12.3183 12.5579 12.1571 12.4062C11.9958 12.2525 11.7881 12.1757 11.5339 12.1757C11.3594 12.1757 11.1962 12.2221 11.0444 12.3151C10.8946 12.4081 10.7732 12.5371 10.6802 12.7021C10.5891 12.8653 10.5436 13.054 10.5436 13.2684V16.0002H9.87205Z" fill="white"></path><path d="M19.5912 14.2131V11.6293H20.2628V16.0002H19.5912V15.2603H19.5457C19.4432 15.4823 19.2839 15.671 19.0676 15.8266C18.8513 15.9802 18.5782 16.0571 18.2481 16.0571C17.9749 16.0571 17.7321 15.9973 17.5196 15.8778C17.3071 15.7564 17.1402 15.5743 17.0188 15.3314C16.8974 15.0867 16.8367 14.7784 16.8367 14.4066V11.6293H17.5082V14.3611C17.5082 14.6798 17.5974 14.934 17.7757 15.1237C17.9559 15.3134 18.1855 15.4083 18.4643 15.4083C18.6313 15.4083 18.8011 15.3656 18.9737 15.2802C19.1482 15.1948 19.2943 15.064 19.4119 14.8875C19.5314 14.7111 19.5912 14.4863 19.5912 14.2131Z" fill="white"></path><path d="M22.1643 13.3708V16.0002H21.4928V11.6293H22.1416V12.3123H22.1985C22.3009 12.0903 22.4565 11.912 22.6652 11.7773C22.8738 11.6407 23.1432 11.5724 23.4733 11.5724C23.7693 11.5724 24.0282 11.6331 24.2502 11.7545C24.4721 11.874 24.6448 12.0562 24.7681 12.3009C24.8914 12.5437 24.953 12.851 24.953 13.2228V16.0002H24.2815V13.2684C24.2815 12.925 24.1923 12.6575 24.014 12.4659C23.8357 12.2724 23.5909 12.1757 23.2798 12.1757C23.0654 12.1757 22.8738 12.2221 22.705 12.3151C22.5381 12.4081 22.4062 12.5437 22.3095 12.722C22.2127 12.9003 22.1643 13.1166 22.1643 13.3708Z" fill="white"></path><path d="M26.1802 16.0002V11.6293H26.8518V16.0002H26.1802ZM26.5217 10.9008C26.3908 10.9008 26.2779 10.8563 26.183 10.7671C26.0901 10.6779 26.0436 10.5707 26.0436 10.4455C26.0436 10.3203 26.0901 10.2132 26.183 10.124C26.2779 10.0348 26.3908 9.99024 26.5217 9.99024C26.6526 9.99024 26.7645 10.0348 26.8574 10.124C26.9523 10.2132 26.9997 10.3203 26.9997 10.4455C26.9997 10.5707 26.9523 10.6779 26.8574 10.7671C26.7645 10.8563 26.6526 10.9008 26.5217 10.9008Z" fill="white"></path><path d="M29.7322 16.0912C29.368 16.0912 29.0464 15.9992 28.7676 15.8152C28.4887 15.6293 28.2705 15.3675 28.1131 15.0298C27.9556 14.6902 27.8769 14.289 27.8769 13.8261C27.8769 13.367 27.9556 12.9686 28.1131 12.631C28.2705 12.2933 28.4896 12.0324 28.7704 11.8484C29.0512 11.6644 29.3756 11.5724 29.7436 11.5724C30.0282 11.5724 30.253 11.6198 30.418 11.7147C30.5849 11.8076 30.712 11.9139 30.7993 12.0334C30.8885 12.151 30.9577 12.2478 31.007 12.3236H31.064V10.1724H31.7355V16.0002H31.0867V15.3286H31.007C30.9577 15.4083 30.8875 15.5088 30.7965 15.6302C30.7054 15.7497 30.5755 15.8569 30.4066 15.9518C30.2378 16.0447 30.013 16.0912 29.7322 16.0912ZM29.8233 15.4879C30.0927 15.4879 30.3203 15.4178 30.5062 15.2774C30.6921 15.1351 30.8335 14.9387 30.9302 14.6883C31.027 14.436 31.0753 14.1448 31.0753 13.8147C31.0753 13.4884 31.0279 13.2029 30.9331 12.9582C30.8382 12.7116 30.6978 12.52 30.5119 12.3834C30.326 12.2449 30.0964 12.1757 29.8233 12.1757C29.5387 12.1757 29.3016 12.2487 29.1119 12.3948C28.9241 12.539 28.7827 12.7353 28.6879 12.9838C28.5949 13.2304 28.5484 13.5074 28.5484 13.8147C28.5484 14.1259 28.5959 14.4085 28.6907 14.6627C28.7875 14.915 28.9298 15.1161 29.1176 15.266C29.3073 15.414 29.5425 15.4879 29.8233 15.4879Z" fill="white"></path><path d="M34.3449 16.1026C34.068 16.1026 33.8166 16.0504 33.5908 15.9461C33.3651 15.8399 33.1858 15.6871 33.053 15.4879C32.9202 15.2869 32.8538 15.044 32.8538 14.7595C32.8538 14.5091 32.9032 14.3061 33.0018 14.1505C33.1005 13.9931 33.2323 13.8697 33.3973 13.7806C33.5624 13.6914 33.7445 13.625 33.9437 13.5814C34.1448 13.5359 34.3468 13.4998 34.5498 13.4733C34.8154 13.4391 35.0307 13.4135 35.1958 13.3964C35.3627 13.3775 35.4841 13.3462 35.56 13.3025C35.6378 13.2589 35.6767 13.183 35.6767 13.0749V13.0521C35.6767 12.7713 35.5998 12.5532 35.4462 12.3976C35.2944 12.2421 35.0639 12.1643 34.7547 12.1643C34.4341 12.1643 34.1827 12.2345 34.0006 12.3749C33.8185 12.5152 33.6904 12.6651 33.6165 12.8245L32.979 12.5968C33.0929 12.3312 33.2446 12.1244 33.4343 11.9765C33.6259 11.8266 33.8346 11.7223 34.0604 11.6635C34.288 11.6028 34.5119 11.5724 34.7319 11.5724C34.8723 11.5724 35.0336 11.5895 35.2157 11.6236C35.3997 11.6559 35.5771 11.7232 35.7478 11.8257C35.9204 11.9281 36.0637 12.0827 36.1775 12.2895C36.2913 12.4963 36.3482 12.7732 36.3482 13.1204V16.0002H35.6767V15.4083H35.6425C35.597 15.5031 35.5211 15.6046 35.4149 15.7127C35.3086 15.8209 35.1673 15.9129 34.9909 15.9888C34.8145 16.0647 34.5991 16.1026 34.3449 16.1026ZM34.4474 15.4993C34.713 15.4993 34.9368 15.4472 35.1189 15.3428C35.303 15.2385 35.4414 15.1038 35.5344 14.9387C35.6292 14.7737 35.6767 14.6001 35.6767 14.418V13.8034C35.6482 13.8375 35.5856 13.8688 35.4889 13.8973C35.394 13.9238 35.284 13.9475 35.1588 13.9684C35.0355 13.9874 34.915 14.0044 34.7974 14.0196C34.6817 14.0329 34.5878 14.0443 34.5157 14.0538C34.3411 14.0765 34.178 14.1135 34.0262 14.1647C33.8764 14.2141 33.7549 14.289 33.662 14.3895C33.5709 14.4882 33.5254 14.6229 33.5254 14.7936C33.5254 15.027 33.6117 15.2034 33.7843 15.3229C33.9589 15.4405 34.1799 15.4993 34.4474 15.4993Z" fill="white"></path><path d="M39.2244 16.0912C38.8602 16.0912 38.5386 15.9992 38.2598 15.8152C37.9809 15.6293 37.7627 15.3675 37.6053 15.0298C37.4478 14.6902 37.3691 14.289 37.3691 13.8261C37.3691 13.367 37.4478 12.9686 37.6053 12.631C37.7627 12.2933 37.9818 12.0324 38.2626 11.8484C38.5434 11.6644 38.8678 11.5724 39.2358 11.5724C39.5204 11.5724 39.7452 11.6198 39.9102 11.7147C40.0772 11.8076 40.2043 11.9139 40.2915 12.0334C40.3807 12.151 40.4499 12.2478 40.4993 12.3236H40.5562V10.1724H41.2277V16.0002H40.5789V15.3286H40.4993C40.4499 15.4083 40.3797 15.5088 40.2887 15.6302C40.1976 15.7497 40.0677 15.8569 39.8988 15.9518C39.73 16.0447 39.5052 16.0912 39.2244 16.0912ZM39.3155 15.4879C39.5849 15.4879 39.8125 15.4178 39.9984 15.2774C40.1843 15.1351 40.3257 14.9387 40.4224 14.6883C40.5192 14.436 40.5676 14.1448 40.5676 13.8147C40.5676 13.4884 40.5201 13.2029 40.4253 12.9582C40.3304 12.7116 40.19 12.52 40.0041 12.3834C39.8182 12.2449 39.5887 12.1757 39.3155 12.1757C39.0309 12.1757 38.7938 12.2487 38.6041 12.3948C38.4163 12.539 38.2749 12.7353 38.1801 12.9838C38.0871 13.2304 38.0407 13.5074 38.0407 13.8147C38.0407 14.1259 38.0881 14.4085 38.1829 14.6627C38.2797 14.915 38.422 15.1161 38.6098 15.266C38.7995 15.414 39.0347 15.4879 39.3155 15.4879Z" fill="white"></path><path d="M44.3835 16.0912C43.9624 16.0912 43.5991 15.9983 43.2936 15.8123C42.9901 15.6245 42.7558 15.3627 42.5908 15.027C42.4276 14.6893 42.3461 14.2966 42.3461 13.8489C42.3461 13.4012 42.4276 13.0066 42.5908 12.6651C42.7558 12.3217 42.9854 12.0543 43.2794 11.8626C43.5754 11.6691 43.9206 11.5724 44.3152 11.5724C44.5429 11.5724 44.7677 11.6103 44.9896 11.6862C45.2116 11.7621 45.4136 11.8854 45.5957 12.0562C45.7778 12.225 45.923 12.4488 46.0311 12.7277C46.1392 13.0066 46.1933 13.35 46.1933 13.7578V14.0424H42.8241V13.4619H45.5104C45.5104 13.2153 45.461 12.9952 45.3624 12.8017C45.2656 12.6082 45.1272 12.4555 44.9469 12.3436C44.7686 12.2316 44.558 12.1757 44.3152 12.1757C44.0477 12.1757 43.8163 12.2421 43.6209 12.3749C43.4274 12.5058 43.2785 12.6765 43.1741 12.8871C43.0698 13.0976 43.0176 13.3234 43.0176 13.5643V13.9513C43.0176 14.2814 43.0745 14.5612 43.1883 14.7908C43.3041 15.0184 43.4644 15.192 43.6693 15.3115C43.8741 15.4291 44.1122 15.4879 44.3835 15.4879C44.5599 15.4879 44.7193 15.4633 44.8616 15.414C45.0057 15.3627 45.13 15.2869 45.2343 15.1863C45.3387 15.0839 45.4193 14.9568 45.4762 14.805L46.125 14.9871C46.0567 15.2072 45.9419 15.4007 45.7807 15.5676C45.6194 15.7327 45.4202 15.8617 45.1831 15.9546C44.946 16.0457 44.6794 16.0912 44.3835 16.0912Z" fill="white"></path><path d="M51.119 16.0912C50.7548 16.0912 50.4332 15.9992 50.1544 15.8152C49.8755 15.6293 49.6573 15.3675 49.4999 15.0298C49.3424 14.6902 49.2637 14.289 49.2637 13.8261C49.2637 13.367 49.3424 12.9686 49.4999 12.631C49.6573 12.2933 49.8765 12.0324 50.1572 11.8484C50.438 11.6644 50.7624 11.5724 51.1304 11.5724C51.415 11.5724 51.6398 11.6198 51.8048 11.7147C51.9718 11.8076 52.0989 11.9139 52.1861 12.0334C52.2753 12.151 52.3445 12.2478 52.3939 12.3236H52.4508V10.1724H53.1223V16.0002H52.4735V15.3286H52.3939C52.3445 15.4083 52.2744 15.5088 52.1833 15.6302C52.0922 15.7497 51.9623 15.8569 51.7934 15.9518C51.6246 16.0447 51.3998 16.0912 51.119 16.0912ZM51.2101 15.4879C51.4795 15.4879 51.7071 15.4178 51.893 15.2774C52.079 15.1351 52.2203 14.9387 52.317 14.6883C52.4138 14.436 52.4622 14.1448 52.4622 13.8147C52.4622 13.4884 52.4147 13.2029 52.3199 12.9582C52.225 12.7116 52.0846 12.52 51.8987 12.3834C51.7128 12.2449 51.4833 12.1757 51.2101 12.1757C50.9255 12.1757 50.6884 12.2487 50.4987 12.3948C50.3109 12.539 50.1696 12.7353 50.0747 12.9838C49.9817 13.2304 49.9353 13.5074 49.9353 13.8147C49.9353 14.1259 49.9827 14.4085 50.0775 14.6627C50.1743 14.915 50.3166 15.1161 50.5044 15.266C50.6941 15.414 50.9293 15.4879 51.2101 15.4879Z" fill="white"></path><path d="M56.2212 16.0912C55.8266 16.0912 55.4804 15.9973 55.1826 15.8095C54.8866 15.6217 54.6552 15.3589 54.4882 15.0213C54.3232 14.6836 54.2407 14.289 54.2407 13.8375C54.2407 13.3822 54.3232 12.9848 54.4882 12.6452C54.6552 12.3056 54.8866 12.0419 55.1826 11.8541C55.4804 11.6663 55.8266 11.5724 56.2212 11.5724C56.6158 11.5724 56.9611 11.6663 57.257 11.8541C57.5548 12.0419 57.7863 12.3056 57.9513 12.6452C58.1183 12.9848 58.2017 13.3822 58.2017 13.8375C58.2017 14.289 58.1183 14.6836 57.9513 15.0213C57.7863 15.3589 57.5548 15.6217 57.257 15.8095C56.9611 15.9973 56.6158 16.0912 56.2212 16.0912ZM56.2212 15.4879C56.5209 15.4879 56.7676 15.4111 56.9611 15.2575C57.1546 15.1038 57.2978 14.9018 57.3907 14.6513C57.4837 14.4009 57.5302 14.1296 57.5302 13.8375C57.5302 13.5453 57.4837 13.2731 57.3907 13.0208C57.2978 12.7685 57.1546 12.5646 56.9611 12.409C56.7676 12.2534 56.5209 12.1757 56.2212 12.1757C55.9215 12.1757 55.6748 12.2534 55.4813 12.409C55.2878 12.5646 55.1446 12.7685 55.0517 13.0208C54.9587 13.2731 54.9122 13.5453 54.9122 13.8375C54.9122 14.1296 54.9587 14.4009 55.0517 14.6513C55.1446 14.9018 55.2878 15.1038 55.4813 15.2575C55.6748 15.4111 55.9215 15.4879 56.2212 15.4879Z" fill="white"></path><path d="M0.614603 26.0332V21.6624H1.2634V22.3453H1.32031C1.41137 22.112 1.55839 21.9308 1.76138 21.8018C1.96437 21.6709 2.20814 21.6055 2.4927 21.6055C2.78105 21.6055 3.02103 21.6709 3.21264 21.8018C3.40614 21.9308 3.55695 22.112 3.66509 22.3453H3.71062C3.82254 22.1196 3.99043 21.9403 4.21429 21.8075C4.43814 21.6728 4.70658 21.6055 5.01959 21.6055C5.41039 21.6055 5.73005 21.7278 5.97856 21.9725C6.22708 22.2154 6.35134 22.5938 6.35134 23.1079V26.0332H5.67977V23.1079C5.67977 22.7854 5.59156 22.5549 5.41513 22.4165C5.2387 22.278 5.03098 22.2087 4.79195 22.2087C4.48462 22.2087 4.24654 22.3017 4.0777 22.4876C3.90886 22.6716 3.82444 22.9049 3.82444 23.1876V26.0332H3.1415V23.0396C3.1415 22.7911 3.06087 22.591 2.89962 22.4392C2.73837 22.2856 2.53064 22.2087 2.27643 22.2087C2.1019 22.2087 1.93876 22.2552 1.78699 22.3482C1.63712 22.4411 1.51571 22.5701 1.42275 22.7352C1.33169 22.8983 1.28616 23.0871 1.28616 23.3014V26.0332H0.614603Z" fill="white"></path><path d="M9.41178 26.1243C8.99063 26.1243 8.62734 26.0313 8.32191 25.8454C8.01838 25.6576 7.78409 25.3958 7.61905 25.06C7.4559 24.7223 7.37433 24.3296 7.37433 23.8819C7.37433 23.4342 7.4559 23.0396 7.61905 22.6982C7.78409 22.3548 8.01364 22.0873 8.30768 21.8957C8.60363 21.7022 8.94889 21.6055 9.34348 21.6055C9.57113 21.6055 9.79593 21.6434 10.0179 21.7193C10.2398 21.7952 10.4419 21.9185 10.624 22.0892C10.8061 22.258 10.9512 22.4819 11.0594 22.7608C11.1675 23.0396 11.2216 23.383 11.2216 23.7909V24.0754H7.85239V23.4949H10.5386C10.5386 23.2483 10.4893 23.0283 10.3907 22.8348C10.2939 22.6413 10.1554 22.4885 9.97521 22.3766C9.79688 22.2647 9.58631 22.2087 9.34348 22.2087C9.076 22.2087 8.84456 22.2751 8.64916 22.4079C8.45566 22.5388 8.30674 22.7096 8.2024 22.9201C8.09806 23.1307 8.04589 23.3565 8.04589 23.5974V23.9844C8.04589 24.3145 8.1028 24.5943 8.21663 24.8238C8.33235 25.0515 8.49265 25.2251 8.69753 25.3446C8.90242 25.4622 9.1405 25.521 9.41178 25.521C9.58821 25.521 9.74756 25.4963 9.88984 25.447C10.034 25.3958 10.1583 25.3199 10.2626 25.2194C10.367 25.1169 10.4476 24.9898 10.5045 24.8381L11.1533 25.0202C11.085 25.2402 10.9702 25.4337 10.809 25.6007C10.6477 25.7657 10.4485 25.8947 10.2114 25.9877C9.97426 26.0787 9.70772 26.1243 9.41178 26.1243Z" fill="white"></path><path d="M12.2432 26.0332V21.6624H12.8919V22.3225H12.9375C13.0172 22.1063 13.1613 21.9308 13.37 21.7961C13.5787 21.6614 13.8139 21.5941 14.0757 21.5941C14.125 21.5941 14.1867 21.595 14.2607 21.5969C14.3347 21.5988 14.3906 21.6017 14.4286 21.6055V22.2884C14.4058 22.2827 14.3536 22.2742 14.2721 22.2628C14.1924 22.2495 14.108 22.2429 14.0188 22.2429C13.8063 22.2429 13.6166 22.2875 13.4497 22.3766C13.2846 22.4639 13.1537 22.5853 13.057 22.7409C12.9621 22.8945 12.9147 23.07 12.9147 23.2673V26.0332H12.2432Z" fill="white"></path><path d="M16.8673 26.1243C16.4575 26.1243 16.1046 26.0275 15.8087 25.834C15.5127 25.6405 15.2851 25.374 15.1257 25.0344C14.9664 24.6948 14.8867 24.3069 14.8867 23.8706C14.8867 23.4266 14.9683 23.0349 15.1314 22.6953C15.2965 22.3539 15.526 22.0873 15.8201 21.8957C16.116 21.7022 16.4613 21.6055 16.8559 21.6055C17.1632 21.6055 17.4402 21.6624 17.6868 21.7762C17.9334 21.89 18.1354 22.0494 18.2929 22.2543C18.4504 22.4591 18.5481 22.6982 18.586 22.9713H17.9144C17.8632 22.7722 17.7494 22.5957 17.573 22.4421C17.3984 22.2865 17.1632 22.2087 16.8673 22.2087C16.6055 22.2087 16.3759 22.277 16.1786 22.4136C15.9832 22.5483 15.8305 22.739 15.7205 22.9856C15.6123 23.2303 15.5583 23.5177 15.5583 23.8478C15.5583 24.1855 15.6114 24.4795 15.7176 24.7299C15.8258 24.9803 15.9775 25.1748 16.1729 25.3133C16.3702 25.4518 16.6017 25.521 16.8673 25.521C17.0418 25.521 17.2002 25.4907 17.3425 25.4299C17.4847 25.3692 17.6052 25.282 17.7039 25.1682C17.8025 25.0543 17.8727 24.9177 17.9144 24.7584H18.586C18.5481 25.0164 18.4541 25.2488 18.3043 25.4556C18.1563 25.6604 17.96 25.8236 17.7152 25.945C17.4724 26.0645 17.1898 26.1243 16.8673 26.1243Z" fill="white"></path><path d="M20.8539 26.1357C20.577 26.1357 20.3256 26.0835 20.0999 25.9791C19.8741 25.8729 19.6948 25.7202 19.562 25.521C19.4292 25.3199 19.3628 25.0771 19.3628 24.7925C19.3628 24.5421 19.4122 24.3391 19.5108 24.1836C19.6095 24.0261 19.7413 23.9028 19.9064 23.8136C20.0714 23.7245 20.2535 23.6581 20.4527 23.6145C20.6538 23.5689 20.8558 23.5329 21.0588 23.5063C21.3244 23.4722 21.5397 23.4466 21.7048 23.4295C21.8717 23.4105 21.9931 23.3792 22.069 23.3356C22.1468 23.292 22.1857 23.2161 22.1857 23.1079V23.0852C22.1857 22.8044 22.1088 22.5862 21.9552 22.4307C21.8034 22.2751 21.5729 22.1973 21.2637 22.1973C20.9431 22.1973 20.6917 22.2675 20.5096 22.4079C20.3275 22.5483 20.1995 22.6982 20.1255 22.8575L19.4881 22.6299C19.6019 22.3643 19.7536 22.1575 19.9433 22.0095C20.135 21.8597 20.3436 21.7553 20.5694 21.6965C20.797 21.6358 21.0209 21.6055 21.2409 21.6055C21.3813 21.6055 21.5426 21.6225 21.7247 21.6567C21.9087 21.6889 22.0861 21.7563 22.2568 21.8587C22.4295 21.9612 22.5727 22.1158 22.6865 22.3225C22.8003 22.5293 22.8572 22.8063 22.8572 23.1535V26.0332H22.1857V25.4413H22.1515C22.106 25.5362 22.0301 25.6377 21.9239 25.7458C21.8176 25.8539 21.6763 25.9459 21.4999 26.0218C21.3235 26.0977 21.1081 26.1357 20.8539 26.1357ZM20.9564 25.5324C21.222 25.5324 21.4458 25.4802 21.6279 25.3759C21.812 25.2715 21.9504 25.1369 22.0434 24.9718C22.1383 24.8068 22.1857 24.6332 22.1857 24.4511V23.8364C22.1572 23.8706 22.0946 23.9019 21.9979 23.9303C21.903 23.9569 21.793 23.9806 21.6678 24.0015C21.5445 24.0204 21.424 24.0375 21.3064 24.0527C21.1907 24.066 21.0968 24.0773 21.0247 24.0868C20.8501 24.1096 20.687 24.1466 20.5352 24.1978C20.3854 24.2471 20.264 24.3221 20.171 24.4226C20.0799 24.5213 20.0344 24.6559 20.0344 24.8267C20.0344 25.06 20.1207 25.2364 20.2934 25.356C20.4679 25.4736 20.6889 25.5324 20.9564 25.5324Z" fill="white"></path><path d="M25.7334 26.1243C25.3692 26.1243 25.0476 26.0323 24.7688 25.8482C24.4899 25.6623 24.2717 25.4005 24.1143 25.0629C23.9568 24.7233 23.8781 24.3221 23.8781 23.8592C23.8781 23.4001 23.9568 23.0017 24.1143 22.664C24.2717 22.3263 24.4909 22.0655 24.7716 21.8815C25.0524 21.6975 25.3768 21.6055 25.7448 21.6055C26.0294 21.6055 26.2542 21.6529 26.4192 21.7477C26.5862 21.8407 26.7133 21.9469 26.8005 22.0664C26.8897 22.1841 26.9589 22.2808 27.0083 22.3567H27.0652V20.2054H27.7367V26.0332H27.0879V25.3617H27.0083C26.9589 25.4413 26.8887 25.5419 26.7977 25.6633C26.7066 25.7828 26.5767 25.89 26.4078 25.9848C26.239 26.0778 26.0142 26.1243 25.7334 26.1243ZM25.8245 25.521C26.0939 25.521 26.3215 25.4508 26.5074 25.3104C26.6933 25.1682 26.8347 24.9718 26.9314 24.7214C27.0282 24.4691 27.0766 24.1779 27.0766 23.8478C27.0766 23.5215 27.0291 23.236 26.9343 22.9913C26.8394 22.7446 26.699 22.553 26.5131 22.4165C26.3272 22.278 26.0977 22.2087 25.8245 22.2087C25.5399 22.2087 25.3028 22.2818 25.1131 22.4278C24.9253 22.572 24.784 22.7684 24.6891 23.0169C24.5961 23.2635 24.5497 23.5405 24.5497 23.8478C24.5497 24.1589 24.5971 24.4416 24.6919 24.6958C24.7887 24.9481 24.931 25.1492 25.1188 25.299C25.3085 25.447 25.5437 25.521 25.8245 25.521Z" fill="white"></path><path d="M30.8356 26.1243C30.441 26.1243 30.0948 26.0304 29.797 25.8426C29.501 25.6548 29.2696 25.392 29.1026 25.0543C28.9376 24.7166 28.8551 24.3221 28.8551 23.8706C28.8551 23.4153 28.9376 23.0178 29.1026 22.6783C29.2696 22.3387 29.501 22.075 29.797 21.8872C30.0948 21.6994 30.441 21.6055 30.8356 21.6055C31.2302 21.6055 31.5755 21.6994 31.8714 21.8872C32.1692 22.075 32.4007 22.3387 32.5657 22.6783C32.7327 23.0178 32.8161 23.4153 32.8161 23.8706C32.8161 24.3221 32.7327 24.7166 32.5657 25.0543C32.4007 25.392 32.1692 25.6548 31.8714 25.8426C31.5755 26.0304 31.2302 26.1243 30.8356 26.1243ZM30.8356 25.521C31.1353 25.521 31.382 25.4442 31.5755 25.2905C31.769 25.1368 31.9122 24.9348 32.0051 24.6844C32.0981 24.434 32.1446 24.1627 32.1446 23.8706C32.1446 23.5784 32.0981 23.3062 32.0051 23.0539C31.9122 22.8016 31.769 22.5976 31.5755 22.4421C31.382 22.2865 31.1353 22.2087 30.8356 22.2087C30.5359 22.2087 30.2892 22.2865 30.0957 22.4421C29.9022 22.5976 29.759 22.8016 29.6661 23.0539C29.5731 23.3062 29.5266 23.5784 29.5266 23.8706C29.5266 24.1627 29.5731 24.434 29.6661 24.6844C29.759 24.9348 29.9022 25.1368 30.0957 25.2905C30.2892 25.4442 30.5359 25.521 30.8356 25.521Z" fill="white"></path><path d="M37.7454 26.1243C37.3812 26.1243 37.0596 26.0323 36.7808 25.8482C36.5019 25.6623 36.2837 25.4005 36.1263 25.0629C35.9688 24.7233 35.8901 24.3221 35.8901 23.8592C35.8901 23.4001 35.9688 23.0017 36.1263 22.664C36.2837 22.3263 36.5028 22.0655 36.7836 21.8815C37.0644 21.6975 37.3888 21.6055 37.7568 21.6055C38.0414 21.6055 38.2662 21.6529 38.4312 21.7477C38.5982 21.8407 38.7253 21.9469 38.8125 22.0664C38.9017 22.1841 38.9709 22.2808 39.0203 22.3567H39.0772V20.2054H39.7487V26.0332H39.0999V25.3617H39.0203C38.9709 25.4413 38.9007 25.5419 38.8097 25.6633C38.7186 25.7828 38.5887 25.89 38.4198 25.9848C38.251 26.0778 38.0262 26.1243 37.7454 26.1243ZM37.8365 25.521C38.1059 25.521 38.3335 25.4508 38.5194 25.3104C38.7053 25.1682 38.8467 24.9718 38.9434 24.7214C39.0402 24.4691 39.0886 24.1779 39.0886 23.8478C39.0886 23.5215 39.0411 23.236 38.9463 22.9913C38.8514 22.7446 38.711 22.553 38.5251 22.4165C38.3392 22.278 38.1097 22.2087 37.8365 22.2087C37.5519 22.2087 37.3148 22.2818 37.1251 22.4278C36.9373 22.572 36.7959 22.7684 36.7011 23.0169C36.6081 23.2635 36.5617 23.5405 36.5617 23.8478C36.5617 24.1589 36.6091 24.4416 36.7039 24.6958C36.8007 24.9481 36.943 25.1492 37.1308 25.299C37.3205 25.447 37.5557 25.521 37.8365 25.521Z" fill="white"></path><path d="M41.0719 26.0332V21.6624H41.7435V26.0332H41.0719ZM41.4134 20.9339C41.2825 20.9339 41.1696 20.8893 41.0748 20.8002C40.9818 20.711 40.9353 20.6038 40.9353 20.4786C40.9353 20.3534 40.9818 20.2462 41.0748 20.157C41.1696 20.0679 41.2825 20.0233 41.4134 20.0233C41.5443 20.0233 41.6562 20.0679 41.7492 20.157C41.844 20.2462 41.8915 20.3534 41.8915 20.4786C41.8915 20.6038 41.844 20.711 41.7492 20.8002C41.6562 20.8893 41.5443 20.9339 41.4134 20.9339Z" fill="white"></path><path d="M44.7378 27.7633C44.4134 27.7633 44.1345 27.7216 43.9012 27.6381C43.6678 27.5566 43.4734 27.4484 43.3178 27.3137C43.1642 27.1809 43.0418 27.0387 42.9507 26.8869L43.4857 26.5113C43.5464 26.591 43.6233 26.682 43.7162 26.7845C43.8092 26.8888 43.9363 26.9789 44.0975 27.0548C44.2607 27.1326 44.4741 27.1715 44.7378 27.1715C45.0906 27.1715 45.3818 27.0861 45.6114 26.9153C45.8409 26.7446 45.9557 26.4771 45.9557 26.1129V25.2251H45.8988C45.8495 25.3047 45.7793 25.4034 45.6882 25.521C45.5991 25.6367 45.4701 25.7401 45.3012 25.8312C45.1343 25.9203 44.9085 25.9649 44.624 25.9649C44.2711 25.9649 43.9543 25.8814 43.6735 25.7145C43.3947 25.5476 43.1736 25.3047 43.0105 24.986C42.8493 24.6673 42.7686 24.2803 42.7686 23.825C42.7686 23.3773 42.8474 22.9875 43.0048 22.6555C43.1623 22.3216 43.3814 22.0636 43.6621 21.8815C43.9429 21.6975 44.2673 21.6055 44.6353 21.6055C44.9199 21.6055 45.1456 21.6529 45.3126 21.7477C45.4814 21.8407 45.6104 21.9469 45.6996 22.0664C45.7907 22.1841 45.8608 22.2808 45.9102 22.3567H45.9785V21.6624H46.6273V26.1584C46.6273 26.534 46.5419 26.8395 46.3712 27.0747C46.2023 27.3118 45.9747 27.4854 45.6882 27.5954C45.4037 27.7074 45.0868 27.7633 44.7378 27.7633ZM44.715 25.3617C44.9844 25.3617 45.212 25.3 45.398 25.1767C45.5839 25.0534 45.7252 24.876 45.822 24.6446C45.9187 24.4131 45.9671 24.1361 45.9671 23.8136C45.9671 23.4987 45.9197 23.2208 45.8248 22.9799C45.7299 22.739 45.5896 22.5502 45.4037 22.4136C45.2177 22.277 44.9882 22.2087 44.715 22.2087C44.4305 22.2087 44.1933 22.2808 44.0036 22.425C43.8158 22.5692 43.6745 22.7627 43.5796 23.0055C43.4867 23.2483 43.4402 23.5177 43.4402 23.8136C43.4402 24.1172 43.4876 24.3856 43.5825 24.6189C43.6792 24.8504 43.8215 25.0325 44.0093 25.1653C44.199 25.2962 44.4342 25.3617 44.715 25.3617Z" fill="white"></path><path d="M47.8566 26.0332V21.6624H48.5281V26.0332H47.8566ZM48.198 20.9339C48.0671 20.9339 47.9543 20.8893 47.8594 20.8002C47.7664 20.711 47.72 20.6038 47.72 20.4786C47.72 20.3534 47.7664 20.2462 47.8594 20.157C47.9543 20.0679 48.0671 20.0233 48.198 20.0233C48.3289 20.0233 48.4409 20.0679 48.5338 20.157C48.6287 20.2462 48.6761 20.3534 48.6761 20.4786C48.6761 20.6038 48.6287 20.711 48.5338 20.8002C48.4409 20.8893 48.3289 20.9339 48.198 20.9339Z" fill="white"></path><path d="M51.659 21.6624V22.2315H49.3939V21.6624H51.659ZM50.0541 20.6152H50.7256V24.7811C50.7256 24.9709 50.7531 25.1131 50.8082 25.208C50.8651 25.3009 50.9372 25.3635 51.0244 25.3958C51.1136 25.4262 51.2075 25.4413 51.3061 25.4413C51.3801 25.4413 51.4408 25.4375 51.4883 25.4299C51.5357 25.4205 51.5736 25.4129 51.6021 25.4072L51.7387 26.0105C51.6931 26.0275 51.6296 26.0446 51.548 26.0617C51.4664 26.0806 51.363 26.0901 51.2378 26.0901C51.0481 26.0901 50.8622 26.0493 50.6801 25.9678C50.4999 25.8862 50.35 25.7619 50.2305 25.595C50.1129 25.428 50.0541 25.2175 50.0541 24.9633V20.6152Z" fill="white"></path><path d="M53.9554 26.1357C53.6784 26.1357 53.4271 26.0835 53.2013 25.9791C52.9756 25.8729 52.7963 25.7202 52.6635 25.521C52.5307 25.3199 52.4643 25.0771 52.4643 24.7925C52.4643 24.5421 52.5136 24.3391 52.6123 24.1836C52.7109 24.0261 52.8428 23.9028 53.0078 23.8136C53.1728 23.7245 53.355 23.6581 53.5542 23.6145C53.7553 23.5689 53.9573 23.5329 54.1603 23.5063C54.4259 23.4722 54.6412 23.4466 54.8062 23.4295C54.9732 23.4105 55.0946 23.3792 55.1705 23.3356C55.2482 23.292 55.2871 23.2161 55.2871 23.1079V23.0852C55.2871 22.8044 55.2103 22.5862 55.0566 22.4307C54.9049 22.2751 54.6744 22.1973 54.3652 22.1973C54.0446 22.1973 53.7932 22.2675 53.6111 22.4079C53.429 22.5483 53.3009 22.6982 53.2269 22.8575L52.5895 22.6299C52.7033 22.3643 52.8551 22.1575 53.0448 22.0095C53.2364 21.8597 53.4451 21.7553 53.6708 21.6965C53.8985 21.6358 54.1223 21.6055 54.3424 21.6055C54.4828 21.6055 54.644 21.6225 54.8261 21.6567C55.0102 21.6889 55.1875 21.7563 55.3583 21.8587C55.5309 21.9612 55.6741 22.1158 55.788 22.3225C55.9018 22.5293 55.9587 22.8063 55.9587 23.1535V26.0332H55.2871V25.4413H55.253C55.2075 25.5362 55.1316 25.6377 55.0253 25.7458C54.9191 25.8539 54.7778 25.9459 54.6013 26.0218C54.4249 26.0977 54.2096 26.1357 53.9554 26.1357ZM54.0578 25.5324C54.3234 25.5324 54.5473 25.4802 54.7294 25.3759C54.9134 25.2715 55.0519 25.1369 55.1449 24.9718C55.2397 24.8068 55.2871 24.6332 55.2871 24.4511V23.8364C55.2587 23.8706 55.1961 23.9019 55.0993 23.9303C55.0045 23.9569 54.8944 23.9806 54.7692 24.0015C54.6459 24.0204 54.5255 24.0375 54.4078 24.0527C54.2921 24.066 54.1982 24.0773 54.1261 24.0868C53.9516 24.1096 53.7884 24.1466 53.6367 24.1978C53.4868 24.2471 53.3654 24.3221 53.2724 24.4226C53.1814 24.5213 53.1359 24.6559 53.1359 24.8267C53.1359 25.06 53.2222 25.2364 53.3948 25.356C53.5693 25.4736 53.7903 25.5324 54.0578 25.5324Z" fill="white"></path><path d="M57.856 20.2054V26.0332H57.1844V20.2054H57.856Z" fill="white"></path></svg>