<svg xmlns="http://www.w3.org/2000/svg" width="31" height="31" viewBox="0 0 31 31" fill="none"><g id="cadeado (1) 2" clip-path="url(#clip0_49_987)"><g id="Group"><g id="Group_2"><g id="Group_3"><path id="Vector" d="M23.7408 14.7127V9.15635C23.7408 4.42137 19.8887 0.569336 15.1537 0.569336C10.4187 0.569336 6.56664 4.42137 6.56664 9.1564V14.7128C5.1741 14.7128 4.04102 15.8458 4.04102 17.2384V28.351C4.04102 29.7435 5.1741 30.8766 6.56664 30.8766H23.7407C25.1332 30.8766 26.2663 29.7435 26.2663 28.351V17.2383C26.2663 15.8458 25.1333 14.7127 23.7408 14.7127ZM7.5769 9.1564C7.5769 4.97856 10.9759 1.5796 15.1537 1.5796C19.3315 1.5796 22.7305 4.97856 22.7305 9.1564V14.7128H21.2152V9.1564C21.2152 5.8142 18.4959 3.09496 15.1537 3.09496C11.8115 3.09496 9.09226 5.8142 9.09226 9.1564V14.7128H7.5769V9.1564ZM20.2049 9.1564V14.7128H10.1025V9.1564C10.1025 6.3711 12.3684 4.10522 15.1537 4.10522C17.939 4.10516 20.2049 6.3711 20.2049 9.1564ZM25.2561 28.3509C25.2561 29.1866 24.5764 29.8663 23.7408 29.8663H6.56664C5.731 29.8663 5.05128 29.1866 5.05128 28.3509V17.2383C5.05128 16.4027 5.731 15.723 6.56664 15.723H7.07174H9.59736H20.71H23.2356H23.7407C24.5764 15.723 25.2561 16.4027 25.2561 17.2383V28.3509H25.2561Z" fill="#F5F5F5"></path><path id="Vector_2" d="M15.1538 18.7539C13.7613 18.7539 12.6282 19.887 12.6282 21.2795C12.6282 22.0776 13.0087 22.8264 13.6384 23.2983V25.3205C13.6384 26.1561 14.3182 26.8359 15.1538 26.8359C15.9894 26.8359 16.6692 26.1561 16.6692 25.3205V23.2983C17.2988 22.8264 17.6794 22.0776 17.6794 21.2795C17.6794 19.887 16.5463 18.7539 15.1538 18.7539ZM15.9122 22.5892C15.7556 22.6795 15.6589 22.8464 15.6589 23.0272V25.3205C15.6589 25.599 15.4322 25.8256 15.1538 25.8256C14.8753 25.8256 14.6487 25.599 14.6487 25.3205V23.0272C14.6487 22.8464 14.552 22.6795 14.3954 22.5892C13.9285 22.3209 13.6384 21.8192 13.6384 21.2795C13.6384 20.4439 14.3182 19.7642 15.1538 19.7642C15.9894 19.7642 16.6692 20.4439 16.6692 21.2795C16.6692 21.8191 16.3791 22.3208 15.9122 22.5892Z" fill="#F5F5F5"></path></g></g></g></g><defs><clipPath id="clip0_49_987"><rect width="30.3072" height="30.3072" fill="white" transform="translate(0 0.569336)"></rect></clipPath></defs></svg>