<svg xmlns="http://www.w3.org/2000/svg" width="36" height="36" viewBox="0 0 36 36" fill="none"><g id="cancelar 1"><g id="20-Cancel"><path id="Vector" d="M18 33.75C14.885 33.75 11.8398 32.8263 9.24978 31.0957C6.6597 29.365 4.64098 26.9052 3.4489 24.0273C2.25682 21.1493 1.94492 17.9825 2.55264 14.9273C3.16036 11.8721 4.6604 9.06575 6.86307 6.86307C9.06575 4.6604 11.8721 3.16036 14.9273 2.55264C17.9825 1.94492 21.1493 2.25682 24.0273 3.4489C26.9052 4.64098 29.365 6.6597 31.0957 9.24978C32.8263 11.8398 33.75 14.885 33.75 18C33.75 22.1772 32.0906 26.1832 29.1369 29.1369C26.1832 32.0906 22.1772 33.75 18 33.75ZM18 4.50001C15.33 4.50001 12.7199 5.29177 10.4998 6.77517C8.27975 8.25857 6.54942 10.367 5.52763 12.8338C4.50585 15.3006 4.23851 18.015 4.75941 20.6337C5.28031 23.2525 6.56606 25.6579 8.45407 27.5459C10.3421 29.434 12.7475 30.7197 15.3663 31.2406C17.985 31.7615 20.6994 31.4942 23.1662 30.4724C25.633 29.4506 27.7414 27.7203 29.2248 25.5002C30.7082 23.2801 31.5 20.6701 31.5 18C31.5 14.4196 30.0777 10.9858 27.5459 8.45407C25.0142 5.92232 21.5804 4.50001 18 4.50001ZM19.5863 18L25.5488 12.0488C25.6536 11.9439 25.7369 11.8193 25.7936 11.6823C25.8504 11.5452 25.8796 11.3983 25.8796 11.25C25.8796 11.1017 25.8504 10.9548 25.7936 10.8177C25.7369 10.6807 25.6536 10.5562 25.5488 10.4513C25.4439 10.3464 25.3193 10.2632 25.1823 10.2064C25.0452 10.1496 24.8983 10.1204 24.75 10.1204C24.6017 10.1204 24.4548 10.1496 24.3177 10.2064C24.1807 10.2632 24.0562 10.3464 23.9513 10.4513L18 16.4138L12.0488 10.4513C11.8369 10.2394 11.5496 10.1204 11.25 10.1204C10.9504 10.1204 10.6631 10.2394 10.4513 10.4513C10.2394 10.6631 10.1204 10.9504 10.1204 11.25C10.1204 11.5496 10.2394 11.8369 10.4513 12.0488L16.4138 18L10.4513 23.9513C10.3458 24.0558 10.2621 24.1803 10.205 24.3174C10.1479 24.4544 10.1185 24.6015 10.1185 24.75C10.1185 24.8985 10.1479 25.0456 10.205 25.1827C10.2621 25.3197 10.3458 25.4442 10.4513 25.5488C10.5558 25.6542 10.6803 25.7379 10.8174 25.795C10.9544 25.8521 11.1015 25.8815 11.25 25.8815C11.3985 25.8815 11.5456 25.8521 11.6827 25.795C11.8197 25.7379 11.9442 25.6542 12.0488 25.5488L18 19.5863L23.9513 25.5488C24.0558 25.6542 24.1803 25.7379 24.3174 25.795C24.4544 25.8521 24.6015 25.8815 24.75 25.8815C24.8985 25.8815 25.0456 25.8521 25.1827 25.795C25.3197 25.7379 25.4442 25.6542 25.5488 25.5488C25.6542 25.4442 25.7379 25.3197 25.795 25.1827C25.8521 25.0456 25.8815 24.8985 25.8815 24.75C25.8815 24.6015 25.8521 24.4544 25.795 24.3174C25.7379 24.1803 25.6542 24.0558 25.5488 23.9513L19.5863 18Z" fill="#F5F5F5"></path></g></g></svg>