<svg xmlns="http://www.w3.org/2000/svg" width="32" height="33" viewBox="0 0 32 33" fill="none"><g id="certificado-de-garantia 2"><g id="Line"><path id="Vector" d="M15.9309 7.20703C10.8065 7.20703 6.63794 11.3756 6.63794 16.5C6.63794 21.6243 10.8065 25.7929 15.9309 25.7929C21.0552 25.7929 25.2238 21.6243 25.2238 16.5C25.2238 11.3756 21.0552 7.20703 15.9309 7.20703ZM15.9309 24.4653C11.5386 24.4653 7.9655 20.8922 7.9655 16.5C7.9655 12.1077 11.5386 8.53459 15.9309 8.53459C20.3231 8.53459 23.8962 12.1077 23.8962 16.5C23.8962 20.8922 20.3231 24.4653 15.9309 24.4653Z" fill="#F5F5F5"></path><path id="Vector_2" d="M19.4441 13.3753L14.6032 18.2163L12.4167 16.0304C12.1571 15.7709 11.7376 15.7709 11.4781 16.0304C11.2186 16.29 11.2186 16.7101 11.4781 16.969L14.1339 19.6241C14.264 19.7536 14.4339 19.8186 14.6032 19.8186C14.7724 19.8186 14.943 19.7536 15.0725 19.6241L20.3827 14.3139C20.6423 14.0544 20.6423 13.6349 20.3827 13.3753C20.1232 13.1158 19.7037 13.1158 19.4441 13.3753Z" fill="#F5F5F5"></path><path id="Vector_3" d="M29.1201 14.3405C28.8466 14.138 28.7616 13.7378 28.9429 13.4497C29.5914 12.4182 30.5333 10.2516 27.29 9.45706C26.9595 9.37607 26.7145 9.03423 26.7849 8.70234C27.0962 7.246 26.6601 5.1312 23.7289 5.64629C23.395 5.70471 23.0399 5.47504 22.9741 5.14116C22.7544 4.02468 21.8079 1.76318 18.9822 3.48768C18.6914 3.66491 18.2281 3.56866 18.0914 3.30979C17.6526 2.48073 15.731 0.569039 13.7702 3.30979C13.5724 3.58658 13.1177 3.65761 12.8794 3.48702C11.593 2.56569 9.51467 2.33536 8.88674 5.13983C8.81439 5.46176 8.47188 5.70869 8.13136 5.6443C7.00691 5.43056 4.53898 5.50093 5.0773 8.70035C5.13373 9.03555 4.9087 9.40528 4.57283 9.45573C3.26319 9.65154 1.24397 10.7036 2.91869 13.4477C3.09592 13.7378 3.04481 14.1852 2.74146 14.3385C1.57918 14.9259 0.248304 17.0155 2.74146 18.6617C3.0249 18.8489 3.09592 19.2518 2.91869 19.5419C1.24397 22.2859 3.26319 23.3374 4.57283 23.5338C4.90937 23.5843 5.13373 23.954 5.0773 24.2892C4.53898 27.4886 7.00691 27.559 8.13268 27.3446C8.4732 27.2796 8.81571 27.5271 8.88807 27.8491C9.516 30.6542 11.5943 30.4232 12.8807 29.5019C13.119 29.3313 13.5737 29.4023 13.7715 29.6791C15.7323 32.4205 17.6539 30.5088 18.0927 29.6791C18.2294 29.4209 18.6928 29.324 18.9835 29.5012C21.8092 31.2257 22.7558 28.9642 22.9755 27.8477C23.0412 27.5139 23.3963 27.2842 23.7302 27.3426C26.6614 27.8577 27.0969 25.7429 26.7862 24.2866C26.7152 23.9547 26.9608 23.6128 27.2914 23.5319C30.5353 22.7373 29.5934 20.5707 28.9442 19.5392C28.763 19.2511 28.8413 18.8422 29.1201 18.6497C29.987 18.0504 31.8615 16.369 29.1201 14.3405ZM28.1722 20.9544C28.3979 21.3175 28.2585 21.8166 27.7447 21.9859C26.8035 22.2966 25.069 22.5521 25.5317 25.2995C25.62 25.8219 25.3405 26.1345 24.7418 26.0887C23.8311 26.019 21.9559 25.6506 21.4295 28.3024C21.3253 28.8262 20.8122 28.9397 20.398 28.7306C18.6111 27.8285 17.8962 27.713 16.4903 29.5079C16.2215 29.851 15.6613 29.8364 15.3732 29.5079C14.6178 28.6469 13.7622 27.3234 11.4649 28.7312C11.0653 28.9762 10.6099 28.787 10.4333 28.3038C9.97467 27.0452 9.83926 25.7037 7.12042 26.0907C6.70091 26.1505 6.25618 25.8664 6.33118 25.3015C6.4739 24.2209 6.63785 22.4857 4.11681 21.9879C3.72784 21.9109 3.42383 21.3918 3.68934 20.9564C4.69629 19.3095 4.5569 18.2794 2.89745 17.0414C2.71026 16.902 2.40559 16.3026 2.91205 15.9402C4.52836 14.7839 4.69629 13.68 3.68934 12.0325C3.42316 11.5971 3.72784 11.0773 4.11681 11.001C6.63785 10.5032 6.4739 8.76805 6.33118 7.68742C6.25618 7.12254 6.70157 6.83844 7.12042 6.89818C9.83926 7.2845 9.97467 5.94367 10.4333 4.68514C10.6092 4.20124 11.0653 4.01273 11.4649 4.25767C13.7629 5.66554 14.6185 4.34197 15.3732 3.48104C15.6613 3.15247 16.2208 3.13787 16.4903 3.48104C17.8962 5.2759 18.6111 5.16041 20.398 4.25833C20.8122 4.04924 21.3253 4.16274 21.4295 4.68647C21.9559 7.33827 23.8311 6.96987 24.7418 6.90017C25.3412 6.85437 25.62 7.16701 25.5317 7.68941C25.069 10.4375 26.8035 10.6924 27.7447 11.003C28.2585 11.1723 28.3979 11.6721 28.1722 12.0345C26.696 14.4055 28.2558 15.3481 28.9495 15.9429C29.2203 16.1752 29.3763 16.7241 29.0119 17.0082C28.1828 17.5817 26.696 18.5834 28.1722 20.9544Z" fill="#F5F5F5"></path></g></g></svg>