<svg xmlns="http://www.w3.org/2000/svg" width="35" height="35" viewBox="0 0 35 35" fill="none"><g clip-path="url(#clip0_49_730)"><path d="M30 0C29.3096 0 28.75 0.559643 28.75 1.25002V5.81623C22.3145 -0.414257 12.0467 -0.247998 5.81624 6.18742C2.87996 9.22031 1.2419 13.2786 1.25003 17.5C1.25003 18.1903 1.80967 18.75 2.50005 18.75C3.19043 18.75 3.75 18.1903 3.75 17.5C3.75154 9.90607 9.90879 3.75117 17.5028 3.75271C21.3595 3.75344 25.0385 5.37392 27.6425 8.21872L22.1051 10.0649C21.4493 10.2831 21.0944 10.9916 21.3126 11.6474C21.5308 12.3032 22.2392 12.6581 22.8951 12.4399L30.3951 9.93991C30.907 9.7694 31.2518 9.28952 31.2501 8.74995V1.24995C31.25 0.559643 30.6904 0 30 0Z" fill="#F5F5F5"></path><path d="M32.4999 16.25C31.8095 16.25 31.2498 16.8096 31.2498 17.5C31.2483 25.0939 25.0911 31.2488 17.4971 31.2473C13.6404 31.2465 9.96135 29.6261 7.3573 26.7813L12.8948 24.9351C13.5506 24.7169 13.9054 24.0084 13.6873 23.3526C13.4691 22.6968 12.7606 22.3419 12.1048 22.5601L4.60479 25.0601C4.09283 25.2306 3.74808 25.7105 3.74976 26.25V33.75C3.74976 34.4404 4.30941 35.0001 4.99979 35.0001C5.69017 35.0001 6.24981 34.4404 6.24981 33.75V29.1838C12.6853 35.4142 22.9531 35.2481 29.1835 28.8126C32.1198 25.7797 33.7579 21.7214 33.7497 17.5C33.7499 16.8096 33.1902 16.25 32.4999 16.25Z" fill="#F5F5F5"></path></g><defs><clipPath id="clip0_49_730"><rect width="35" height="35" fill="white"></rect></clipPath></defs></svg>