<svg xmlns="http://www.w3.org/2000/svg" width="41" height="41" viewBox="0 0 41 41" fill="none"><g clip-path="url(#clip0_49_716)"><path d="M24.7709 35.875H17.9376C15.5835 35.875 13.6667 33.9582 13.6667 31.6041V28.1875C13.6667 27.716 14.0494 27.3333 14.5209 27.3333C14.9924 27.3333 15.3751 27.716 15.3751 28.1875V31.6041C15.3751 33.0169 16.5248 34.1666 17.9376 34.1666H24.7709C25.2424 34.1666 25.6251 34.5493 25.6251 35.0208C25.6251 35.4923 25.2424 35.875 24.7709 35.875Z" fill="#F5F5F5"></path><path d="M17.9375 18.7916H0.854167C0.382667 18.7916 0 18.409 0 17.9375C0 17.466 0.382667 17.0833 0.854167 17.0833H17.9375C18.409 17.0833 18.7917 17.466 18.7917 17.9375C18.7917 18.409 18.409 18.7916 17.9375 18.7916Z" fill="#F5F5F5"></path><path d="M27.3334 41C25.4491 41 23.9167 39.4676 23.9167 37.5833V6.83333C23.9167 5.36417 24.8597 4.06413 26.2623 3.59604L36.5123 0.179375C36.8369 0.0632083 37.2042 0 37.5834 0C39.4677 0 41.0001 1.53237 41.0001 3.41667V34.1667C41.0001 35.6341 40.0588 36.9359 38.6562 37.4022L28.4062 40.8189C28.0765 40.9368 27.7092 41 27.3334 41ZM37.5834 1.70833C37.4057 1.70833 37.2281 1.73908 37.0709 1.79375L26.8021 5.21725C26.0966 5.45129 25.6251 6.10046 25.6251 6.83333V37.5833C25.6251 38.5246 26.3921 39.2917 27.3334 39.2917C27.5111 39.2917 27.6887 39.2609 27.8493 39.2045L38.1164 35.7827C38.8185 35.547 39.2917 34.8978 39.2917 34.1667V3.41667C39.2917 2.47538 38.5247 1.70833 37.5834 1.70833Z" fill="#F5F5F5"></path><path d="M14.5209 8.54167C14.0494 8.54167 13.6667 8.159 13.6667 7.6875V4.27083C13.6667 1.91675 15.5835 0 17.9376 0H37.5834C38.0549 0 38.4376 0.382667 38.4376 0.854167C38.4376 1.32567 38.0549 1.70833 37.5834 1.70833H17.9376C16.5248 1.70833 15.3751 2.85804 15.3751 4.27083V7.6875C15.3751 8.159 14.9924 8.54167 14.5209 8.54167Z" fill="#F5F5F5"></path><path d="M11.1041 25.625C10.8854 25.625 10.6668 25.5413 10.4994 25.3756C10.1662 25.0425 10.1662 24.5009 10.4994 24.1678L16.7296 17.9375L10.4994 11.7089C10.1662 11.3758 10.1662 10.8343 10.4994 10.5011C10.8325 10.168 11.374 10.168 11.7071 10.5011L18.5405 17.3345C18.8736 17.6676 18.8736 18.2091 18.5405 18.5422L11.7071 25.3756C11.5414 25.5413 11.3228 25.625 11.1041 25.625Z" fill="#F5F5F5"></path></g><defs><clipPath id="clip0_49_716"><rect width="41" height="41" fill="white"></rect></clipPath></defs></svg>