<svg xmlns="http://www.w3.org/2000/svg" width="147" height="29" viewBox="0 0 147 29" fill="none"><g id="Group"><g id="Group_2"><path id="Vector" d="M38.4292 23.4484L39.6298 28.28H43.4102L37.7285 6.8125H30.8462L25.1646 28.28H28.945L30.1447 23.4484H38.4292ZM33.807 8.43572H34.7661L37.5687 20.1124H31.0035L33.8061 8.43572H33.807Z" fill="#737373"></path><path id="Vector_2" d="M60.4279 25.0335C61.0886 23.852 61.4236 22.4306 61.4236 20.8082V6.81152H57.7495V20.9332C57.7495 22.3326 57.3379 23.4567 56.5251 24.2742C55.7113 25.0926 54.5311 25.5081 53.0167 25.5081C51.5024 25.5081 50.3213 25.0926 49.5084 24.2742C48.6964 23.4567 48.284 22.3326 48.284 20.9332V6.81152H44.6099V20.8082C44.6099 22.4314 44.9449 23.8528 45.6056 25.0335C46.262 26.2074 47.2262 27.1237 48.4711 27.758C49.7244 28.3956 51.2541 28.7191 53.0167 28.7191C54.7794 28.7191 56.3091 28.3956 57.5624 27.758C58.8064 27.1246 59.7706 26.2082 60.4279 25.0335Z" fill="#737373"></path><path id="Vector_3" d="M79.5971 26.106C81.0877 24.6661 81.8436 22.4821 81.8436 19.6157V15.4749C81.8436 12.6085 81.0877 10.4253 79.5971 8.98454C78.104 7.5429 75.883 6.81152 72.9945 6.81152H64.1455V9.95831H67.0518V25.1323H64.1455V28.2791H72.9945C75.883 28.2791 78.104 27.5477 79.5971 26.106ZM70.7259 10.0841H73.0583C74.8082 10.0841 76.1134 10.5495 76.9382 11.4684C77.7553 12.3796 78.1694 13.6853 78.1694 15.3499V19.7415C78.1694 21.385 77.7553 22.6848 76.9391 23.6062C76.1143 24.536 74.8082 25.0073 73.0583 25.0073H70.7259V10.085V10.0841Z" fill="#737373"></path><path id="Vector_4" d="M119.724 14.3506C119.713 11.8846 118.989 9.92014 117.57 8.51228C116.141 7.0926 114.08 6.37305 111.444 6.37305C108.808 6.37305 106.654 7.1154 105.109 8.579C103.567 10.0401 102.785 12.1709 102.785 14.9106V20.1805C102.785 22.9211 103.566 25.0511 105.109 26.5121C106.653 27.9766 108.784 28.7189 111.444 28.7189C114.104 28.7189 116.141 27.9994 117.57 26.5797C119 25.16 119.724 23.1762 119.724 20.6831V20.4897H116.113V20.808C116.113 22.1382 115.726 23.2631 114.964 24.1516C114.192 25.0519 113.007 25.5088 111.443 25.5088C109.88 25.5088 108.674 25.0232 107.787 24.0646C106.905 23.1128 106.458 21.8274 106.458 20.2439V14.8481C106.458 13.2434 106.905 11.9521 107.788 11.0105C108.675 10.0629 109.905 9.58317 111.443 9.58317C112.981 9.58317 114.191 10.0342 114.963 10.9235C115.725 11.8026 116.112 12.9326 116.112 14.2839V14.3515H119.723L119.724 14.3506Z" fill="#737373"></path><path id="Vector_5" d="M126.518 6.81152H122.844V28.2791H126.518V6.81152Z" fill="#737373"></path><path id="Vector_6" d="M142.019 23.4484L143.22 28.28H147L141.318 6.8125H134.436L128.754 28.28H132.535L133.735 23.4484H142.019ZM137.398 8.43572H138.357L141.159 20.1124H134.594L137.398 8.43572Z" fill="#737373"></path><g id="Group_3"><path id="Vector_7" d="M92.2138 0.914062L90.27 4.50001H93.2741L96.1626 0.914062H92.2138Z" fill="#737373"></path><path id="Vector_8" d="M88.8194 20.9427L96.8037 24.8277L97.6616 28.281H101.442L95.7604 6.81348H88.8772L83.1956 28.281H86.976L88.1298 23.6369L88.8186 20.9436L88.8194 20.9427ZM91.8397 8.4367H92.7988L95.6779 20.3921L89.6536 17.4615L91.8388 8.4367H91.8397Z" fill="#737373"></path></g></g><g id="Group_4"><path id="Vector_9" d="M5.04492 18.3789L6.25234 19.5773L10.6314 15.227V18.1365L7.714 21.0341L8.92142 22.2334L11.4851 19.6871L14.0496 22.2334L15.2561 21.0341L12.3388 18.1365V15.227L16.7186 19.5773L17.9252 18.3789L11.4851 11.9814L5.04492 18.3789Z" fill="#EE5545"></path><path id="Vector_10" d="M11.4849 6.18457C5.15194 6.18457 0 11.3025 0 17.5927C0 23.8829 5.15194 29 11.4849 29C17.8179 29 22.9699 23.8829 22.9699 17.5927C22.9699 11.3025 17.8179 6.18542 11.4849 6.18542V6.18457ZM11.4849 27.3042C6.09322 27.3042 1.70654 22.9471 1.70654 17.5919C1.70654 12.2366 6.09322 7.87958 11.4849 7.87958C16.8767 7.87958 21.2633 12.2366 21.2633 17.5919C21.2633 22.9471 16.8767 27.3042 11.4849 27.3042Z" fill="#EE5545"></path></g></g></svg>