<svg xmlns="http://www.w3.org/2000/svg" width="29" height="39" viewBox="0 0 29 39" fill="none"><path d="M25.55 18.2V11.0499C25.55 4.95688 20.5931 0 14.5 0C8.40686 0 3.44998 4.95689 3.44998 11.05V18.2001C1.65803 18.2001 0.199951 19.6581 0.199951 21.4501V35.7501C0.199951 37.542 1.65803 39.0001 3.44998 39.0001H25.55C27.3419 39.0001 28.8 37.542 28.8 35.7501V21.45C28.8 19.6581 27.342 18.2 25.55 18.2ZM4.75 11.05C4.75 5.67389 9.12387 1.30003 14.5 1.30003C19.8761 1.30003 24.25 5.67389 24.25 11.05V18.2001H22.3V11.05C22.3 6.74921 18.8008 3.25003 14.5 3.25003C10.1992 3.25003 6.7 6.74921 6.7 11.05V18.2001H4.75V11.05ZM21 11.05V18.2001H8.00003V11.05C8.00003 7.46583 10.9158 4.55005 14.5 4.55005C18.0842 4.54997 21 7.46583 21 11.05ZM27.5 35.75C27.5 36.8253 26.6253 37.7 25.55 37.7H3.44998C2.37466 37.7 1.49998 36.8253 1.49998 35.75V21.45C1.49998 20.3747 2.37466 19.5 3.44998 19.5H4.09995H7.34998H21.65H24.9H25.55C26.6253 19.5 27.5 20.3747 27.5 21.45V35.75H27.5Z" fill="#F5F5F5"></path><path d="M14.5 23.4C12.7081 23.4 11.25 24.8581 11.25 26.65C11.25 27.6771 11.7397 28.6406 12.55 29.2478V31.8501C12.55 32.9254 13.4247 33.8001 14.5 33.8001C15.5753 33.8001 16.45 32.9254 16.45 31.8501V29.2478C17.2603 28.6406 17.7501 27.6771 17.7501 26.65C17.7501 24.8581 16.292 23.4 14.5 23.4ZM15.4759 28.3354C15.2744 28.4515 15.15 28.6664 15.15 28.899V31.8501C15.15 32.2084 14.8583 32.5 14.5 32.5C14.1417 32.5 13.8501 32.2084 13.8501 31.8501V28.899C13.8501 28.6664 13.7257 28.4515 13.5241 28.3354C12.9233 27.9901 12.55 27.3445 12.55 26.65C12.55 25.5747 13.4247 24.7 14.5 24.7C15.5753 24.7 16.45 25.5747 16.45 26.65C16.45 27.3444 16.0768 27.99 15.4759 28.3354Z" fill="#F5F5F5"></path></svg>