<svg xmlns="http://www.w3.org/2000/svg" width="257" height="55" viewBox="0 0 257 55" fill="none"><path d="M34.4499 45.9925L32.1721 53.9H0.349854V30.5403V13.2H2.98496H9.35684V30.8142L9.44617 45.9925H34.4499Z" fill="#F5F5F5"></path><path d="M75.1499 20.8544H49.5394L52.528 30.0263H72.8862V37.0811H52.528L49.532 46.253H75.1499V53.9H38.8499L43.3994 33.55L38.8499 13.2H75.1499V20.8544Z" fill="#F5F5F5"></path><path d="M124.635 33.3783V53.9626H117.933L118 44.8646L107.058 54.8507C106.754 54.8507 105.116 55 104.812 55C100.179 54.9701 97.0505 54.5373 94.6561 53.6267C92.106 52.6565 89.8746 51.2533 87.9546 49.4098C86.0346 47.5738 84.5445 45.3199 83.477 42.6629C82.4095 39.9984 81.7498 37.013 81.7498 33.6321C81.7498 30.2511 82.417 27.1986 83.4993 24.5267C84.5816 21.8622 86.0939 19.6157 88.0287 17.7797C89.9635 15.9437 92.232 14.5405 94.834 13.5628C97.436 12.5926 100.268 12.1 103.337 12.1C107.34 12.1 110.809 12.7866 113.738 14.1674C116.673 15.5481 119.053 17.4438 120.869 19.8695C122.685 22.2951 124.02 25.0864 124.457 28.2136L115.695 28.1912C115.361 26.5045 114.635 25.0491 113.523 23.84C112.403 22.6309 110.987 21.6905 109.267 21.0338C107.548 20.3695 105.576 20.0411 103.337 20.0411C100.705 20.0411 98.4294 20.5636 96.5094 21.6159C94.5968 22.6608 93.1067 24.1983 92.0615 26.2134C91.0088 28.236 90.4825 30.6989 90.4825 33.5948C90.4825 36.4906 91.031 38.9759 92.1356 41.0358C93.2402 43.0957 94.8043 44.6631 96.8356 45.7453C98.8668 46.8275 102.106 47.3723 104.871 47.3723L113.53 40.2895H104.449V33.3783H124.65H124.635Z" fill="#4AC8DD"></path><path d="M131.25 13.2H138.95V53.9H131.25V13.2Z" fill="#F5F5F5"></path><path d="M174.386 13.2H162.913L144.45 53.9H153.97L157.484 46.154H179.897L183.329 53.8556H192.85L174.386 13.2ZM160.768 38.4598L168.653 20.3684L176.568 38.4153L160.768 38.4598Z" fill="#F5F5F5"></path><path d="M216.827 55C212.266 55 208.271 54.0988 204.841 52.3039C201.412 50.5089 198.738 48.0064 196.821 44.7963C194.905 41.5863 193.95 37.84 193.95 33.55C193.95 29.26 194.905 25.5137 196.821 22.3036C198.738 19.0936 201.412 16.5911 204.841 14.7961C208.271 13.0012 212.266 12.1 216.827 12.1C221.387 12.1 224.729 13.0012 228.159 14.7961C231.588 16.5911 234.262 19.0936 236.178 22.3036C238.095 25.5137 239.05 29.26 239.05 33.55C239.05 37.84 238.095 41.5863 236.178 44.7963C234.262 48.0064 231.588 50.5089 228.159 52.3039C224.729 54.0988 221.387 55 216.827 55ZM216.827 46.6956C219.684 46.6956 221.476 46.1668 223.547 45.1017C225.618 44.0367 227.219 42.5173 228.35 40.5361C229.481 38.555 230.046 36.2312 230.046 33.55C230.046 30.8687 229.481 28.545 228.35 26.5639C227.219 24.5827 225.618 22.7282 223.547 21.6631C221.476 20.5981 219.684 20.0693 216.827 20.0693C213.97 20.0693 211.554 20.5981 209.461 21.6631C207.375 22.7282 205.759 24.5827 204.628 26.5639C203.497 28.545 202.932 30.8687 202.932 33.55C202.932 36.2312 203.497 38.555 204.628 40.5361C205.759 42.5173 207.368 44.0367 209.461 45.1017C211.546 46.1668 214.007 46.6956 216.827 46.6956Z" fill="#F5F5F5"></path><path d="M250.05 26.4C249.102 26.4 248.226 26.2386 247.417 25.9157C246.607 25.5928 245.907 25.1315 245.324 24.5319C244.733 23.9322 244.274 23.2326 243.946 22.4331C243.617 21.6336 243.45 20.7571 243.45 19.8038C243.45 18.8506 243.617 17.9741 243.946 17.1746C244.274 16.3751 244.733 15.6755 245.324 15.0835C245.915 14.4916 246.615 14.0303 247.417 13.6997C248.226 13.3691 249.102 13.2 250.05 13.2C250.998 13.2 251.873 13.3691 252.682 13.6997C253.492 14.0303 254.192 14.4916 254.775 15.0835C255.366 15.6755 255.826 16.3751 256.154 17.1746C256.482 17.9741 256.65 18.8506 256.65 19.8038C256.65 20.7571 256.482 21.6336 256.154 22.4331C255.826 23.2326 255.366 23.9322 254.775 24.5319C254.185 25.1315 253.485 25.5928 252.682 25.9157C251.873 26.2386 250.998 26.4 250.05 26.4ZM250.05 25.1623C251.078 25.1623 251.99 24.9316 252.784 24.4704C253.579 24.0091 254.207 23.371 254.666 22.5561C255.125 21.7412 255.352 20.8186 255.352 19.7961C255.352 18.7737 255.125 17.8511 254.666 17.0439C254.207 16.2367 253.579 15.5986 252.784 15.1373C251.99 14.6761 251.078 14.4454 250.05 14.4454C249.021 14.4454 248.132 14.6761 247.329 15.1373C246.527 15.5986 245.9 16.2367 245.441 17.0439C244.981 17.8511 244.755 18.7737 244.755 19.7961C244.755 20.8186 244.981 21.7412 245.441 22.5561C245.9 23.371 246.527 24.0091 247.329 24.4704C248.132 24.9316 249.036 25.1623 250.05 25.1623ZM247.111 15.9369H248.635V23.5863H247.111V15.9369ZM250.684 20.6803H248.241V19.4425H250.56C250.932 19.4425 251.224 19.3426 251.435 19.1427C251.647 18.9428 251.756 18.6661 251.756 18.3201C251.756 17.9741 251.647 17.6974 251.435 17.4975C251.224 17.2976 250.932 17.1977 250.56 17.1977H248.241V15.9445H250.684C251.45 15.9445 252.077 16.1675 252.566 16.6057C253.054 17.0439 253.295 17.6205 253.295 18.3278C253.295 19.0351 253.054 19.604 252.566 20.0422C252.077 20.4727 251.45 20.6956 250.684 20.6956V20.6803ZM249.35 20.0114H250.976L253.419 23.5863H251.61L249.35 20.0114Z" fill="#F5F5F5"></path><path d="M153.25 8.57826C153.622 5.93826 154.613 3.84567 156.222 2.3074C157.823 0.769135 160.132 0 163.134 0C164.303 0 165.413 0.145505 166.478 0.436528C167.543 0.727552 168.571 1.0463 169.576 1.38583C170.574 1.73228 171.513 2.04409 172.391 2.33512C173.27 2.62614 174.082 2.77165 174.834 2.77165C175.751 2.77165 176.503 2.55685 177.084 2.12031C177.665 1.68378 178.022 1.05322 178.149 0.221727H185.15C184.778 2.82708 183.772 4.91276 182.148 6.46489C180.525 8.01701 178.208 8.8 175.207 8.8C174.082 8.8 172.972 8.65449 171.892 8.36346C170.812 8.07244 169.777 7.74678 168.794 7.38646C167.811 7.02615 166.872 6.70047 165.979 6.40945C165.085 6.11843 164.281 5.97291 163.573 5.97291C162.657 5.97291 161.905 6.20157 161.324 6.65196C160.743 7.10236 160.385 7.74677 160.259 8.57826H153.257H153.25Z" fill="#F5F5F5"></path></svg>