<svg xmlns="http://www.w3.org/2000/svg" width="151" height="151" viewBox="0 0 151 151" fill="none"><path opacity="0.2" d="M141.282 85.7233C135.913 121.776 102.333 146.651 66.2803 141.282C30.2271 135.913 5.35269 102.333 10.7218 66.2801C16.0909 30.2269 49.6703 5.3525 85.7235 10.7216C121.777 16.0907 146.651 49.6701 141.282 85.7233Z" fill="#D9D9D9"></path><path opacity="0.5" fill-rule="evenodd" clip-rule="evenodd" d="M65.9845 140.293C101.491 145.58 134.562 121.083 139.85 85.576C145.137 50.069 120.64 16.9984 85.133 11.7107C49.6261 6.42294 16.5555 30.9205 11.2678 66.4274C5.98002 101.934 30.4775 135.005 65.9845 140.293ZM65.8372 141.282C101.89 146.651 135.47 121.776 140.839 85.7233C146.208 49.6701 121.334 16.0907 85.2803 10.7216C49.2271 5.3525 15.6477 30.2269 10.2787 66.2801C4.90958 102.333 29.784 135.913 65.8372 141.282Z" fill="white"></path><path d="M94.9809 77.6115L92.1671 96.506L85.9837 95.5852L87.2898 87.2431L75.831 94.9065C75.5484 94.8644 74.0153 94.7764 73.7369 94.7349C69.4694 94.0696 66.636 93.2438 64.5497 92.0786C62.3309 90.8342 60.4611 89.2421 58.9424 87.2899C57.4229 85.3418 56.3553 83.0699 55.734 80.4819C55.1127 77.8939 54.9106 75.058 55.3721 71.9595C55.8335 68.861 56.8666 66.1452 58.2329 63.8447C59.5979 61.5525 61.2979 59.6927 63.3314 58.2738C65.365 56.8549 67.652 55.8733 70.1823 55.3403C72.7173 54.8038 75.398 54.7439 78.2279 55.1653C81.9222 55.7155 85.0278 56.8242 87.5447 58.4914C90.0658 60.1592 91.9956 62.2322 93.3431 64.7073C94.6864 67.1817 95.5385 69.9317 95.5107 72.8567L87.4306 71.6364C87.3541 70.0393 86.8833 68.6087 86.0187 67.3406C85.1536 66.0767 83.9728 65.0208 82.4758 64.1772C80.983 63.3342 79.2039 62.7589 77.1428 62.452C74.7118 62.09 72.5414 62.2599 70.6281 62.957C68.7189 63.6547 67.1376 64.8604 65.8938 66.567C64.6452 68.2771 63.8268 70.4637 63.4298 73.1297C63.0328 75.7956 63.201 78.1461 63.9337 80.1853C64.6706 82.2251 65.9018 83.8837 67.6285 85.1526C69.3546 86.4258 72.2682 87.3698 74.8196 87.7497L83.7788 82.4392L75.3971 81.191L76.3416 74.8484L94.9791 77.624L94.9809 77.6115Z" fill="#F5F5F5"></path><path d="M103.116 67.3658C102.484 67.2717 101.914 67.0805 101.404 66.7962C100.895 66.5078 100.473 66.1474 100.134 65.7101C99.796 65.2729 99.5589 64.7827 99.4142 64.2425C99.2695 63.7023 99.2445 63.1289 99.3343 62.5258C99.4241 61.9227 99.6151 61.3815 99.9109 60.9069C100.207 60.4323 100.58 60.0372 101.027 59.7169C101.477 59.4014 101.987 59.1754 102.558 59.0479C103.13 58.9163 103.731 58.8996 104.363 58.9936C104.994 59.0877 105.565 59.2789 106.074 59.5715C106.582 59.864 107.004 60.2245 107.343 60.6576C107.682 61.0907 107.919 61.5809 108.064 62.1211C108.209 62.6613 108.234 63.2347 108.144 63.8378C108.054 64.4408 107.863 64.982 107.567 65.4566C107.271 65.9312 106.898 66.3305 106.451 66.6508C106 66.9705 105.49 67.1964 104.92 67.3198C104.348 67.4473 103.748 67.4598 103.116 67.3658ZM103.232 66.5839C103.918 66.686 104.547 66.6308 105.122 66.4147C105.698 66.2028 106.174 65.8571 106.558 65.3872C106.943 64.9172 107.184 64.3537 107.28 63.7049C107.377 63.0561 107.31 62.4509 107.079 61.8894C106.848 61.332 106.492 60.8667 106.004 60.4922C105.516 60.1219 104.931 59.8818 104.246 59.7797C103.56 59.6776 102.94 59.734 102.364 59.9501C101.784 60.1656 101.305 60.5023 100.921 60.9723C100.537 61.438 100.296 61.9974 100.199 62.6504C100.102 63.3033 100.169 63.9085 100.4 64.47C100.63 65.0315 100.989 65.5016 101.482 65.8726C101.974 66.2477 102.555 66.483 103.232 66.5839ZM102.143 60.44L103.156 60.591L102.434 65.4404L101.42 65.2895L102.143 60.44ZM104.08 63.8022L102.447 63.559L102.563 62.7771L104.113 63.0079C104.358 63.0444 104.563 63.0111 104.724 62.9033C104.884 62.7954 104.981 62.6312 105.014 62.4108C105.046 62.1903 105.002 62.0052 104.88 61.8552C104.758 61.7052 104.572 61.6137 104.326 61.5772L102.776 61.3464L102.895 60.5479L104.528 60.7911C105.04 60.8672 105.438 61.0711 105.721 61.398C106.003 61.7249 106.111 62.1151 106.044 62.5642C105.977 63.0134 105.761 63.3511 105.396 63.5774C105.031 63.8036 104.591 63.8783 104.08 63.8022ZM103.25 63.2449L104.334 63.4065L105.63 65.9163L104.425 65.7369L103.254 63.2456L103.25 63.2449Z" fill="#F5F5F5"></path><path d="M50.3129 26.9462L54.4357 34.6382L53.5493 35.1133L49.4265 27.4213L50.3129 26.9462Z" fill="white"></path><path d="M48.5805 38.4756C48.241 38.714 47.8881 38.8664 47.5216 38.9328C47.1535 38.9969 46.8024 38.9641 46.4682 38.8343C46.1324 38.7021 45.842 38.4617 45.5971 38.113C45.3816 37.8061 45.2673 37.5149 45.2543 37.2394C45.2397 36.9615 45.2951 36.6969 45.4207 36.4456C45.5462 36.1943 45.7122 35.9562 45.9187 35.7312C46.126 35.5024 46.3426 35.2843 46.5685 35.0771C46.8645 34.8066 47.1064 34.5899 47.2939 34.4269C47.4822 34.26 47.604 34.1171 47.6595 33.9983C47.7172 33.8779 47.6996 33.7515 47.6065 33.619L47.5869 33.5911C47.3452 33.247 47.0633 33.0458 46.7411 32.9874C46.4212 32.9274 46.0718 33.0304 45.6929 33.2966C45.3 33.5725 45.0524 33.8749 44.95 34.2037C44.8477 34.5325 44.8197 34.8264 44.8662 35.0853L43.8892 35.355C43.8001 34.9315 43.8081 34.5475 43.9132 34.2029C44.019 33.8543 44.1849 33.5468 44.411 33.2805C44.6377 33.0101 44.8859 32.7803 45.1556 32.5909C45.3276 32.47 45.5399 32.3522 45.7925 32.2373C46.0457 32.1184 46.3211 32.0483 46.6185 32.0268C46.9182 32.0038 47.2268 32.07 47.5443 32.2254C47.8617 32.3809 48.1699 32.6713 48.4687 33.0967L50.9473 36.6258L50.1243 37.2038L49.6149 36.4785L49.573 36.5078C49.5988 36.6633 49.5932 36.853 49.5561 37.0769C49.519 37.3009 49.425 37.5353 49.2741 37.7801C49.1232 38.0249 48.892 38.2568 48.5805 38.4756ZM48.1868 37.6481C48.5122 37.4195 48.7417 37.1629 48.875 36.8783C49.0107 36.5921 49.0645 36.3078 49.0364 36.0255C49.0106 35.7416 48.9193 35.4881 48.7625 35.2649L48.2335 34.5117C48.228 34.578 48.1782 34.6703 48.0842 34.7884C47.9908 34.9026 47.8764 35.0264 47.7409 35.1597C47.6061 35.2891 47.4732 35.4137 47.3421 35.5335C47.2117 35.6494 47.1064 35.7442 47.0262 35.8178C46.832 35.9959 46.6639 36.1817 46.522 36.3751C46.3808 36.5645 46.2965 36.7609 46.2691 36.9641C46.2424 37.1633 46.3025 37.3676 46.4495 37.5768C46.6503 37.8628 46.908 38.0047 47.2224 38.0026C47.5375 37.9965 47.859 37.8783 48.1868 37.6481Z" fill="white"></path><path d="M40.6713 36.2657L41.2533 36.8884L38.775 39.2044L38.193 38.5817L40.6713 36.2657ZM37.8446 36.761L38.5794 36.0743L42.839 40.6324C43.033 40.84 43.2086 40.9675 43.3658 41.015C43.5231 41.0586 43.666 41.0533 43.7944 40.9994C43.923 40.9414 44.0413 40.862 44.1492 40.7612C44.2301 40.6855 44.2927 40.6193 44.3368 40.5625C44.379 40.5036 44.4128 40.4565 44.4381 40.4212L45.2044 40.9416C45.172 41.0068 45.1199 41.0905 45.0481 41.1926C44.9783 41.2967 44.8748 41.4128 44.7379 41.5409C44.5303 41.7348 44.2852 41.8803 44.0025 41.9773C43.7219 42.0723 43.4309 42.0896 43.1294 42.0291C42.83 41.9667 42.5504 41.7965 42.2905 41.5183L37.8446 36.761Z" fill="white"></path><path d="M40.7546 45.4965L35.8731 41.1361L36.5431 40.386L41.4246 44.7465L40.7546 45.4965ZM35.4002 40.0279C35.2696 40.1741 35.1072 40.2557 34.913 40.2727C34.7207 40.2876 34.5546 40.2326 34.4147 40.1077C34.2749 39.9827 34.2016 39.8239 34.1947 39.6311C34.1898 39.4363 34.2526 39.2657 34.3832 39.1195C34.5138 38.9733 34.6752 38.8928 34.8675 38.8779C35.0617 38.8609 35.2288 38.9149 35.3686 39.0398C35.5084 39.1647 35.5808 39.3246 35.5858 39.5195C35.5926 39.7123 35.5307 39.8818 35.4002 40.0279Z" fill="white"></path><path d="M39.2989 51.674C39.0238 52.0744 38.7358 52.3832 38.4349 52.6005C38.1363 52.8193 37.838 52.9676 37.5398 53.0454C37.2456 53.1225 36.9662 53.1528 36.7017 53.1366L36.6917 52.1577C36.8415 52.1503 37.0191 52.1327 37.2243 52.1049C37.4319 52.0786 37.651 51.9981 37.8814 51.8634C38.1157 51.728 38.3447 51.4976 38.5683 51.1721C38.8675 50.7366 39.0091 50.3047 38.993 49.8766C38.9769 49.4485 38.744 49.08 38.2945 48.7712L37.1986 48.0183L37.1503 48.0886C37.2069 48.217 37.2691 48.3873 37.3371 48.5994C37.4043 48.8076 37.4225 49.0545 37.3917 49.3401C37.3602 49.6218 37.2238 49.9382 36.9825 50.2895C36.6833 50.725 36.3116 51.0453 35.8675 51.2503C35.425 51.4529 34.9378 51.5198 34.4061 51.4509C33.876 51.3797 33.3299 51.151 32.768 50.765C32.2153 50.3853 31.8009 49.9576 31.5247 49.4817C31.2461 49.0042 31.1134 48.515 31.1267 48.014C31.1377 47.5114 31.2992 47.033 31.6112 46.5787C31.8525 46.2275 32.1025 45.989 32.3612 45.8634C32.6191 45.7338 32.8596 45.6647 33.0827 45.656C33.3051 45.6433 33.484 45.6387 33.6195 45.6422L33.6774 45.5579L32.8204 44.9691L33.3706 44.1683L38.9201 47.9809C39.3838 48.2994 39.6884 48.6637 39.8339 49.074C39.9835 49.4834 40.0047 49.9116 39.8976 50.3585C39.7944 50.8046 39.5949 51.2431 39.2989 51.674ZM36.3151 49.6655C36.5436 49.333 36.6605 48.9997 36.6659 48.6657C36.6714 48.3317 36.5723 48.0068 36.3687 47.6911C36.165 47.3755 35.8642 47.0809 35.4661 46.8074C35.0774 46.5404 34.6942 46.3632 34.3164 46.276C33.9385 46.1888 33.5865 46.202 33.2603 46.3157C32.934 46.4293 32.6551 46.6547 32.4234 46.9919C32.1821 47.3432 32.07 47.697 32.0871 48.0534C32.1058 48.4075 32.2248 48.746 32.4441 49.069C32.665 49.3896 32.9581 49.6754 33.3234 49.9264C33.698 50.1838 34.0696 50.3529 34.438 50.4336C34.8057 50.5105 35.1512 50.4893 35.4743 50.3701C35.7968 50.2469 36.077 50.0121 36.3151 49.6655Z" fill="white"></path><path d="M34.1027 55.4944L28.2814 52.502L28.7412 51.6075L34.5625 54.6L34.1027 55.4944ZM27.545 51.5484C27.4553 51.7228 27.3187 51.8426 27.135 51.9079C26.9526 51.9706 26.778 51.9591 26.6113 51.8734C26.4445 51.7877 26.3336 51.6524 26.2785 51.4676C26.2247 51.2802 26.2426 51.0993 26.3322 50.925C26.4218 50.7507 26.5578 50.6321 26.7402 50.5694C26.9239 50.5041 27.0991 50.5143 27.2659 50.6C27.4326 50.6857 27.5429 50.8223 27.5967 51.0096C27.6518 51.1945 27.6346 51.3741 27.545 51.5484Z" fill="white"></path><path d="M31.8292 61.3131C31.6442 61.8262 31.3513 62.2325 30.9504 62.5319C30.5469 62.8303 30.0673 63.0047 29.5116 63.055C28.9533 63.1044 28.348 63.0115 27.6959 62.7765C27.0492 62.5433 26.5279 62.2301 26.1322 61.8368C25.7364 61.4435 25.4802 61.0023 25.3636 60.5133C25.2469 60.0243 25.282 59.5206 25.4689 59.0021C25.6135 58.6012 25.7944 58.3086 26.0119 58.1243C26.2276 57.9363 26.4418 57.8112 26.6545 57.749C26.8655 57.6831 27.037 57.6347 27.1689 57.6037L27.1978 57.5235L24.1672 56.431L24.5082 55.4849L32.7183 58.4446L32.3888 59.3586L31.4427 59.0175L31.4023 59.1298C31.4895 59.2397 31.5955 59.3897 31.7203 59.5796C31.8424 59.7686 31.9274 60.0061 31.9753 60.2921C32.0205 60.5772 31.9718 60.9175 31.8292 61.3131ZM31.0256 60.8784C31.1624 60.4989 31.1791 60.1425 31.0758 59.8093C30.9697 59.4752 30.7649 59.1763 30.4613 58.9129C30.1549 58.6484 29.7693 58.4324 29.3042 58.2648C28.8446 58.0991 28.4183 58.0209 28.0253 58.0302C27.6297 58.0386 27.2885 58.1391 27.0017 58.3316C26.7121 58.5232 26.498 58.8114 26.3593 59.1962C26.2148 59.5971 26.1972 59.9683 26.3067 60.3097C26.4144 60.6475 26.6192 60.9464 26.9212 61.2062C27.2214 61.4624 27.588 61.6685 28.0209 61.8246C28.4592 61.9826 28.8815 62.0593 29.2878 62.0548C29.6924 62.0467 30.048 61.9483 30.3545 61.7599C30.6593 61.5678 30.883 61.2739 31.0256 60.8784Z" fill="white"></path><path d="M29.4288 73.3085C29.3823 73.8976 29.2014 74.4034 28.8859 74.8259C28.5707 75.2456 28.1512 75.5602 27.6274 75.7696C27.1038 75.9762 26.505 76.053 25.831 75.9998C25.1513 75.9461 24.5677 75.7761 24.0802 75.4897C23.5929 75.2005 23.2265 74.8239 22.981 74.36C22.7357 73.8932 22.6363 73.3653 22.6827 72.7763C22.7292 72.1872 22.9101 71.6828 23.2253 71.2631C23.5408 70.8406 23.9617 70.5261 24.4881 70.3197C25.0147 70.1105 25.6179 70.0327 26.2976 70.0863C26.9716 70.1395 27.5509 70.3106 28.0353 70.5996C28.52 70.8858 28.885 71.2622 29.1303 71.729C29.3758 72.1929 29.4753 72.7194 29.4288 73.3085ZM28.5282 73.2375C28.5635 72.79 28.4779 72.4128 28.2713 72.1058C28.0647 71.7988 27.7799 71.5612 27.417 71.3929C27.0541 71.2246 26.6546 71.1233 26.2185 71.0889C25.7823 71.0545 25.3704 71.0918 24.9828 71.2009C24.5952 71.3099 24.2739 71.4997 24.0189 71.7703C23.7638 72.0408 23.6187 72.3998 23.5834 72.8473C23.5481 73.2948 23.6351 73.6721 23.8446 73.9793C24.054 74.2865 24.3416 74.5244 24.7073 74.6929C25.073 74.8613 25.474 74.9628 25.9101 74.9972C26.3462 75.0316 26.7567 74.9942 27.1415 74.8849C27.5263 74.7756 27.8448 74.5856 28.097 74.3148C28.3492 74.0441 28.4929 73.6849 28.5282 73.2375Z" fill="white"></path><path d="M29.6675 82.2796C29.7242 82.8221 29.6372 83.3154 29.4065 83.7594C29.173 84.2036 28.8171 84.5693 28.3386 84.8564C27.8574 85.1438 27.272 85.3235 26.5826 85.3955C25.8988 85.467 25.2932 85.4117 24.7657 85.2297C24.2383 85.0478 23.8157 84.762 23.4979 84.3725C23.1801 83.983 22.9926 83.5141 22.9353 82.966C22.891 82.5421 22.9267 82.1999 23.0423 81.9393C23.1548 81.6762 23.2932 81.4704 23.4576 81.3218C23.6189 81.1707 23.7523 81.0525 23.8576 80.9672L23.8487 80.8825L20.6446 81.2173L20.5401 80.2171L29.2201 79.31L29.3211 80.2764L28.3208 80.3809L28.3332 80.4996C28.4596 80.5606 28.6203 80.6495 28.8153 80.7662C29.0074 80.8833 29.1873 81.0601 29.3549 81.2968C29.5196 81.5338 29.6238 81.8614 29.6675 82.2796ZM28.7548 82.2379C28.7129 81.8367 28.5729 81.5085 28.3349 81.2535C28.094 80.9987 27.7796 80.8188 27.3916 80.7136C27.0007 80.6088 26.5595 80.5821 26.0678 80.6334C25.5818 80.6842 25.164 80.7993 24.8143 80.9787C24.4617 81.1583 24.1982 81.3972 24.0237 81.6954C23.8463 81.9939 23.7789 82.3465 23.8214 82.7534C23.8657 83.1772 24.0114 83.519 24.2585 83.7789C24.5025 84.0362 24.8169 84.2161 25.2018 84.3187C25.5836 84.4188 26.0034 84.4449 26.4611 84.397C26.9245 84.3486 27.3381 84.234 27.702 84.0532C28.0627 83.8698 28.3401 83.6266 28.5341 83.3235C28.7249 83.0179 28.7985 82.6561 28.7548 82.2379Z" fill="white"></path><path d="M31.4871 90.6305C31.6025 91.0289 31.6322 91.4121 31.5763 91.7803C31.5175 92.1493 31.3726 92.4708 31.1414 92.7449C30.9076 93.0197 30.586 93.2164 30.1767 93.335C29.8165 93.4394 29.504 93.453 29.2391 93.376C28.9715 93.2997 28.7392 93.1615 28.5421 92.9613C28.3451 92.761 28.1737 92.5267 28.0279 92.2584C27.8786 91.9882 27.7426 91.7126 27.6198 91.4317C27.4599 91.0639 27.3334 90.7649 27.24 90.5346C27.1431 90.3024 27.0475 90.1408 26.9531 90.0498C26.8579 89.9562 26.7326 89.9318 26.5771 89.9769L26.5443 89.9864C26.1405 90.1034 25.8587 90.3049 25.699 90.5907C25.5385 90.8739 25.5227 91.2378 25.6516 91.6826C25.7852 92.1437 25.9909 92.476 26.2688 92.6795C26.5466 92.8829 26.8155 93.0046 27.0756 93.0446L27.0138 94.0563C26.5844 94.0033 26.2237 93.8712 25.9318 93.66C25.6364 93.4469 25.3993 93.1902 25.2206 92.89C25.0384 92.5879 24.9015 92.2785 24.8097 91.962C24.7512 91.7601 24.7086 91.5211 24.6818 91.2449C24.6515 90.9667 24.6744 90.6835 24.7506 90.3953C24.826 90.1043 24.9887 89.8338 25.2386 89.5839C25.4886 89.334 25.8633 89.1367 26.3626 88.992L30.5047 87.7917L30.7846 88.7576L29.9333 89.0043L29.9475 89.0535C30.1029 89.0794 30.2806 89.1463 30.4804 89.254C30.6802 89.3617 30.8714 89.5267 31.0541 89.7488C31.2368 89.9709 31.3811 90.2648 31.4871 90.6305ZM30.5767 90.7346C30.466 90.3526 30.2976 90.0523 30.0716 89.8339C29.8449 89.6127 29.5934 89.4696 29.3173 89.4047C29.0403 89.3371 28.7709 89.3412 28.5089 89.4171L27.6249 89.6733C27.6858 89.7 27.757 89.777 27.8382 89.9043C27.9159 90.0296 27.9959 90.178 28.0781 90.3494C28.1568 90.5189 28.2316 90.685 28.3024 90.8479C28.3697 91.0088 28.4253 91.1391 28.469 91.2388C28.5744 91.4804 28.6956 91.6996 28.8326 91.8966C28.966 92.0916 29.1244 92.235 29.3077 92.3268C29.4876 92.4166 29.7003 92.426 29.9459 92.3548C30.2815 92.2576 30.4993 92.0599 30.5992 91.7618C30.6957 91.4617 30.6881 91.1193 30.5767 90.7346Z" fill="white"></path><path d="M34.1411 97.2997C34.4084 97.8521 34.508 98.3909 34.4402 98.916C34.3723 99.4412 34.1615 99.9219 33.8076 100.358C33.4538 100.794 32.9828 101.155 32.3946 101.439C31.7961 101.729 31.2148 101.874 30.6507 101.876C30.0827 101.876 29.5737 101.74 29.1237 101.469C28.6698 101.196 28.3142 100.794 28.0569 100.262C27.8565 99.8477 27.7526 99.4372 27.7452 99.0305C27.7378 98.6238 27.8208 98.2476 27.9943 97.9017C28.1679 97.5558 28.4264 97.2682 28.7699 97.0389L29.2079 97.9442C28.9727 98.1432 28.8091 98.4117 28.717 98.7497C28.6211 99.0865 28.6697 99.4543 28.8627 99.8532C29.0334 100.206 29.2752 100.471 29.588 100.648C29.897 100.824 30.2536 100.905 30.6578 100.893C31.0582 100.879 31.4809 100.764 31.9259 100.549C32.3811 100.329 32.7429 100.065 33.0112 99.7588C33.2782 99.4497 33.4414 99.1183 33.5007 98.7646C33.5587 98.4083 33.5011 98.0512 33.3279 97.6931C33.2141 97.4579 33.0698 97.2641 32.8952 97.1119C32.7206 96.9597 32.5244 96.8542 32.3066 96.7955C32.0888 96.7367 31.8589 96.7312 31.6169 96.7788L31.1789 95.8735C31.5515 95.7564 31.926 95.7314 32.3025 95.7986C32.6752 95.8645 33.0232 96.0228 33.3464 96.2735C33.6659 96.5229 33.9308 96.865 34.1411 97.2997Z" fill="white"></path><path d="M38.1049 104.227L32.667 107.87L32.1262 107.063L32.9476 106.513L32.9096 106.456C32.5742 106.537 32.2357 106.504 31.8942 106.357C31.5527 106.209 31.2728 105.973 31.0546 105.647C31.0135 105.586 30.9633 105.508 30.904 105.414C30.8447 105.321 30.8016 105.249 30.7747 105.198L31.6243 104.629C31.6362 104.662 31.6691 104.734 31.7229 104.845C31.7728 104.956 31.8349 105.066 31.9092 105.177C32.0863 105.441 32.2999 105.64 32.55 105.774C32.7961 105.906 33.0563 105.968 33.3304 105.959C33.6007 105.949 33.8585 105.861 34.104 105.697L37.5452 103.391L38.1049 104.227Z" fill="white"></path><path d="M41.6847 108.372C42.107 108.841 42.3679 109.338 42.4673 109.864C42.5627 110.39 42.5064 110.913 42.2984 111.434C42.0864 111.954 41.7314 112.438 41.2334 112.887C40.7354 113.336 40.2147 113.641 39.6713 113.802C39.1238 113.962 38.5961 113.975 38.0882 113.84C37.5762 113.705 37.1224 113.418 36.7268 112.979C36.4985 112.726 36.3154 112.438 36.1772 112.115C36.0391 111.792 35.9737 111.443 35.981 111.07C35.9862 110.698 36.0897 110.312 36.2914 109.912C36.4932 109.512 36.821 109.108 37.2746 108.699L37.5912 108.413L40.9693 112.161L40.3236 112.743L37.6302 109.755C37.3559 110.002 37.1606 110.278 37.0442 110.582C36.926 110.883 36.895 111.191 36.9512 111.503C37.0055 111.814 37.1544 112.104 37.3978 112.374C37.666 112.672 37.9719 112.863 38.3156 112.947C38.6552 113.031 38.9944 113.025 39.3333 112.93C39.6721 112.835 39.9755 112.667 40.2435 112.425L40.674 112.037C41.0412 111.706 41.2953 111.362 41.4365 111.006C41.5737 110.649 41.6061 110.296 41.5336 109.949C41.459 109.603 41.2857 109.279 41.0137 108.977C40.8368 108.781 40.6496 108.628 40.4521 108.52C40.2506 108.411 40.0416 108.348 39.8251 108.333C39.6065 108.32 39.3843 108.358 39.1584 108.446L38.7105 107.542C39.0238 107.398 39.3541 107.331 39.7014 107.343C40.0467 107.357 40.3899 107.449 40.7311 107.62C41.0701 107.792 41.388 108.043 41.6847 108.372Z" fill="white"></path><path d="M53.1647 118.007L49.3671 123.338L48.5757 122.774L49.1691 121.941L49.0997 121.892C48.7859 122.097 48.4492 122.19 48.0895 122.171C47.7282 122.155 47.374 122.023 47.0269 121.776C46.6752 121.525 46.4394 121.237 46.3194 120.911C46.1955 120.585 46.1689 120.233 46.2398 119.854L46.1843 119.815C45.8516 119.993 45.4911 120.066 45.1026 120.033C44.7126 120.003 44.3267 119.852 43.9449 119.58C43.4682 119.24 43.1846 118.813 43.0942 118.299C43.002 117.787 43.1793 117.217 43.626 116.59L46.1677 113.022L46.9868 113.606L44.4451 117.174C44.1649 117.567 44.0722 117.925 44.1671 118.247C44.2619 118.569 44.4551 118.834 44.7467 119.042C45.1215 119.309 45.4927 119.403 45.8601 119.322C46.226 119.245 46.5317 119.033 46.7773 118.689L49.2497 115.218L50.0827 115.811L47.4817 119.463C47.2658 119.766 47.1902 120.08 47.255 120.405C47.3182 120.733 47.5048 121.007 47.8149 121.228C48.0277 121.379 48.2671 121.464 48.533 121.483C48.7965 121.5 49.0567 121.448 49.3135 121.327C49.5663 121.207 49.7858 121.017 49.9721 120.755L52.3456 117.423L53.1647 118.007Z" fill="white"></path><path d="M62.4291 121.581C62.9911 121.763 63.4407 122.057 63.778 122.463C64.1125 122.867 64.3205 123.348 64.402 123.907C64.4808 124.464 64.4157 125.064 64.2068 125.707C63.996 126.355 63.6946 126.883 63.3024 127.291C62.9074 127.697 62.4558 127.965 61.9474 128.096C61.4363 128.226 60.8997 128.199 60.3377 128.016C59.7758 127.834 59.3275 127.54 58.9929 127.136C58.6556 126.731 58.4481 126.248 58.3702 125.688C58.2896 125.127 58.3546 124.522 58.5653 123.874C58.7743 123.231 59.0758 122.707 59.4698 122.304C59.8612 121.899 60.3124 121.632 60.8235 121.503C61.3319 121.372 61.8671 121.398 62.4291 121.581ZM62.1499 122.44C61.723 122.301 61.3362 122.296 60.9895 122.426C60.6428 122.555 60.3453 122.776 60.097 123.09C59.8487 123.404 59.657 123.769 59.5218 124.185C59.3866 124.601 59.3268 125.01 59.3424 125.412C59.358 125.815 59.4676 126.171 59.6712 126.483C59.8748 126.794 60.19 127.019 60.6169 127.157C61.0438 127.296 61.4311 127.299 61.7786 127.167C62.1262 127.035 62.4246 126.811 62.6738 126.495C62.9229 126.179 63.1151 125.812 63.2503 125.396C63.3855 124.98 63.4449 124.572 63.4284 124.173C63.4119 123.773 63.3014 123.419 63.0969 123.111C62.8925 122.802 62.5768 122.579 62.1499 122.44Z" fill="white"></path><path d="M71.2083 123.441C71.7491 123.513 72.2084 123.713 72.5864 124.04C72.9639 124.371 73.2365 124.803 73.404 125.335C73.5712 125.87 73.6094 126.481 73.5186 127.168C73.4285 127.85 73.2335 128.426 72.9335 128.896C72.6335 129.367 72.2571 129.711 71.8042 129.929C71.3512 130.147 70.8516 130.22 70.3052 130.148C69.8827 130.092 69.5583 129.978 69.3319 129.805C69.1022 129.634 68.9344 129.451 68.8283 129.257C68.719 129.064 68.6351 128.907 68.5768 128.785L68.4923 128.774L68.0704 131.968L67.0734 131.836L68.2163 123.184L69.1795 123.311L69.0478 124.308L69.1661 124.324C69.255 124.215 69.3789 124.08 69.5379 123.917C69.6965 123.758 69.9105 123.624 70.1797 123.516C70.4486 123.411 70.7915 123.386 71.2083 123.441ZM70.9548 124.319C70.5549 124.266 70.2031 124.326 69.8996 124.498C69.5957 124.673 69.3474 124.936 69.1546 125.289C68.9615 125.645 68.8326 126.068 68.7678 126.558C68.7038 127.042 68.7182 127.475 68.8111 127.857C68.9035 128.242 69.0744 128.554 69.3236 128.793C69.5724 129.035 69.8997 129.183 70.3052 129.237C70.7277 129.293 71.0941 129.231 71.4044 129.051C71.7115 128.874 71.9598 128.61 72.1494 128.26C72.3357 127.912 72.459 127.51 72.5193 127.053C72.5803 126.591 72.5654 126.163 72.4744 125.767C72.3802 125.373 72.2084 125.047 71.959 124.787C71.7064 124.53 71.3717 124.374 70.9548 124.319Z" fill="white"></path><path d="M83.159 123.271C83.7841 123.186 84.3418 123.252 84.8322 123.467C85.3202 123.685 85.7202 124.027 86.0322 124.492C86.3418 124.961 86.5413 125.527 86.6308 126.192C86.7202 126.856 86.6779 127.458 86.504 127.997C86.3276 128.54 86.0404 128.983 85.6422 129.326C85.2417 129.672 84.7486 129.885 84.1629 129.964C83.8251 130.009 83.4839 129.998 83.1393 129.929C82.7947 129.861 82.4702 129.718 82.1658 129.501C81.8618 129.287 81.6017 128.984 81.3855 128.592C81.1693 128.199 81.0205 127.701 80.9391 127.095L80.8822 126.673L85.8826 126L85.9985 126.861L82.0118 127.398C82.061 127.764 82.1782 128.081 82.3632 128.348C82.5455 128.616 82.7815 128.815 83.0713 128.945C83.3583 129.076 83.6821 129.117 84.0424 129.068C84.4394 129.015 84.7697 128.87 85.0331 128.634C85.2942 128.401 85.4811 128.118 85.5939 127.784C85.7067 127.451 85.739 127.106 85.6909 126.748L85.6136 126.174C85.5477 125.684 85.4073 125.28 85.1925 124.962C84.9753 124.647 84.7027 124.422 84.3748 124.285C84.0472 124.151 83.6821 124.112 83.2795 124.166C83.0177 124.201 82.7861 124.27 82.5848 124.371C82.381 124.476 82.2118 124.614 82.077 124.784C81.9426 124.956 81.8483 125.161 81.7942 125.398L80.7949 125.257C80.8523 124.917 80.984 124.607 81.1899 124.327C81.3963 124.05 81.6662 123.818 81.9995 123.633C82.3333 123.451 82.7198 123.33 83.159 123.271Z" fill="white"></path><path d="M91.9632 121.154C92.4819 120.985 92.9825 120.967 93.4648 121.1C93.9481 121.236 94.38 121.508 94.7607 121.916C95.1422 122.326 95.4402 122.861 95.6546 123.52C95.8673 124.174 95.9397 124.778 95.8719 125.332C95.8041 125.886 95.6129 126.359 95.2983 126.751C94.9837 127.143 94.5644 127.424 94.0403 127.595C93.635 127.726 93.2929 127.763 93.014 127.704C92.7332 127.649 92.5029 127.557 92.3233 127.427C92.1418 127.301 91.9984 127.195 91.893 127.11L91.812 127.136L92.8085 130.2L91.8522 130.511L89.1525 122.212L90.0765 121.911L90.3876 122.868L90.501 122.831C90.5344 122.694 90.5877 122.519 90.6612 122.304C90.7355 122.091 90.8709 121.878 91.0674 121.665C91.2648 121.454 91.5634 121.284 91.9632 121.154ZM92.113 122.055C91.7294 122.18 91.4377 122.386 91.238 122.672C91.0391 122.96 90.9288 123.305 90.907 123.707C90.8861 124.111 90.9521 124.548 91.105 125.018C91.2562 125.483 91.456 125.867 91.7044 126.172C91.9538 126.479 92.2424 126.687 92.5705 126.796C92.8994 126.907 93.2583 126.899 93.6474 126.772C94.0526 126.641 94.3565 126.427 94.5589 126.131C94.7596 125.838 94.8699 125.493 94.8899 125.096C94.908 124.701 94.8459 124.285 94.7035 123.848C94.5594 123.405 94.3609 123.024 94.1081 122.706C93.8535 122.391 93.5577 122.171 93.2208 122.045C92.8821 121.922 92.5128 121.925 92.113 122.055Z" fill="white"></path><path d="M99.7499 117.631C100.115 117.434 100.484 117.325 100.856 117.303C101.229 117.284 101.574 117.358 101.89 117.527C102.207 117.698 102.467 117.972 102.668 118.347C102.846 118.678 102.924 118.98 102.904 119.256C102.886 119.533 102.799 119.789 102.644 120.024C102.49 120.258 102.296 120.475 102.064 120.673C101.831 120.876 101.59 121.066 101.341 121.245C101.015 121.478 100.749 121.665 100.543 121.804C100.336 121.947 100.198 122.074 100.129 122.186C100.057 122.298 100.06 122.426 100.136 122.569L100.152 122.599C100.351 122.969 100.607 123.203 100.92 123.299C101.23 123.397 101.589 123.337 101.997 123.118C102.42 122.891 102.702 122.62 102.843 122.306C102.984 121.992 103.047 121.703 103.032 121.441L104.034 121.29C104.072 121.721 104.018 122.101 103.873 122.431C103.726 122.764 103.524 123.05 103.268 123.287C103.011 123.528 102.737 123.727 102.446 123.883C102.261 123.982 102.036 124.074 101.772 124.157C101.506 124.245 101.224 124.282 100.927 124.268C100.626 124.255 100.328 124.152 100.031 123.96C99.7346 123.767 99.4634 123.442 99.2176 122.984L97.1788 119.184L98.065 118.709L98.4841 119.49L98.5291 119.465C98.5221 119.308 98.5503 119.12 98.614 118.902C98.6776 118.685 98.799 118.463 98.9781 118.238C99.1571 118.013 99.4144 117.81 99.7499 117.631ZM100.042 118.499C99.6913 118.687 99.4329 118.914 99.2664 119.181C99.0974 119.449 99.0101 119.725 99.0042 120.008C98.9959 120.293 99.0562 120.556 99.1852 120.796L99.6203 121.607C99.6337 121.542 99.6941 121.457 99.8017 121.351C99.908 121.248 100.036 121.139 100.187 121.023C100.336 120.911 100.483 120.803 100.628 120.7C100.771 120.6 100.887 120.519 100.975 120.455C101.189 120.301 101.378 120.137 101.542 119.962C101.705 119.791 101.812 119.606 101.864 119.408C101.914 119.213 101.879 119.003 101.758 118.778C101.593 118.47 101.354 118.298 101.042 118.263C100.728 118.231 100.395 118.31 100.042 118.499Z" fill="white"></path><path d="M106.549 112.984C106.976 112.645 107.439 112.454 107.937 112.41C108.438 112.369 108.937 112.473 109.436 112.723C109.937 112.975 110.402 113.373 110.833 113.916C111.26 114.454 111.538 114.995 111.668 115.538C111.797 116.081 111.783 116.591 111.625 117.068C111.466 117.545 111.171 117.955 110.739 118.297C110.405 118.562 110.098 118.715 109.816 118.758C109.533 118.804 109.285 118.797 109.072 118.738C108.858 118.683 108.686 118.634 108.558 118.591L108.491 118.644L110.493 121.168L109.704 121.793L104.282 114.955L105.044 114.351L105.669 115.139L105.762 115.065C105.746 114.925 105.735 114.742 105.729 114.515C105.724 114.29 105.777 114.043 105.887 113.775C105.999 113.509 106.219 113.245 106.549 112.984ZM107.003 113.776C106.687 114.027 106.485 114.321 106.397 114.659C106.312 114.999 106.329 115.361 106.448 115.745C106.569 116.131 106.783 116.517 107.09 116.905C107.394 117.288 107.715 117.579 108.054 117.778C108.395 117.979 108.738 118.073 109.083 118.06C109.43 118.05 109.764 117.917 110.085 117.663C110.419 117.399 110.629 117.092 110.716 116.744C110.802 116.4 110.785 116.039 110.665 115.659C110.545 115.283 110.342 114.915 110.056 114.554C109.766 114.189 109.448 113.901 109.1 113.691C108.751 113.485 108.397 113.382 108.038 113.38C107.677 113.383 107.332 113.515 107.003 113.776Z" fill="white"></path><path d="M110.975 109.032L115.666 113.596L114.965 114.317L110.273 109.753L110.975 109.032ZM116.092 114.724C116.228 114.583 116.394 114.509 116.589 114.5C116.782 114.493 116.945 114.555 117.08 114.686C117.214 114.817 117.281 114.978 117.279 115.171C117.276 115.366 117.206 115.534 117.069 115.674C116.932 115.815 116.768 115.889 116.575 115.895C116.38 115.904 116.216 115.843 116.081 115.712C115.947 115.581 115.881 115.419 115.885 115.224C115.886 115.031 115.955 114.864 116.092 114.724Z" fill="white"></path><path d="M118.688 105.822L115.549 103.445L116.156 102.643L121.374 106.595L120.788 107.369L119.973 106.752L119.921 106.82C120.093 107.143 120.166 107.49 120.138 107.861C120.112 108.233 119.95 108.617 119.652 109.011C119.384 109.364 119.078 109.618 118.732 109.773C118.389 109.93 118.015 109.972 117.612 109.898C117.21 109.825 116.788 109.621 116.344 109.285L113.028 106.774L113.635 105.973L116.897 108.442C117.306 108.753 117.706 108.888 118.096 108.848C118.489 108.81 118.825 108.606 119.107 108.234C119.3 107.978 119.418 107.708 119.46 107.422C119.5 107.139 119.457 106.859 119.332 106.582C119.206 106.305 118.992 106.052 118.688 105.822Z" fill="white"></path><path d="M120.593 100.257L124.037 102.02L123.579 102.915L117.752 99.9336L118.211 99.0383L119.197 99.543L119.228 99.4823C119.002 99.1944 118.859 98.8532 118.799 98.4587C118.742 98.0656 118.826 97.649 119.051 97.209C119.237 96.8448 119.483 96.5618 119.787 96.3601C120.094 96.1597 120.45 96.0613 120.857 96.0651C121.266 96.0702 121.718 96.1996 122.214 96.4532L125.917 98.3478L125.458 99.2431L121.817 97.3796C121.392 97.1621 120.992 97.1076 120.617 97.2159C120.242 97.3268 119.959 97.5681 119.768 97.9398C119.654 98.1624 119.596 98.4179 119.592 98.7062C119.586 98.9972 119.661 99.2812 119.816 99.5583C119.97 99.838 120.229 100.071 120.593 100.257Z" fill="white"></path><path d="M123.633 83.5892L129.967 85.2399L129.722 86.18L128.732 85.9221L128.711 86.0046C129.014 86.2247 129.221 86.5062 129.332 86.849C129.445 87.1926 129.448 87.5706 129.34 87.983C129.231 88.4008 129.046 88.7239 128.784 88.9521C128.524 89.1838 128.204 89.3339 127.825 89.4025L127.808 89.4685C128.093 89.7159 128.289 90.0269 128.397 90.4015C128.508 90.7767 128.504 91.1911 128.386 91.6447C128.238 92.2111 127.94 92.6281 127.492 92.8958C127.046 93.1642 126.451 93.2013 125.706 93.0072L121.466 91.9025L121.72 90.9293L125.959 92.034C126.427 92.1558 126.794 92.115 127.061 91.9117C127.328 91.7083 127.507 91.4334 127.598 91.087C127.714 90.6417 127.669 90.2616 127.463 89.9467C127.26 89.6325 126.954 89.4221 126.544 89.3153L122.421 88.2407L122.679 87.251L127.017 88.3815C127.377 88.4754 127.697 88.4341 127.978 88.2578C128.262 88.0821 128.452 87.8101 128.548 87.4417C128.613 87.1888 128.608 86.9348 128.53 86.6798C128.452 86.4275 128.311 86.2029 128.107 86.0058C127.905 85.8123 127.649 85.675 127.338 85.594L123.379 84.5624L123.633 83.5892Z" fill="white"></path><path d="M123.747 77.6432C123.768 77.0526 123.926 76.5393 124.223 76.1033C124.519 75.6701 124.924 75.3373 125.438 75.1049C125.952 74.8754 126.547 74.7723 127.223 74.7956C127.904 74.8192 128.495 74.9633 128.994 75.2279C129.494 75.4953 129.877 75.8553 130.142 76.3079C130.408 76.7634 130.531 77.2864 130.51 77.877C130.49 78.4675 130.332 78.9794 130.035 79.4126C129.739 79.8487 129.332 80.1814 128.815 80.4108C128.298 80.6431 127.699 80.7475 127.018 80.7239C126.342 80.7006 125.756 80.5552 125.259 80.2879C124.762 80.0234 124.381 79.6634 124.115 79.208C123.85 78.7553 123.727 78.2337 123.747 77.6432ZM124.65 77.6744C124.635 78.123 124.737 78.4961 124.957 78.7936C125.177 79.0912 125.472 79.316 125.842 79.4681C126.212 79.6201 126.615 79.7037 127.053 79.7188C127.49 79.734 127.9 79.6785 128.282 79.5524C128.664 79.4263 128.977 79.2225 129.22 78.941C129.463 78.6594 129.592 78.2944 129.607 77.8458C129.623 77.3972 129.519 77.0241 129.297 76.7264C129.074 76.4288 128.776 76.2038 128.403 76.0517C128.03 75.8995 127.625 75.8158 127.188 75.8007C126.751 75.7856 126.342 75.8411 125.963 75.9673C125.583 76.0935 125.273 76.2974 125.033 76.579C124.793 76.8607 124.666 77.2258 124.65 77.6744Z" fill="white"></path><path d="M123.27 69.7397C123.185 69.132 123.255 68.5886 123.481 68.1096C123.706 67.6306 124.055 67.2377 124.525 66.9309C124.996 66.6242 125.555 66.4256 126.202 66.3351C126.86 66.2431 127.458 66.2829 127.995 66.4544C128.536 66.6284 128.979 66.9136 129.324 67.31C129.672 67.7088 129.887 68.2008 129.969 68.786C130.033 69.2418 130.006 69.6644 129.888 70.0537C129.771 70.4431 129.576 70.7758 129.305 71.0518C129.034 71.3278 128.699 71.5222 128.302 71.6351L128.163 70.6391C128.448 70.5219 128.686 70.3165 128.877 70.023C129.072 69.7319 129.138 69.3669 129.077 68.928C129.023 68.5397 128.874 68.2134 128.63 67.9491C128.39 67.6872 128.076 67.5003 127.687 67.3882C127.302 67.2786 126.864 67.258 126.375 67.3264C125.874 67.3964 125.449 67.5362 125.099 67.7456C124.75 67.9579 124.493 68.2233 124.329 68.5418C124.164 68.8631 124.109 69.2208 124.164 69.6147C124.201 69.8735 124.279 70.1021 124.398 70.3006C124.518 70.499 124.672 70.6596 124.861 70.7823C125.05 70.905 125.268 70.9808 125.513 71.0096L125.652 72.0056C125.261 72.0028 124.897 71.9118 124.559 71.7323C124.225 71.5554 123.942 71.298 123.711 70.9602C123.484 70.6249 123.337 70.218 123.27 69.7397Z" fill="white"></path><path d="M120.231 58.1823L126.35 55.8583L126.695 56.7666L125.771 57.1176L125.795 57.1813C126.14 57.1779 126.463 57.2864 126.762 57.5069C127.062 57.7275 127.281 58.021 127.42 58.3875C127.446 58.4565 127.478 58.5433 127.515 58.6479C127.551 58.7525 127.577 58.8324 127.592 58.8875L126.636 59.2506C126.632 59.2157 126.616 59.1382 126.588 59.0179C126.565 58.8993 126.529 58.7776 126.482 58.6528C126.369 58.3553 126.205 58.1134 125.992 57.9271C125.782 57.7425 125.542 57.6238 125.273 57.571C125.008 57.52 124.737 57.5469 124.46 57.6518L120.588 59.1224L120.231 58.1823Z" fill="white"></path><path d="M117.539 53.0895C117.251 52.5733 117.122 52.052 117.15 51.5255C117.18 51.0014 117.355 50.5071 117.675 50.0426C117.997 49.5805 118.453 49.1849 119.043 48.8557C119.639 48.5238 120.219 48.342 120.784 48.3104C121.349 48.2812 121.863 48.3917 122.324 48.6419C122.787 48.8946 123.163 49.279 123.45 49.7952C123.738 50.3114 123.867 50.8315 123.837 51.3555C123.808 51.882 123.632 52.377 123.308 52.8405C122.986 53.3064 122.527 53.7053 121.931 54.0372C121.34 54.3664 120.763 54.5449 120.2 54.5727C119.638 54.6029 119.126 54.4917 118.663 54.239C118.201 53.9888 117.827 53.6056 117.539 53.0895ZM118.328 52.6497C118.547 53.0418 118.827 53.3084 119.169 53.4495C119.511 53.5906 119.88 53.6306 120.275 53.5697C120.671 53.5087 121.059 53.3717 121.441 53.1588C121.824 52.9458 122.146 52.6865 122.408 52.381C122.67 52.0755 122.833 51.7394 122.895 51.3729C122.958 51.0064 122.88 50.6271 122.661 50.235C122.443 49.8429 122.161 49.577 121.816 49.4373C121.472 49.2976 121.101 49.2589 120.703 49.3212C120.305 49.3836 119.915 49.5212 119.533 49.7342C119.151 49.9472 118.83 50.2058 118.57 50.5099C118.31 50.8141 118.15 51.1487 118.09 51.5138C118.03 51.879 118.11 52.2576 118.328 52.6497Z" fill="white"></path><path d="M114.859 42.3557L111.814 44.8523L111.176 44.0746L117.925 38.541L118.562 39.3187L116.084 41.3506L116.138 41.4165C116.497 41.3207 116.851 41.3285 117.199 41.4396C117.551 41.5512 117.891 41.8058 118.217 42.2034C118.499 42.5483 118.678 42.9071 118.752 43.2798C118.828 43.6507 118.783 44.0238 118.617 44.3989C118.455 44.7745 118.156 45.1406 117.721 45.4973L114.505 48.1344L113.867 47.3567L117.031 44.7628C117.433 44.4332 117.658 44.0739 117.707 43.6851C117.759 43.2967 117.635 42.919 117.334 42.5522C117.125 42.2973 116.884 42.113 116.611 41.9991C116.339 41.8875 116.052 41.8581 115.75 41.911C115.45 41.9661 115.153 42.1143 114.859 42.3557Z" fill="white"></path><path d="M115.381 36.0623L109.371 42.3902L108.642 41.6976L114.652 35.3698L115.381 36.0623Z" fill="white"></path><path d="M104.349 38.3564C103.842 37.9815 103.487 37.5461 103.285 37.0504C103.087 36.554 103.038 36.0302 103.138 35.4789C103.242 34.927 103.493 34.3815 103.892 33.8424C104.29 33.3033 104.74 32.9007 105.24 32.6348C105.745 32.3682 106.259 32.2505 106.784 32.2815C107.313 32.3119 107.815 32.5028 108.29 32.8541C108.564 33.0567 108.801 33.3025 109 33.5915C109.2 33.8805 109.334 34.2088 109.401 34.5766C109.47 34.942 109.446 35.3408 109.327 35.7728C109.209 36.2049 108.969 36.6665 108.606 37.1577L108.352 37.5003L104.295 34.501L104.812 33.802L108.047 36.1933C108.266 35.8963 108.403 35.5874 108.456 35.2666C108.512 34.9475 108.481 34.6403 108.364 34.3451C108.249 34.0515 108.045 33.7967 107.753 33.5805C107.431 33.3424 107.093 33.2163 106.739 33.2023C106.39 33.1876 106.058 33.2607 105.745 33.4214C105.432 33.582 105.168 33.8075 104.954 34.0976L104.609 34.5636C104.316 34.9611 104.135 35.3487 104.068 35.7265C104.004 36.1036 104.043 36.4553 104.183 36.7817C104.325 37.1057 104.56 37.3884 104.886 37.6299C105.099 37.787 105.313 37.8992 105.528 37.9664C105.747 38.0331 105.964 38.0523 106.179 38.0242C106.396 37.9937 106.606 37.9124 106.81 37.7803L107.429 38.5772C107.151 38.7814 106.841 38.9122 106.498 38.9697C106.157 39.0249 105.802 39.0029 105.434 38.9038C105.067 38.8023 104.706 38.6199 104.349 38.3564Z" fill="white"></path><path d="M91.1795 31.2028L93.8387 25.2219L94.7265 25.6166L94.311 26.5511L94.3888 26.5857C94.6554 26.3218 94.9668 26.1634 95.3231 26.1103C95.6805 26.0547 96.0538 26.1135 96.4432 26.2866C96.8378 26.462 97.1264 26.6976 97.3089 26.9933C97.4952 27.2875 97.5914 27.6272 97.5974 28.0123L97.6597 28.04C97.9502 27.7991 98.289 27.656 98.6761 27.6105C99.0644 27.5623 99.4726 27.6335 99.901 27.8239C100.436 28.0617 100.799 28.4236 100.99 28.9097C101.182 29.3931 101.122 29.9866 100.809 30.6901L99.0295 34.693L98.1105 34.2844L99.8903 30.2815C100.086 29.8402 100.106 29.4712 99.9488 29.1743C99.7916 28.8775 99.5495 28.6564 99.2224 28.5109C98.8019 28.324 98.4196 28.3063 98.0754 28.458C97.7324 28.6071 97.475 28.875 97.303 29.2618L95.5718 33.1556L94.6372 32.7401L96.4585 28.6438C96.6097 28.3038 96.6211 27.9808 96.4928 27.6751C96.3656 27.3667 96.1281 27.1352 95.7803 26.9805C95.5415 26.8743 95.2899 26.8387 95.0257 26.8735C94.7641 26.9096 94.5195 27.0122 94.2918 27.1815C94.068 27.3494 93.8908 27.58 93.7604 27.8733L92.0984 31.6114L91.1795 31.2028Z" fill="white"></path><path d="M78.1436 29.0816L77.0414 28.9692L81.1145 20.6119L82.1998 20.7226L84.5027 29.7299L83.4005 29.6175L81.5511 22.0443L81.4832 22.0374L78.1436 29.0816ZM78.8964 25.7315L83.3392 26.1845L83.2442 27.1171L78.8013 26.6642L78.8964 25.7315Z" fill="white"></path><path d="M67.2231 27.8436C67.2231 28.7891 66.4566 29.5557 65.511 29.5557C64.5654 29.5557 63.7988 28.7891 63.7988 27.8436C63.7988 26.898 64.5654 26.1314 65.511 26.1314C66.4566 26.1314 67.2231 26.898 67.2231 27.8436Z" fill="#D9D9D9"></path></svg>