<svg xmlns="http://www.w3.org/2000/svg" width="109" height="109" viewBox="0 0 109 109" fill="none"><g id="Group 4"><rect id="retangulo2" x="27.2339" width="85.4449" height="85.4449" rx="12" transform="rotate(18.5862 27.2339 0)" fill="#ECECEC"></rect><rect id="retangulo1" x="33.9795" y="13.5808" width="64" height="64" rx="12" transform="rotate(18.5862 33.9795 13.5808)" fill="white"></rect><path id="vetor" d="M64.0004 59.3512V48.6492C64.5067 48.41 64.948 48.0526 65.2871 47.6071C65.6263 47.1617 65.8534 46.6412 65.9493 46.0895C66.0451 45.5379 66.0069 44.9713 65.8379 44.4375C65.6688 43.9038 65.3739 43.4184 64.978 43.0225C64.5821 42.6266 64.0968 42.3317 63.563 42.1627C63.0293 41.9937 62.4627 41.9555 61.911 42.0513C61.3594 42.1471 60.8389 42.3742 60.3934 42.7134C59.9479 43.0526 59.5906 43.4939 59.3514 44.0002H48.6494C48.4102 43.4939 48.0529 43.0526 47.6074 42.7134C47.1619 42.3742 46.6414 42.1471 46.0898 42.0513C45.5381 41.9555 44.9715 41.9937 44.4378 42.1627C43.904 42.3317 43.4187 42.6266 43.0228 43.0225C42.6269 43.4184 42.332 43.9038 42.1629 44.4375C41.9939 44.9713 41.9557 45.5379 42.0515 46.0895C42.1474 46.6412 42.3745 47.1617 42.7136 47.6071C43.0528 48.0526 43.4941 48.41 44.0004 48.6492V59.3492C43.4944 59.5884 43.0533 59.9458 42.7144 60.3913C42.3754 60.8367 42.1485 61.357 42.0527 61.9085C41.9569 62.46 41.9951 63.0264 42.1641 63.56C42.333 64.0936 42.6278 64.5788 43.0235 64.9747C43.4192 65.3705 43.9042 65.6655 44.4378 65.8347C44.9713 66.0038 45.5377 66.0423 46.0892 65.9468C46.6407 65.8512 47.1612 65.6245 47.6067 65.2857C48.0523 64.947 48.4099 64.5061 48.6494 64.0002H59.3494C59.5887 64.5062 59.9461 64.9472 60.3915 65.2862C60.8369 65.6252 61.3573 65.8521 61.9087 65.9479C62.4602 66.0436 63.0266 66.0054 63.5602 65.8365C64.0939 65.6675 64.579 65.3728 64.9749 64.9771C65.3708 64.5814 65.6657 64.0963 65.8349 63.5628C66.0041 63.0292 66.0425 62.4629 65.947 61.9113C65.8515 61.3598 65.6248 60.8394 65.286 60.3938C64.9472 59.9483 64.5063 59.5907 64.0004 59.3512ZM59.0514 62.0002H48.9494C48.8416 61.2563 48.4962 60.5673 47.9647 60.0358C47.4333 59.5044 46.7442 59.159 46.0004 59.0512V48.9492C46.7442 48.8413 47.4333 48.4959 47.9647 47.9645C48.4962 47.433 48.8416 46.744 48.9494 46.0002H59.0494C59.1573 46.7443 59.503 47.4335 60.0349 47.965C60.5667 48.4965 61.2562 48.8417 62.0004 48.9492V59.0492C61.2563 59.1571 60.567 59.5028 60.0355 60.0346C59.5041 60.5665 59.1588 61.256 59.0514 62.0002ZM62.5004 44.0002C62.7971 44.0002 63.0871 44.0881 63.3338 44.253C63.5804 44.4178 63.7727 44.652 63.8862 44.9261C63.9997 45.2002 64.0295 45.5018 63.9716 45.7928C63.9137 46.0838 63.7708 46.351 63.5611 46.5608C63.3513 46.7706 63.084 46.9135 62.793 46.9713C62.5021 47.0292 62.2005 46.9995 61.9264 46.886C61.6523 46.7724 61.418 46.5802 61.2532 46.3335C61.0884 46.0868 61.0004 45.7968 61.0004 45.5002C61.0004 45.1023 61.1584 44.7208 61.4397 44.4395C61.721 44.1582 62.1026 44.0002 62.5004 44.0002ZM45.5004 44.0002C45.7971 44.0002 46.0871 44.0881 46.3338 44.253C46.5804 44.4178 46.7727 44.652 46.8862 44.9261C46.9997 45.2002 47.0295 45.5018 46.9716 45.7928C46.9137 46.0838 46.7708 46.351 46.5611 46.5608C46.3513 46.7706 46.084 46.9135 45.793 46.9713C45.5021 47.0292 45.2005 46.9995 44.9264 46.886C44.6523 46.7724 44.418 46.5802 44.2532 46.3335C44.0884 46.0868 44.0004 45.7968 44.0004 45.5002C44.0004 45.1023 44.1584 44.7208 44.4397 44.4395C44.721 44.1582 45.1026 44.0002 45.5004 44.0002ZM45.5004 64.0002C45.2037 64.0002 44.9137 63.9122 44.667 63.7474C44.4204 63.5825 44.2281 63.3483 44.1146 63.0742C44.001 62.8001 43.9713 62.4985 44.0292 62.2075C44.0871 61.9166 44.23 61.6493 44.4397 61.4395C44.6495 61.2297 44.9168 61.0869 45.2078 61.029C45.4987 60.9711 45.8003 61.0008 46.0744 61.1143C46.3485 61.2279 46.5828 61.4201 46.7476 61.6668C46.9124 61.9135 47.0004 62.2035 47.0004 62.5002C47.0004 62.898 46.8424 63.2795 46.5611 63.5608C46.2798 63.8421 45.8982 64.0002 45.5004 64.0002ZM62.5004 64.0002C62.2037 64.0002 61.9137 63.9122 61.667 63.7474C61.4204 63.5825 61.2281 63.3483 61.1146 63.0742C61.001 62.8001 60.9713 62.4985 61.0292 62.2075C61.0871 61.9166 61.23 61.6493 61.4397 61.4395C61.6495 61.2297 61.9168 61.0869 62.2078 61.029C62.4987 60.9711 62.8003 61.0008 63.0744 61.1143C63.3485 61.2279 63.5828 61.4201 63.7476 61.6668C63.9124 61.9135 64.0004 62.2035 64.0004 62.5002C64.0004 62.898 63.8424 63.2795 63.5611 63.5608C63.2798 63.8421 62.8982 64.0002 62.5004 64.0002ZM55.0004 51.0002V54.0002H56.0004C56.2656 54.0002 56.52 54.1055 56.7075 54.2931C56.895 54.4806 57.0004 54.7349 57.0004 55.0002C57.0004 55.2654 56.895 55.5197 56.7075 55.7073C56.52 55.8948 56.2656 56.0002 56.0004 56.0002H55.0004V57.0002C55.0004 57.2654 55.1058 57.5197 55.2933 57.7073C55.4808 57.8948 55.7352 58.0002 56.0004 58.0002C56.2656 58.0002 56.52 58.1055 56.7075 58.2931C56.895 58.4806 57.0004 58.7349 57.0004 59.0002C57.0004 59.2654 56.895 59.5197 56.7075 59.7073C56.52 59.8948 56.2656 60.0002 56.0004 60.0002C55.26 59.9976 54.5471 59.7195 54.0004 59.2202C53.4537 59.7195 52.7408 59.9976 52.0004 60.0002C51.7352 60.0002 51.4808 59.8948 51.2933 59.7073C51.1058 59.5197 51.0004 59.2654 51.0004 59.0002C51.0004 58.7349 51.1058 58.4806 51.2933 58.2931C51.4808 58.1055 51.7352 58.0002 52.0004 58.0002C52.2656 58.0002 52.52 57.8948 52.7075 57.7073C52.895 57.5197 53.0004 57.2654 53.0004 57.0002V56.0002H52.0004C51.7352 56.0002 51.4808 55.8948 51.2933 55.7073C51.1058 55.5197 51.0004 55.2654 51.0004 55.0002C51.0004 54.7349 51.1058 54.4806 51.2933 54.2931C51.4808 54.1055 51.7352 54.0002 52.0004 54.0002H53.0004V51.0002C53.0004 50.7349 52.895 50.4806 52.7075 50.2931C52.52 50.1055 52.2656 50.0002 52.0004 50.0002C51.7352 50.0002 51.4808 49.8948 51.2933 49.7073C51.1058 49.5197 51.0004 49.2654 51.0004 49.0002C51.0004 48.7349 51.1058 48.4806 51.2933 48.2931C51.4808 48.1055 51.7352 48.0002 52.0004 48.0002C52.7408 48.0028 53.4537 48.2808 54.0004 48.7802C54.5471 48.2808 55.26 48.0028 56.0004 48.0002C56.2656 48.0002 56.52 48.1055 56.7075 48.2931C56.895 48.4806 57.0004 48.7349 57.0004 49.0002C57.0004 49.2654 56.895 49.5197 56.7075 49.7073C56.52 49.8948 56.2656 50.0002 56.0004 50.0002C55.7352 50.0002 55.4808 50.1055 55.2933 50.2931C55.1058 50.4806 55.0004 50.7349 55.0004 51.0002Z" fill="#5F05BC"></path></g></svg>