<svg xmlns="http://www.w3.org/2000/svg" width="362" height="23" viewBox="0 0 362 23" fill="none"><g clip-path="url(#clip0_32_67)"><mask id="mask0_32_67" style="mask-type:luminance" maskUnits="userSpaceOnUse" x="0" y="0" width="362" height="23"><path d="M362 0H0V23H362V0Z" fill="white"></path></mask><g mask="url(#mask0_32_67)"><mask id="mask1_32_67" style="mask-type:luminance" maskUnits="userSpaceOnUse" x="0" y="0" width="362" height="23"><path d="M362 0H0V23H362V0Z" fill="white"></path></mask><g mask="url(#mask1_32_67)"><path d="M44.7329 0.397888C39.2529 0.397888 35.4062 3.32168 35.3757 7.49307C35.3375 10.5852 38.1233 12.3074 40.2223 13.3407C42.3822 14.3892 43.1072 15.0705 43.0995 16.0042C43.0767 17.4431 41.3671 18.1013 39.7795 18.1013C37.5662 18.1013 36.3832 17.7799 34.5743 16.9763L33.8568 16.6319L33.086 21.4462C34.3836 22.0431 36.7724 22.5637 39.2606 22.5942C45.0763 22.5942 48.8544 19.7087 48.9002 15.2542C48.923 12.7972 47.4423 10.945 44.2445 9.41419C42.3134 8.41919 41.1229 7.7533 41.1381 6.74298C41.1381 5.84747 42.1379 4.89073 44.3132 4.89073C46.1296 4.86012 47.4271 5.28108 48.4575 5.71736L48.9536 5.96228L49.7092 1.30105C48.6177 0.864777 46.8852 0.397888 44.7481 0.397888H44.7329ZM27.5374 0.772931L24.0722 22.2728H29.6057L33.0707 0.772931H27.5374ZM19.4319 0.795892L14.0129 15.4532L13.4328 12.4758C12.0819 8.82485 9.15876 4.99023 5.76239 3.44415L10.7234 22.2651H16.585L25.2934 0.795892H19.4319ZM59.6235 0.795892C58.2956 0.795892 57.3033 1.17858 56.7157 2.57925L48.4956 22.2804H54.3115C54.3115 22.2804 55.2655 19.6245 55.4792 19.0505C56.1126 19.0505 61.7606 19.0658 62.5696 19.0658C62.7376 19.8158 63.2413 22.2881 63.2413 22.2881H68.3854L63.9053 0.803546H59.6311L59.6235 0.795892ZM60.0128 6.5899L60.3791 8.44215C60.3791 8.44215 61.44 13.5702 61.6614 14.6495H57.0667C57.5246 13.4172 59.2724 8.64115 59.2724 8.64115C59.2419 8.70238 59.7303 7.39357 60.0052 6.5899H60.0128Z" fill="#4B4B4B"></path><path d="M8.98322 0.788269H0.0534261L0 1.15566C6.94539 2.93901 11.5247 7.3094 13.4328 12.4834L11.4942 2.60225C11.1585 1.23985 10.1891 0.841846 8.98322 0.788269Z" fill="#4B4B4B"></path><path d="M95.3733 11.4961C95.3733 7.9676 97.0142 4.82951 99.5787 2.79357C97.6934 1.2934 95.3046 0.397888 92.7172 0.397888C86.6038 0.397888 81.6504 5.36527 81.6504 11.4961C81.6504 17.6269 86.6038 22.5942 92.7172 22.5942C95.3122 22.5942 97.6934 21.6988 99.5787 20.1986C97.0218 18.1626 95.3733 15.0245 95.3733 11.4961Z" fill="#4B4B4B"></path><path d="M95.3732 11.4962C95.3732 15.0247 97.0143 18.1628 99.5787 20.1987C102.136 18.1628 103.784 15.0247 103.784 11.4962C103.784 7.96775 102.143 4.82964 99.5787 2.7937C97.0218 4.82964 95.3732 7.96775 95.3732 11.4962Z" fill="#666666"></path><path d="M135.702 8.5188C135.443 8.25856 135.138 8.05957 134.786 7.91414C134.435 7.76872 134.046 7.69983 133.626 7.69983C133.405 7.69983 133.176 7.7228 132.932 7.76106C132.695 7.79933 132.458 7.86822 132.23 7.96772C132.001 8.06722 131.779 8.19734 131.573 8.37338C131.368 8.54176 131.184 8.76372 131.031 9.02396C130.787 8.61831 130.451 8.29683 130.024 8.05957C129.604 7.82994 129.116 7.70748 128.573 7.70748C128.391 7.70748 128.199 7.7228 128.009 7.76106C127.81 7.79168 127.62 7.85291 127.429 7.9371C127.238 8.02129 127.055 8.12845 126.879 8.27388C126.704 8.41165 126.544 8.59534 126.398 8.80964V7.91414H124.857V15.2696H126.413V11.1901C126.413 10.8762 126.459 10.6007 126.559 10.3557C126.658 10.1108 126.787 9.91182 126.956 9.74342C127.123 9.5827 127.315 9.45258 127.536 9.36838C127.758 9.28419 127.994 9.23827 128.245 9.23827C128.772 9.23827 129.177 9.40666 129.467 9.73578C129.757 10.0649 129.902 10.5471 129.902 11.1671V15.2619H131.458V11.1824C131.458 10.8685 131.504 10.593 131.604 10.3481C131.703 10.1032 131.833 9.90416 132.001 9.73578C132.168 9.57504 132.36 9.44493 132.581 9.36074C132.803 9.27653 133.039 9.23061 133.29 9.23061C133.817 9.23061 134.222 9.399 134.512 9.72812C134.802 10.0572 134.947 10.5394 134.947 11.1594V15.2543H136.504V10.6313C136.504 10.2027 136.435 9.80466 136.29 9.45258C136.152 9.09284 135.947 8.78669 135.694 8.52646L135.702 8.5188Z" fill="#4B4B4B"></path><path d="M143.908 8.7792C143.655 8.45008 143.335 8.18985 142.96 7.99085C142.586 7.79185 142.128 7.69235 141.602 7.69235C141.075 7.69235 140.61 7.79185 140.16 7.98319C139.717 8.17454 139.327 8.44244 138.999 8.78686C138.671 9.13129 138.404 9.53694 138.221 10.0115C138.03 10.486 137.938 11.0065 137.938 11.5652C137.938 12.124 138.03 12.6444 138.221 13.119C138.412 13.5936 138.671 13.9991 138.999 14.3436C139.327 14.688 139.717 14.9559 140.16 15.1473C140.603 15.3386 141.083 15.4382 141.602 15.4382C142.121 15.4382 142.579 15.3386 142.96 15.1473C143.335 14.9559 143.655 14.688 143.908 14.3666V15.2467H145.51V7.89135H143.908V8.7792ZM143.846 12.5066C143.739 12.7899 143.586 13.0424 143.396 13.2491C143.204 13.4558 142.968 13.6241 142.701 13.7466C142.434 13.869 142.128 13.9302 141.8 13.9302C141.472 13.9302 141.144 13.869 140.869 13.7389C140.595 13.6165 140.365 13.4481 140.175 13.2338C139.984 13.0194 139.839 12.7745 139.74 12.4836C139.64 12.2005 139.588 11.8943 139.588 11.5728C139.588 11.2514 139.64 10.9453 139.74 10.6621C139.839 10.3789 139.984 10.1263 140.175 9.91198C140.365 9.69768 140.595 9.52929 140.869 9.40683C141.144 9.28436 141.449 9.21548 141.8 9.21548C142.151 9.21548 142.434 9.27671 142.701 9.39917C142.968 9.52163 143.204 9.68237 143.396 9.89667C143.586 10.1033 143.739 10.3559 143.846 10.6391C143.952 10.9223 144.006 11.2361 144.006 11.5728C144.006 11.9096 143.952 12.2234 143.846 12.5066Z" fill="#4B4B4B"></path><path d="M152.867 11.5576C152.417 11.2055 151.792 10.9758 150.99 10.8534L150.234 10.7386C150.066 10.7156 149.906 10.685 149.761 10.6468C149.616 10.6161 149.486 10.5702 149.379 10.509C149.273 10.4554 149.189 10.3789 149.12 10.2947C149.059 10.2105 149.02 10.1033 149.02 9.97322C149.02 9.71298 149.143 9.49867 149.387 9.33794C149.632 9.17721 149.968 9.09302 150.409 9.09302C150.639 9.09302 150.868 9.11598 151.089 9.15424C151.311 9.19251 151.524 9.24609 151.723 9.30732C151.921 9.36856 152.105 9.43744 152.264 9.51399C152.425 9.59052 152.562 9.6594 152.677 9.72829L153.363 8.47305C152.982 8.22812 152.531 8.03677 152.02 7.899C151.508 7.76123 150.967 7.69235 150.386 7.69235C149.914 7.69235 149.494 7.74593 149.12 7.86073C148.746 7.96789 148.433 8.12862 148.166 8.32762C147.906 8.52663 147.7 8.7792 147.563 9.07005C147.426 9.3609 147.349 9.69002 147.349 10.0498C147.349 10.6468 147.563 11.1213 147.983 11.4887C148.402 11.8561 149.02 12.0933 149.837 12.2082L150.601 12.3076C151.044 12.3689 151.364 12.4684 151.562 12.6062C151.769 12.7439 151.867 12.9123 151.867 13.1267C151.867 13.4021 151.73 13.6241 151.447 13.7849C151.165 13.9456 150.753 14.0298 150.196 14.0298C149.899 14.0298 149.624 14.0068 149.387 13.9686C149.151 13.9302 148.929 13.869 148.738 13.8001C148.54 13.7312 148.364 13.6548 148.211 13.5629C148.059 13.471 147.914 13.3792 147.777 13.272L147.037 14.4737C147.303 14.6727 147.578 14.8335 147.868 14.9559C148.159 15.0784 148.448 15.1778 148.723 15.2467C149.005 15.3156 149.273 15.3616 149.517 15.3845C149.768 15.4075 149.99 15.4228 150.173 15.4228C150.7 15.4228 151.173 15.3616 151.585 15.2467C152.005 15.1319 152.348 14.9636 152.631 14.7493C152.913 14.5349 153.135 14.2824 153.279 13.9916C153.425 13.7007 153.509 13.3716 153.509 13.0194C153.509 12.3919 153.287 11.902 152.837 11.55L152.867 11.5576Z" fill="#4B4B4B"></path><path d="M167.85 8.77138C167.545 8.43461 167.178 8.16672 166.758 7.98302C166.331 7.79933 165.865 7.69983 165.354 7.69983C164.812 7.69983 164.316 7.79168 163.873 7.98302C163.423 8.16672 163.041 8.43461 162.721 8.77138C162.4 9.10815 162.149 9.52146 161.973 9.99601C161.798 10.4706 161.706 10.9987 161.706 11.5727C161.706 12.1467 161.798 12.6825 161.98 13.1648C162.164 13.6392 162.423 14.0449 162.751 14.3817C163.079 14.7185 163.476 14.9787 163.935 15.1624C164.392 15.346 164.896 15.4379 165.453 15.4379C166.01 15.4379 166.536 15.3614 167.041 15.2083C167.545 15.0553 168.017 14.7874 168.468 14.4047L167.674 13.2642C167.369 13.5091 167.033 13.7005 166.659 13.8382C166.293 13.976 165.919 14.0449 165.552 14.0449C165.293 14.0449 165.041 14.0067 164.804 13.9378C164.568 13.8689 164.346 13.7541 164.156 13.601C163.965 13.4479 163.797 13.2566 163.659 13.0193C163.522 12.782 163.43 12.4989 163.377 12.1697H168.796C168.804 12.0779 168.811 11.9784 168.819 11.8789C168.819 11.7794 168.819 11.6722 168.819 11.5727C168.819 10.9987 168.735 10.4782 168.56 10.0037C168.391 9.52912 168.147 9.12346 167.85 8.77903V8.77138ZM163.377 10.9374C163.415 10.6695 163.492 10.4246 163.591 10.2027C163.69 9.9807 163.827 9.78935 163.987 9.62862C164.148 9.46788 164.339 9.34542 164.56 9.25358C164.781 9.16939 165.034 9.12346 165.324 9.12346C165.834 9.12346 166.247 9.28419 166.575 9.598C166.895 9.91182 167.102 10.3634 167.186 10.9374H163.377Z" fill="#4B4B4B"></path><path d="M189.105 8.7792C188.854 8.45008 188.533 8.18985 188.159 7.99085C187.785 7.79185 187.327 7.69235 186.801 7.69235C186.274 7.69235 185.809 7.79185 185.358 7.98319C184.915 8.17454 184.526 8.44244 184.198 8.78686C183.87 9.13129 183.603 9.53694 183.419 10.0115C183.229 10.486 183.137 11.0065 183.137 11.5652C183.137 12.124 183.229 12.6444 183.419 13.119C183.611 13.5936 183.87 13.9991 184.198 14.3436C184.526 14.688 184.915 14.9559 185.358 15.1473C185.801 15.3386 186.281 15.4382 186.801 15.4382C187.319 15.4382 187.777 15.3386 188.159 15.1473C188.541 14.9559 188.854 14.688 189.105 14.3666V15.2467H190.708V7.89135H189.105V8.7792ZM189.045 12.5066C188.938 12.7899 188.785 13.0424 188.594 13.2491C188.403 13.4558 188.167 13.6241 187.9 13.7466C187.633 13.869 187.327 13.9302 186.999 13.9302C186.671 13.9302 186.343 13.869 186.068 13.7389C185.793 13.6088 185.564 13.4481 185.374 13.2338C185.182 13.0194 185.038 12.7745 184.938 12.4836C184.839 12.2005 184.786 11.8943 184.786 11.5728C184.786 11.2514 184.839 10.9453 184.938 10.6621C185.038 10.3789 185.182 10.1263 185.374 9.91198C185.564 9.69768 185.793 9.52929 186.068 9.40683C186.343 9.28436 186.648 9.21548 186.999 9.21548C187.35 9.21548 187.633 9.27671 187.9 9.39917C188.167 9.52163 188.403 9.68237 188.594 9.89667C188.785 10.1033 188.938 10.3559 189.045 10.6391C189.151 10.9223 189.205 11.2361 189.205 11.5728C189.205 11.9096 189.151 12.2234 189.045 12.5066Z" fill="#4B4B4B"></path><path d="M159.728 13.7767C159.469 13.8762 159.218 13.9221 158.966 13.9221C158.805 13.9221 158.652 13.8991 158.508 13.8456C158.37 13.792 158.249 13.7155 158.142 13.6007C158.034 13.4935 157.95 13.3481 157.89 13.172C157.829 12.996 157.798 12.7893 157.798 12.5444V9.34507H160.37V7.88317H157.798V5.65588H156.187V7.88317H154.722V9.34507H156.187V12.575C156.187 13.5547 156.417 14.2741 156.882 14.7334C157.348 15.2003 157.988 15.4299 158.821 15.4299C159.287 15.4299 159.705 15.3611 160.072 15.2156C160.317 15.1238 160.545 15.0089 160.76 14.8942L160.21 13.5471C160.057 13.6312 159.889 13.7078 159.721 13.769L159.728 13.7767Z" fill="#4B4B4B"></path><path d="M174.169 7.70001C173.718 7.70001 173.314 7.7842 172.948 7.94493C172.59 8.10566 172.284 8.50366 172.04 8.85575V7.89135H170.589V15.2467H172.055V11.1978C172.055 10.884 172.101 10.6085 172.185 10.3636C172.268 10.1186 172.391 9.91198 172.544 9.7436C172.696 9.57521 172.88 9.44509 173.093 9.3609C173.306 9.27671 173.543 9.23079 173.795 9.23079C173.986 9.23079 174.2 9.25375 174.421 9.29967C174.535 9.32264 174.643 9.35325 174.741 9.38386L175.215 7.84542C175.085 7.80716 174.955 7.76889 174.825 7.74593C174.627 7.71531 174.405 7.69235 174.161 7.69235L174.169 7.70001Z" fill="#4B4B4B"></path><path d="M196.417 7.70001C195.967 7.70001 195.562 7.7842 195.196 7.94493C194.837 8.10566 194.532 8.50366 194.288 8.85575V7.89135H192.838V15.2467H194.303V11.1978C194.303 10.884 194.349 10.6085 194.433 10.3636C194.516 10.1186 194.639 9.91198 194.792 9.7436C194.944 9.57521 195.128 9.44509 195.341 9.3609C195.554 9.27671 195.792 9.23079 196.043 9.23079C196.235 9.23079 196.448 9.25375 196.669 9.29967C196.784 9.32264 196.891 9.35325 196.989 9.38386L197.463 7.84542C197.333 7.80716 197.204 7.76889 197.073 7.74593C196.876 7.71531 196.653 7.69235 196.41 7.69235L196.417 7.70001Z" fill="#4B4B4B"></path><path d="M203.889 4.89862V8.77915C203.638 8.45003 203.317 8.1898 202.943 7.9908C202.561 7.79179 202.111 7.6923 201.585 7.6923C201.058 7.6923 200.592 7.79179 200.142 7.98314C199.699 8.17449 199.31 8.44237 198.982 8.7868C198.654 9.13122 198.386 9.53689 198.203 10.0114C198.013 10.486 197.921 11.0065 197.921 11.5652C197.921 12.1239 198.013 12.6444 198.203 13.1189C198.393 13.5934 198.654 13.9991 198.982 14.3436C199.31 14.688 199.699 14.9559 200.142 15.1472C200.584 15.3386 201.065 15.438 201.585 15.438C202.103 15.438 202.561 15.3386 202.943 15.1472C203.317 14.9559 203.638 14.688 203.889 14.3664V15.2467H205.492V4.89862H203.889ZM203.828 12.5066C203.722 12.7897 203.569 13.0424 203.378 13.249C203.187 13.4557 202.951 13.6241 202.684 13.7465C202.416 13.869 202.111 13.9302 201.783 13.9302C201.455 13.9302 201.127 13.869 200.852 13.7389C200.576 13.6164 200.348 13.448 200.158 13.2338C199.966 13.0194 199.821 12.7745 199.722 12.4836C199.623 12.2004 199.569 11.8943 199.569 11.5728C199.569 11.2514 199.623 10.9452 199.722 10.662C199.821 10.3788 199.966 10.1262 200.158 9.91193C200.348 9.69761 200.576 9.52923 200.852 9.40677C201.127 9.2843 201.432 9.21542 201.783 9.21542C202.134 9.21542 202.416 9.27665 202.684 9.39912C202.951 9.52158 203.187 9.68231 203.378 9.89662C203.569 10.1033 203.722 10.3559 203.828 10.639C203.935 10.9222 203.989 11.236 203.989 11.5728C203.989 11.9096 203.935 12.2234 203.828 12.5066Z" fill="#4B4B4B"></path><path d="M178 9.86589C178.207 9.65923 178.451 9.49851 178.725 9.38369C179.008 9.26889 179.314 9.20765 179.634 9.20765C179.993 9.20765 180.328 9.26889 180.634 9.38369C180.931 9.49851 181.191 9.65158 181.412 9.85058L182.183 8.56473C181.894 8.33511 181.572 8.14376 181.206 7.99834C180.725 7.79933 180.198 7.69983 179.634 7.69983C179.069 7.69983 178.543 7.79933 178.061 7.99834C177.581 8.19734 177.161 8.46523 176.81 8.80964C176.459 9.15408 176.184 9.55973 175.986 10.0343C175.788 10.5088 175.688 11.0139 175.688 11.5727C175.688 12.1314 175.788 12.6366 175.986 13.1111C176.184 13.5857 176.459 13.9913 176.81 14.3358C177.161 14.6803 177.574 14.9557 178.061 15.147C178.55 15.3385 179.069 15.4456 179.634 15.4456C180.198 15.4456 180.725 15.346 181.206 15.147C181.564 15.0017 181.894 14.8104 182.183 14.5807L181.412 13.2949C181.191 13.4939 180.931 13.6469 180.634 13.7617C180.328 13.8766 179.993 13.9378 179.634 13.9378C179.306 13.9378 179.001 13.8766 178.725 13.7617C178.443 13.6469 178.199 13.4862 178 13.2796C177.794 13.0729 177.634 12.8203 177.52 12.5371C177.405 12.2463 177.344 11.9324 177.344 11.5804C177.344 11.2283 177.405 10.9145 177.52 10.6236C177.634 10.3328 177.794 10.0879 178 9.88119V9.86589Z" fill="#4B4B4B"></path><path d="M116.63 17.5729V17.1978H116.477V17.0906H116.896V17.1978H116.743V17.5729H116.63ZM117.438 17.5729V17.2361L117.332 17.5269H117.209L117.102 17.2361V17.5729H116.988V17.0906H117.148L117.27 17.3968L117.392 17.0906H117.553V17.5729H117.438Z" fill="#4B4B4B"></path><path d="M207.492 14.5418C207.576 14.5418 207.645 14.5571 207.72 14.5878C207.789 14.6184 207.85 14.6567 207.904 14.7103C207.958 14.7638 207.996 14.8174 208.026 14.8863C208.057 14.9552 208.072 15.024 208.072 15.1083C208.072 15.1925 208.057 15.2613 208.026 15.3302C207.996 15.3991 207.958 15.4603 207.904 15.5139C207.85 15.5675 207.789 15.6057 207.72 15.6364C207.652 15.6669 207.576 15.6823 207.492 15.6823C207.407 15.6823 207.332 15.6669 207.263 15.6364C207.194 15.6057 207.133 15.5675 207.079 15.5139C207.026 15.4603 206.989 15.3991 206.958 15.3302C206.927 15.2613 206.912 15.1848 206.912 15.1083C206.912 15.0317 206.927 14.9552 206.958 14.8863C206.989 14.8174 207.026 14.7561 207.079 14.7103C207.133 14.6567 207.194 14.6184 207.263 14.5878C207.332 14.5571 207.407 14.5418 207.492 14.5418ZM207.492 15.5139C207.545 15.5139 207.599 15.5063 207.652 15.4833C207.706 15.4603 207.743 15.4297 207.781 15.3991C207.82 15.3608 207.85 15.3226 207.866 15.2689C207.889 15.223 207.896 15.1695 207.896 15.1083C207.896 15.047 207.889 15.001 207.866 14.9475C207.843 14.8939 207.82 14.8557 207.781 14.8174C207.743 14.7791 207.706 14.7485 207.652 14.7333C207.606 14.7103 207.553 14.7026 207.492 14.7026C207.43 14.7026 207.377 14.7103 207.332 14.7333C207.278 14.7561 207.24 14.7868 207.202 14.8174C207.164 14.8557 207.133 14.8939 207.118 14.9475C207.095 15.001 207.087 15.047 207.087 15.1083C207.087 15.1695 207.095 15.2154 207.118 15.2689C207.141 15.3149 207.171 15.3608 207.202 15.3991C207.24 15.4374 207.278 15.4679 207.332 15.4833C207.384 15.5063 207.438 15.5139 207.492 15.5139ZM207.522 14.8557C207.591 14.8557 207.645 14.8709 207.675 14.9016C207.714 14.9322 207.728 14.9705 207.728 15.024C207.728 15.0624 207.714 15.1006 207.691 15.1236C207.668 15.1465 207.629 15.1695 207.576 15.1772L207.728 15.3532H207.561L207.423 15.1772H207.407V15.3532H207.271V14.8557H207.522ZM207.415 14.9782V15.0699H207.522C207.522 15.0699 207.561 15.0699 207.576 15.0624C207.591 15.0624 207.591 15.047 207.591 15.024C207.591 15.0087 207.591 14.9935 207.576 14.9858C207.561 14.9858 207.545 14.9782 207.522 14.9782H207.415Z" fill="#4B4B4B"></path><path d="M106.44 0.397888C103.845 0.397888 101.464 1.2934 99.5786 2.79357C102.135 4.82951 103.784 7.9676 103.784 11.4961C103.784 15.0245 102.143 18.1626 99.5786 20.1986C101.464 21.6988 103.853 22.5942 106.44 22.5942C112.554 22.5942 117.507 17.6269 117.507 11.4961C117.507 5.36527 112.554 0.397888 106.44 0.397888Z" fill="#4B4B4B"></path><path d="M230.342 5.30386C230.992 5.08956 231.687 4.9671 232.412 4.9671C235.564 4.9671 238.188 7.20969 238.792 10.1947L243.256 9.2839C242.234 4.21702 237.769 0.405365 232.412 0.405365C231.182 0.405365 230.007 0.604366 228.9 0.971754L230.342 5.30386Z" fill="#4B4B4B"></path><path d="M225.077 19.8159L228.099 16.3946C226.748 15.2006 225.901 13.4479 225.901 11.5037C225.901 9.55964 226.748 7.81456 228.099 6.61289L225.077 3.19159C222.786 5.22753 221.344 8.19725 221.344 11.5037C221.344 14.8102 222.786 17.7877 225.077 19.8159Z" fill="#4B4B4B"></path><path d="M238.792 12.8125C238.188 15.7899 235.564 18.0326 232.412 18.0326C231.687 18.0326 230.992 17.9177 230.342 17.6958L228.9 22.0279C230.007 22.3952 231.182 22.5942 232.412 22.5942C237.762 22.5942 242.226 18.7902 243.256 13.7233L238.792 12.8049V12.8125Z" fill="#4B4B4B"></path><path d="M247.156 16.5321C247.012 16.2949 246.813 15.9122 246.691 15.6366C245.982 13.991 245.951 12.2842 246.546 10.6539C247.202 8.86288 248.454 7.48518 250.08 6.78867C252.118 5.90847 254.369 6.08451 256.323 7.24791C257.559 7.95972 258.445 9.06188 259.109 10.6233C259.193 10.8223 259.27 11.0366 259.337 11.2203L247.156 16.5474V16.5321ZM251.225 9.42927C249.775 10.0492 249.034 11.4116 249.187 13.0113L255.316 10.363C254.263 9.12312 252.888 8.70981 251.225 9.42927ZM256.079 15.1851L255.949 15.1008C255.583 15.6978 255.011 16.18 254.293 16.4939C252.926 17.0909 251.652 16.9378 250.743 16.1341L250.66 16.2642L249.103 18.5987C249.492 18.8666 249.905 19.0961 250.34 19.2798C252.057 19.9916 253.812 19.9611 255.545 19.2109C256.797 18.6676 257.781 17.8332 258.453 16.7846L256.087 15.2003L256.079 15.1851Z" fill="#4B4B4B"></path><path d="M263.605 3.35202V16.3177L265.612 17.1367L264.467 19.8079L262.245 18.8818C261.75 18.6674 261.407 18.3383 261.154 17.9633C260.91 17.5806 260.727 17.0602 260.727 16.3561V3.35202H263.597H263.605Z" fill="#4B4B4B"></path><path d="M268.81 13.0193C268.81 11.9172 269.298 10.9221 270.07 10.2486L268.008 7.94476C266.611 9.18469 265.727 10.9987 265.727 13.0117C265.727 15.0323 266.604 16.8463 268 18.0862L270.062 15.7747C269.298 15.1011 268.81 14.1138 268.817 13.0117L268.81 13.0193Z" fill="#4B4B4B"></path><path d="M272.473 16.6925C272.069 16.6925 271.679 16.6236 271.313 16.5012L270.329 19.4402C271 19.6699 271.725 19.7924 272.473 19.7924C275.74 19.7924 278.464 17.4732 279.098 14.381L276.068 13.7611C275.725 15.4373 274.244 16.6925 272.473 16.6925Z" fill="#4B4B4B"></path><path d="M272.481 6.24521C271.733 6.24521 271.008 6.36767 270.336 6.58963L271.313 9.52873C271.679 9.40627 272.069 9.33738 272.473 9.33738C274.252 9.33738 275.725 10.6079 276.061 12.2842L279.09 11.6718C278.464 8.57965 275.74 6.24521 272.473 6.24521H272.481Z" fill="#4B4B4B"></path><path d="M323.922 21.8825C323.701 21.8825 323.518 21.6989 323.518 21.4768V8.28151C323.518 5.63325 325.662 3.48251 328.303 3.48251H332.188C334.822 3.49017 336.959 5.64091 336.959 8.28151V11.0905C336.959 13.7388 334.814 15.8895 332.173 15.8895H326.686C326.464 15.8895 326.281 15.7058 326.281 15.4838C326.281 15.2619 326.464 15.0781 326.686 15.0781H332.173C334.363 15.0781 336.149 13.2872 336.149 11.0905V8.28151C336.149 6.0925 334.371 4.30148 332.188 4.30148H328.303C326.113 4.30148 324.327 6.08484 324.327 8.28151V21.4692C324.327 21.6912 324.144 21.8749 323.922 21.8749V21.8825Z" fill="#4B4B4B"></path><path d="M341.125 15.9507C340.904 15.9507 340.721 15.767 340.721 15.545V5.69449C340.721 4.92145 340.095 4.29382 339.324 4.29382H337.638C337.417 4.29382 337.233 4.11013 337.233 3.88817C337.233 3.66621 337.417 3.48251 337.638 3.48251H339.324C340.538 3.48251 341.53 4.47752 341.53 5.69449V15.545C341.53 15.767 341.347 15.9507 341.125 15.9507Z" fill="#4B4B4B"></path><path d="M340.759 2.36528L339.996 1.59989C339.805 1.40854 339.805 1.10239 339.996 0.911038L340.759 0.145647C340.95 -0.0457008 341.256 -0.0457008 341.446 0.145647L342.209 0.911038C342.401 1.10239 342.401 1.40854 342.209 1.59989L341.446 2.36528C341.256 2.55663 340.95 2.55663 340.759 2.36528Z" fill="#4B4B4B"></path><path d="M353.139 9.53694C352.704 9.53694 352.269 9.36855 351.933 9.03943L348.025 5.12063C347.49 4.58485 346.781 4.28636 346.018 4.28636H344.346C344.125 4.28636 343.942 4.10266 343.942 3.88069C343.942 3.65873 344.125 3.47504 344.346 3.47504H346.018C346.995 3.47504 347.91 3.85773 348.597 4.54658L352.505 8.46539C352.857 8.80981 353.421 8.81747 353.765 8.46539L357.657 4.5619C358.344 3.87305 359.26 3.49035 360.237 3.49035H361.595C361.817 3.49035 362 3.67404 362 3.896C362 4.11796 361.817 4.30166 361.595 4.30166H360.237C359.481 4.30166 358.772 4.60016 358.23 5.13593L354.337 9.03943C354.009 9.36855 353.574 9.53694 353.132 9.53694H353.139Z" fill="#4B4B4B"></path><path d="M346.026 15.8664H344.354C344.133 15.8664 343.949 15.6827 343.949 15.4607C343.949 15.2388 344.133 15.0552 344.354 15.0552H346.026C346.781 15.0552 347.498 14.7566 348.033 14.2208L351.941 10.302C352.604 9.63614 353.681 9.63614 354.344 10.302L358.237 14.2055C358.772 14.7413 359.481 15.0398 360.245 15.0398H361.603C361.824 15.0398 362.008 15.2235 362.008 15.4455C362.008 15.6674 361.824 15.8511 361.603 15.8511H360.245C359.268 15.8511 358.359 15.4684 357.665 14.7796L353.772 10.8761C353.429 10.524 352.864 10.524 352.513 10.8761L348.605 14.7948C347.918 15.4837 347.003 15.8664 346.026 15.8664Z" fill="#4B4B4B"></path><path d="M313.962 17.9641C313.122 17.9641 312.337 17.635 311.741 17.0456L308.536 13.831C308.315 13.6013 307.918 13.609 307.697 13.831L304.482 17.0533C303.887 17.6503 303.101 17.9717 302.262 17.9717H301.628L305.689 22.0436C306.956 23.3141 309.009 23.3141 310.283 22.0436L314.352 17.9641H313.962Z" fill="#4B4B4B"></path><path d="M302.262 6.59047C303.101 6.59047 303.887 6.91959 304.482 7.50894L307.697 10.7389C307.925 10.9685 308.307 10.9685 308.536 10.7389L311.741 7.52425C312.337 6.92725 313.122 6.60578 313.962 6.60578H314.352L310.283 2.52624C309.017 1.2557 306.964 1.2557 305.689 2.52624L301.628 6.59813H302.262V6.59047Z" fill="#4B4B4B"></path><path d="M317.718 9.98058L315.259 7.51602C315.207 7.53897 315.146 7.55428 315.084 7.55428H313.962C313.383 7.55428 312.817 7.79156 312.413 8.19721L309.207 11.4118C308.91 11.7104 308.513 11.8634 308.116 11.8634C307.719 11.8634 307.33 11.7104 307.024 11.4118L303.803 8.1819C303.392 7.76859 302.827 7.53897 302.255 7.53897H300.881C300.82 7.53897 300.766 7.52367 300.713 7.50836L298.24 9.98822C296.972 11.2588 296.972 13.3176 298.24 14.5959L300.713 17.0757C300.766 17.0527 300.82 17.0452 300.881 17.0452H302.255C302.834 17.0452 303.399 16.8078 303.803 16.4022L307.016 13.1799C307.597 12.5982 308.612 12.5982 309.192 13.1799L312.397 16.3945C312.81 16.8078 313.375 17.0375 313.947 17.0375H315.069C315.13 17.0375 315.192 17.0527 315.244 17.0757L317.703 14.6112C318.969 13.3406 318.969 11.2817 317.703 10.0035" fill="#4B4B4B"></path><path d="M327.265 20.3525C327.082 20.3525 326.876 20.3984 326.663 20.4442V21.2479C326.807 21.3015 326.976 21.3245 327.128 21.3245C327.532 21.3245 327.724 21.1867 327.724 20.8346C327.724 20.4978 327.571 20.3525 327.265 20.3525ZM326.525 21.8449V20.2529H326.632L326.648 20.3218C326.83 20.2759 327.089 20.2224 327.273 20.2224C327.425 20.2224 327.563 20.2452 327.685 20.3448C327.822 20.4596 327.868 20.6433 327.868 20.8346C327.868 21.0259 327.799 21.2403 327.609 21.3475C327.479 21.4239 327.304 21.4546 327.143 21.4546C326.983 21.4546 326.823 21.4316 326.663 21.378V21.8449H326.525Z" fill="#4B4B4B"></path><path d="M328.875 20.3522C328.472 20.3522 328.296 20.4824 328.296 20.8345C328.296 21.1865 328.472 21.3319 328.875 21.3319C329.28 21.3319 329.456 21.2095 329.456 20.8498C329.456 20.49 329.28 20.3522 328.875 20.3522ZM329.395 21.3319C329.265 21.4315 329.082 21.4544 328.875 21.4544C328.67 21.4544 328.486 21.4238 328.357 21.3319C328.212 21.2248 328.15 21.0564 328.15 20.8421C328.15 20.6278 328.212 20.4595 328.357 20.3522C328.486 20.2605 328.67 20.2298 328.875 20.2298C329.082 20.2298 329.257 20.2605 329.395 20.3522C329.548 20.4595 329.6 20.6278 329.6 20.8421C329.6 21.0564 329.54 21.2325 329.395 21.3319Z" fill="#4B4B4B"></path><path d="M331.296 21.4156L330.845 20.4513H330.837L330.394 21.4156H330.273L329.792 20.2523H329.944L330.341 21.2319H330.349L330.784 20.2523H330.906L331.349 21.2319H331.356L331.745 20.2523H331.891L331.409 21.4156H331.288H331.296Z" fill="#4B4B4B"></path><path d="M332.761 20.3448C332.387 20.3448 332.265 20.5131 332.242 20.7505H333.287C333.28 20.4826 333.143 20.3448 332.769 20.3448M332.769 21.4469C332.547 21.4469 332.402 21.4164 332.288 21.3168C332.15 21.202 332.104 21.0259 332.104 20.8346C332.104 20.6433 332.165 20.4519 332.318 20.3371C332.447 20.2452 332.608 20.2224 332.769 20.2224C332.921 20.2224 333.089 20.2376 333.234 20.3371C333.402 20.4519 333.433 20.6509 333.433 20.8729H332.242C332.242 21.1102 332.326 21.3245 332.776 21.3245C332.99 21.3245 333.188 21.2862 333.379 21.2556V21.378C333.188 21.4164 332.974 21.4469 332.769 21.4469Z" fill="#4B4B4B"></path><path d="M333.814 21.4163V20.2529H333.92L333.936 20.3218C334.181 20.2606 334.294 20.2224 334.516 20.2224H334.532V20.3525H334.501C334.317 20.3525 334.211 20.3754 333.951 20.4442V21.4163H333.814Z" fill="#4B4B4B"></path><path d="M335.317 20.3448C334.944 20.3448 334.822 20.5131 334.799 20.7505H335.844C335.837 20.4826 335.699 20.3448 335.325 20.3448M335.325 21.4469C335.104 21.4469 334.958 21.4164 334.845 21.3168C334.707 21.202 334.661 21.0259 334.661 20.8346C334.661 20.6433 334.722 20.4519 334.875 20.3371C335.004 20.2452 335.165 20.2224 335.325 20.2224C335.478 20.2224 335.646 20.2376 335.791 20.3371C335.959 20.4519 335.99 20.6509 335.99 20.8729H334.799C334.799 21.1102 334.883 21.3245 335.332 21.3245C335.547 21.3245 335.745 21.2862 335.936 21.2556V21.378C335.745 21.4164 335.531 21.4469 335.325 21.4469Z" fill="#4B4B4B"></path><path d="M337.462 20.4283C337.317 20.3747 337.149 20.3517 336.997 20.3517C336.592 20.3517 336.401 20.4895 336.401 20.8416C336.401 21.1784 336.554 21.3238 336.859 21.3238C337.043 21.3238 337.248 21.2778 337.462 21.232V20.4283ZM337.485 21.4233L337.469 21.3544C337.287 21.4004 337.027 21.454 336.844 21.454C336.692 21.454 336.554 21.431 336.431 21.3315C336.295 21.2166 336.249 21.0329 336.249 20.8416C336.249 20.6503 336.318 20.4359 336.508 20.3288C336.638 20.2523 336.813 20.2216 336.974 20.2216C337.134 20.2216 337.294 20.2523 337.455 20.2982V19.7624H337.592V21.4156H337.485V21.4233Z" fill="#4B4B4B"></path><path d="M339.584 20.3525C339.401 20.3525 339.195 20.3984 338.981 20.4444V21.2481C339.126 21.3016 339.294 21.3322 339.447 21.3322C339.851 21.3322 340.042 21.1944 340.042 20.8424C340.042 20.5056 339.89 20.3602 339.584 20.3602M339.928 21.3552C339.798 21.4317 339.622 21.4623 339.462 21.4623C339.286 21.4623 339.119 21.4317 338.942 21.3782V21.4317H338.844V19.7785H338.981V20.3372C339.164 20.2989 339.416 20.2377 339.592 20.2377C339.744 20.2377 339.882 20.2607 340.003 20.3602C340.141 20.4749 340.187 20.6587 340.187 20.8501C340.187 21.0414 340.118 21.2556 339.928 21.3628" fill="#4B4B4B"></path><path d="M340.37 21.8671V21.737C340.439 21.737 340.5 21.7523 340.546 21.7523C340.713 21.7523 340.813 21.7063 340.912 21.515L340.958 21.4232L340.354 20.2597H340.507L341.027 21.2624H341.034L341.53 20.2597H341.683L341.034 21.5686C340.912 21.8059 340.782 21.8824 340.546 21.8824C340.492 21.8824 340.439 21.8824 340.377 21.8671" fill="#4B4B4B"></path><path d="M343.545 20.7577H343.095V21.1634H343.545C343.858 21.1634 343.972 21.1251 343.972 20.9567C343.972 20.7731 343.813 20.7577 343.545 20.7577ZM343.461 20.0995H343.095V20.5128H343.461C343.767 20.5128 343.889 20.4745 343.889 20.3062C343.889 20.1225 343.736 20.0995 343.461 20.0995ZM344.156 21.3165C343.987 21.4236 343.79 21.4236 343.423 21.4236H342.736V19.8469H343.408C343.721 19.8469 343.919 19.8469 344.079 19.9464C344.194 20.0153 344.24 20.1225 344.24 20.2603C344.24 20.4286 344.171 20.5357 343.987 20.6123C344.187 20.6658 344.323 20.7731 344.323 20.995C344.323 21.1481 344.27 21.2476 344.156 21.3165Z" fill="#4B4B4B"></path><path d="M345.697 20.9341C345.56 20.9188 345.422 20.9188 345.278 20.9188C345.041 20.9188 344.958 20.9647 344.958 21.0719C344.958 21.1714 345.025 21.2249 345.209 21.2249C345.361 21.2249 345.545 21.1867 345.697 21.156V20.9341ZM345.766 21.4239V21.355C345.56 21.401 345.332 21.4546 345.125 21.4546C345.002 21.4546 344.866 21.4393 344.774 21.3704C344.69 21.3092 344.644 21.2097 344.644 21.0873C344.644 20.957 344.705 20.8346 344.843 20.7734C344.965 20.7121 345.125 20.7121 345.278 20.7121C345.399 20.7121 345.56 20.7121 345.697 20.7275V20.7045C345.697 20.5208 345.575 20.4596 345.255 20.4596C345.125 20.4596 344.973 20.4596 344.827 20.4826V20.2452C344.987 20.23 345.171 20.2224 345.324 20.2224C345.522 20.2224 345.735 20.2376 345.865 20.3295C345.995 20.4214 346.026 20.5591 346.026 20.7275V21.4163H345.773L345.766 21.4239Z" fill="#4B4B4B"></path><path d="M347.536 21.4163V20.7734C347.536 20.5591 347.43 20.4826 347.239 20.4826C347.095 20.4826 346.918 20.5208 346.765 20.5591V21.4163H346.445V20.2529H346.713V20.3295C346.926 20.2759 347.155 20.2224 347.346 20.2224C347.49 20.2224 347.636 20.2452 347.743 20.3448C347.835 20.429 347.872 20.5438 347.872 20.7121V21.4239H347.552L347.536 21.4163Z" fill="#4B4B4B"></path><path d="M348.773 21.4544C348.62 21.4544 348.461 21.4315 348.338 21.3319C348.194 21.2172 348.155 21.0335 348.155 20.8421C348.155 20.6585 348.216 20.4595 348.392 20.3446C348.537 20.2528 348.712 20.2298 348.903 20.2298C349.033 20.2298 349.17 20.2375 349.315 20.2528V20.5054C349.201 20.4977 349.056 20.4824 348.948 20.4824C348.643 20.4824 348.499 20.5819 348.499 20.8498C348.499 21.1024 348.605 21.2095 348.858 21.2095C349.002 21.2095 349.178 21.1789 349.345 21.1483V21.3855C349.163 21.4238 348.964 21.4621 348.781 21.4621" fill="#4B4B4B"></path><path d="M350.3 20.4672C349.995 20.4672 349.857 20.5667 349.857 20.8269C349.857 21.0873 349.987 21.202 350.3 21.202C350.613 21.202 350.734 21.1102 350.734 20.8423C350.734 20.5744 350.605 20.4596 350.3 20.4596M350.857 21.3245C350.712 21.4239 350.529 21.4469 350.3 21.4469C350.07 21.4469 349.88 21.4164 349.742 21.3245C349.583 21.2174 349.521 21.0413 349.521 20.8346C349.521 20.6279 349.583 20.4442 349.742 20.3448C349.88 20.2529 350.07 20.2224 350.3 20.2224C350.529 20.2224 350.712 20.2529 350.857 20.3448C351.018 20.4519 351.071 20.6279 351.071 20.8346C351.071 21.0413 351.01 21.2249 350.857 21.3245Z" fill="#4B4B4B"></path><path d="M352.94 21.454C352.742 21.454 352.536 21.4234 352.376 21.2933C352.184 21.1402 352.132 20.8953 352.132 20.6351C352.132 20.4054 352.207 20.1298 352.452 19.9615C352.643 19.839 352.879 19.8084 353.116 19.8084C353.291 19.8084 353.467 19.8237 353.665 19.839V20.1223C353.498 20.1069 353.291 20.0993 353.132 20.0993C352.681 20.0993 352.491 20.2676 352.491 20.6351C352.491 21.0024 352.666 21.1709 353.001 21.1709C353.216 21.1709 353.46 21.1249 353.704 21.079V21.3622C353.46 21.4081 353.208 21.4616 352.948 21.4616" fill="#4B4B4B"></path><path d="M354.651 20.429C354.383 20.429 354.277 20.5285 354.261 20.7045H355.039C355.031 20.5131 354.917 20.429 354.651 20.429ZM354.605 21.4469C354.413 21.4469 354.238 21.4239 354.116 21.3168C353.978 21.202 353.933 21.0259 353.933 20.8346C353.933 20.6586 353.993 20.4596 354.154 20.3448C354.298 20.2452 354.475 20.2224 354.665 20.2224C354.833 20.2224 355.024 20.2376 355.169 20.3371C355.353 20.4672 355.368 20.6739 355.375 20.9111H354.277C354.277 21.0873 354.375 21.202 354.703 21.202C354.902 21.202 355.131 21.1714 355.322 21.1408V21.3704C355.1 21.4087 354.856 21.4469 354.628 21.4469" fill="#4B4B4B"></path><path d="M356.795 21.4163V20.7734C356.795 20.5591 356.688 20.4826 356.497 20.4826C356.352 20.4826 356.176 20.5208 356.024 20.5591V21.4163H355.704V20.2529H355.971L355.986 20.3295C356.192 20.2759 356.421 20.2224 356.604 20.2224C356.749 20.2224 356.894 20.2452 357.001 20.3448C357.093 20.429 357.131 20.5438 357.131 20.7121V21.4239H356.809L356.795 21.4163Z" fill="#4B4B4B"></path><path d="M358.039 21.4542C357.886 21.4542 357.741 21.4082 357.665 21.2857C357.604 21.2015 357.581 21.0867 357.581 20.9336V20.4974H357.344V20.2525H357.581L357.619 19.9004H357.909V20.2525H358.367V20.4974H357.909V20.8724C357.909 20.9643 357.909 21.0408 357.939 21.0944C357.978 21.1709 358.046 21.2015 358.154 21.2015C358.23 21.2015 358.321 21.1863 358.382 21.1786V21.4082C358.275 21.4312 358.154 21.4465 358.046 21.4465" fill="#4B4B4B"></path><path d="M358.672 21.4163V20.2529H358.94L358.954 20.3295C359.169 20.2682 359.328 20.2224 359.527 20.2224C359.535 20.2224 359.55 20.2224 359.565 20.2224V20.4978C359.565 20.4978 359.481 20.4978 359.451 20.4978C359.291 20.4978 359.176 20.5131 358.992 20.5591V21.4163H358.672Z" fill="#4B4B4B"></path><path d="M360.741 20.9341C360.603 20.9188 360.466 20.9188 360.321 20.9188C360.084 20.9188 360.001 20.9647 360.001 21.0719C360.001 21.1714 360.069 21.2249 360.252 21.2249C360.404 21.2249 360.588 21.1867 360.741 21.156V20.9341ZM360.809 21.4239V21.355C360.603 21.401 360.375 21.4546 360.168 21.4546C360.046 21.4546 359.909 21.4393 359.817 21.3704C359.733 21.3092 359.687 21.2097 359.687 21.0873C359.687 20.957 359.748 20.8346 359.886 20.7734C360.008 20.7121 360.168 20.7121 360.321 20.7121C360.443 20.7121 360.603 20.7121 360.741 20.7275V20.7045C360.741 20.5208 360.619 20.4596 360.298 20.4596C360.168 20.4596 360.016 20.4596 359.871 20.4826V20.2452C360.03 20.23 360.214 20.2224 360.367 20.2224C360.565 20.2224 360.778 20.2376 360.909 20.3295C361.039 20.4214 361.069 20.5591 361.069 20.7275V21.4163H360.817L360.809 21.4239Z" fill="#4B4B4B"></path><path d="M361.48 19.7624H361.802V21.4156H361.48V19.7624Z" fill="#4B4B4B"></path></g></g></g><defs><clipPath id="clip0_32_67"><rect width="362" height="23" fill="white"></rect></clipPath></defs></svg>