<svg xmlns="http://www.w3.org/2000/svg" width="109" height="109" viewBox="0 0 109 109" fill="none"><g id="Group 4"><rect id="retangulo2" x="27.2339" width="85.4449" height="85.4449" rx="12" transform="rotate(18.5862 27.2339 0)" fill="#ECECEC"></rect><rect id="retangulo1" x="33.9796" y="13.5808" width="64" height="64" rx="12" transform="rotate(18.5862 33.9796 13.5808)" fill="white"></rect><path id="vetor" d="M56.0001 66C55.7837 66 55.5732 65.9298 55.4001 65.8L51.4001 62.8C51.2759 62.7069 51.1751 62.5861 51.1056 62.4472C51.0362 62.3084 51.0001 62.1552 51.0001 62V56.38L43.9841 48.487C43.4858 47.9249 43.1605 47.2308 43.0472 46.4882C42.9339 45.7457 43.0374 44.9862 43.3454 44.301C43.6534 43.6159 44.1527 43.0343 44.7833 42.6261C45.4138 42.2179 46.1489 42.0005 46.9001 42H61.1001C61.8512 42.0009 62.5861 42.2186 63.2164 42.6271C63.8467 43.0356 64.3457 43.6174 64.6533 44.3026C64.961 44.9878 65.0642 45.7473 64.9506 46.4897C64.8371 47.2322 64.5115 47.9261 64.0131 48.488L57.0001 56.38V65C57.0001 65.2652 56.8947 65.5196 56.7072 65.7071C56.5196 65.8946 56.2653 66 56.0001 66ZM53.0001 61.5L55.0001 63V56C55.0003 55.7552 55.0903 55.5189 55.2531 55.336L62.5211 47.159C62.7634 46.8851 62.9216 46.547 62.9765 46.1855C63.0315 45.8239 62.9809 45.4541 62.8308 45.1206C62.6808 44.787 62.4377 44.5039 62.1307 44.3051C61.8237 44.1063 61.4658 44.0004 61.1001 44H46.9001C46.5345 44.0006 46.1769 44.1065 45.8701 44.3053C45.5633 44.504 45.3203 44.787 45.1703 45.1204C45.0203 45.4537 44.9696 45.8233 45.0244 46.1847C45.0792 46.5461 45.237 46.8841 45.4791 47.158L52.7481 55.336C52.9105 55.519 53.0001 55.7553 53.0001 56V61.5Z" fill="#5F05BC"></path></g></svg>