<svg xmlns="http://www.w3.org/2000/svg" width="109" height="109" viewBox="0 0 109 109" fill="none"><g id="Group 4"><rect id="retangulo2" x="27.7339" width="85.4449" height="85.4449" rx="12" transform="rotate(18.5862 27.7339 0)" fill="#ECECEC"></rect><rect id="retangulo1" x="34.4796" y="13.5808" width="64" height="64" rx="12" transform="rotate(18.5862 34.4796 13.5808)" fill="white"></rect><g id="vetor"><path d="M65.4998 45.976H62.4138C62.2161 45.9761 62.0228 46.0348 61.8584 46.1446C61.694 46.2545 61.5658 46.4107 61.4902 46.5934C61.4145 46.7761 61.3947 46.9771 61.4333 47.1711C61.4718 47.365 61.567 47.5432 61.7068 47.683L62.7928 48.769L59.2068 52.354C59.0163 52.5361 58.7629 52.6378 58.4993 52.6378C58.2358 52.6378 57.9824 52.5361 57.7918 52.354L57.6218 52.183C57.0505 51.6371 56.2906 51.3325 55.5003 51.3325C54.7101 51.3325 53.9502 51.6371 53.3788 52.183L48.2788 57.283C48.0909 57.4715 47.9856 57.7268 47.986 57.993C47.9863 58.2591 48.0924 58.5141 48.2808 58.702C48.4693 58.8899 48.7246 58.9953 48.9908 58.9949C49.2569 58.9945 49.5119 58.8885 49.6998 58.7L54.7998 53.6C54.9903 53.4177 55.2437 53.3159 55.5073 53.3159C55.771 53.3159 56.0244 53.4177 56.2148 53.6L56.3848 53.771C56.9565 54.3165 57.7162 54.6208 58.5063 54.6208C59.2965 54.6208 60.0562 54.3165 60.6278 53.771L64.2138 50.185L65.2998 51.271C65.4402 51.4086 65.6179 51.5017 65.8109 51.5389C66.0038 51.576 66.2034 51.5555 66.3848 51.4799C66.5661 51.4042 66.7212 51.2768 66.8306 51.1136C66.94 50.9504 66.9988 50.7585 66.9998 50.562V47.476C66.9998 47.0782 66.8418 46.6967 66.5605 46.4154C66.2792 46.1341 65.8977 45.976 65.4998 45.976Z" fill="#5F05BC"></path><path d="M66 63.976H48C47.2044 63.976 46.4413 63.6599 45.8787 63.0973C45.3161 62.5347 45 61.7716 45 60.976V43C45 42.7348 44.8946 42.4804 44.7071 42.2929C44.5196 42.1054 44.2652 42 44 42C43.7348 42 43.4804 42.1054 43.2929 42.2929C43.1054 42.4804 43 42.7348 43 43V60.976C43.0016 62.3016 43.5289 63.5724 44.4662 64.5098C45.4036 65.4471 46.6744 65.9744 48 65.976H66C66.2652 65.976 66.5196 65.8706 66.7071 65.6831C66.8946 65.4956 67 65.2412 67 64.976C67 64.7108 66.8946 64.4564 66.7071 64.2689C66.5196 64.0814 66.2652 63.976 66 63.976Z" fill="#5F05BC"></path></g></g></svg>