<svg xmlns="http://www.w3.org/2000/svg" width="56" height="56" viewBox="0 0 56 56" fill="none"><path d="M55.9985 37.3338V49.0002C55.9985 50.8566 55.2611 52.6371 53.9483 53.9498C52.6356 55.2625 50.8552 56 48.9987 56H37.3324C34.059 55.9966 30.8441 55.1325 28.0101 53.4944C25.1762 51.8563 22.8228 49.5017 21.1861 46.6669C22.9451 46.6543 24.6981 46.4604 26.4173 46.0883C27.7266 47.7254 29.3876 49.0469 31.277 49.9549C33.1665 50.8629 35.2361 51.334 37.3324 51.3334H48.9987C49.6175 51.3334 50.211 51.0876 50.6486 50.6501C51.0862 50.2125 51.332 49.619 51.332 49.0002V37.3338C51.3314 35.2367 50.8588 33.1667 49.9492 31.2772C49.0396 29.3877 47.7163 27.7272 46.0775 26.4188C46.4528 24.6999 46.6498 22.9469 46.6654 21.1876C49.5003 22.8242 51.8548 25.1776 53.493 28.0116C55.1311 30.8455 55.9952 34.0605 55.9985 37.3338ZM41.9452 22.5199C42.1635 19.5138 41.732 16.4959 40.6802 13.6714C39.6285 10.8469 37.981 8.28182 35.8498 6.1506C33.7185 4.01938 31.1535 2.3719 28.329 1.32012C25.5044 0.268333 22.4866 -0.163106 19.4805 0.055115C14.1534 0.663474 9.23259 3.19844 5.6446 7.18266C2.05661 11.1669 0.0490621 16.3254 0 21.6869V33.4466C0 39.3544 3.51624 42.0004 6.99982 42.0004H20.2995C25.6632 41.9542 30.8249 39.948 34.8119 36.3598C38.799 32.7716 41.3361 27.8491 41.9452 22.5199ZM32.5492 9.45354C34.2056 11.1137 35.4862 13.1102 36.3041 15.3082C37.1221 17.5061 37.4584 19.854 37.2904 22.1932C36.7924 26.355 34.7903 30.1912 31.6609 32.9798C28.5316 35.7683 24.4909 37.3168 20.2995 37.3338H6.99982C4.83454 37.3338 4.66654 34.3589 4.66654 33.4466V21.6869C4.686 17.4972 6.23602 13.4591 9.0249 10.3324C11.8138 7.20578 15.6492 5.20621 19.8095 4.70999C20.1968 4.68199 20.5841 4.668 20.9715 4.668C23.121 4.66599 25.2499 5.0876 27.2365 5.90873C29.223 6.72986 31.0283 7.93441 32.5492 9.45354Z" fill="#5F05BC"></path></svg>